STARTFONT 2.1
COMMENT $Xorg: $
COMMENT ISO10646-1 extension by Markus Kuhn <mkuhn@acm.org>, 2001-03-20
FONT -B&H-LucidaTypewriter-Bold-R-Normal-Sans-25-180-100-100-M-150-ISO10646-1
SIZE 18 100 100
FONTBOUNDINGBOX 25 37 -5 -9
STARTPROPERTIES 22
FONTNAME_REGISTRY ""
FOUNDRY "B&H"
FAMILY_NAME "LucidaTypewriter"
WEIGHT_NAME "Bold"
SLANT "R"
SETWIDTH_NAME "Normal"
ADD_STYLE_NAME "Sans"
PIXEL_SIZE 25
POINT_SIZE 180
RESOLUTION_X 100
RESOLUTION_Y 100
SPACING "M"
AVERAGE_WIDTH 150
CHARSET_REGISTRY "ISO10646"
CHARSET_ENCODING "1"
FONT_ASCENT 23
FONT_DESCENT 5
DEFAULT_CHAR 0
COPYRIGHT "Copyright Bigelow & Holmes 1986, 1985."
FACE_NAME "Lucida Sans Typewriter Bold"
X_HEIGHT 13
CAP_HEIGHT 18
ENDPROPERTIES
CHARS 873
STARTCHAR char0
ENCODING 0
SWIDTH 602 0
DWIDTH 15 0
BBX 13 17 1 0
BITMAP
AAA8
0000
8008
0000
8008
0000
8008
0000
8008
0000
8008
0000
8008
0000
8008
0000
AAA8
ENDCHAR
STARTCHAR space
ENCODING 32
SWIDTH 602 0
DWIDTH 15 0
BBX 1 1 0 0
BITMAP
00
ENDCHAR
STARTCHAR exclam
ENCODING 33
SWIDTH 602 0
DWIDTH 15 0
BBX 4 18 5 0
BITMAP
F0
F0
F0
F0
F0
F0
F0
F0
70
70
70
70
70
00
00
F0
F0
F0
ENDCHAR
STARTCHAR quotedbl
ENCODING 34
SWIDTH 602 0
DWIDTH 15 0
BBX 11 7 2 12
BITMAP
FBE0
FBE0
FBE0
FBE0
71C0
71C0
71C0
ENDCHAR
STARTCHAR numbersign
ENCODING 35
SWIDTH 602 0
DWIDTH 15 0
BBX 13 18 1 0
BITMAP
0770
0770
0F70
0EE0
0EE0
7FF8
7FF8
7FF8
1DC0
1DC0
1DC0
FFF0
FFF0
FFF0
3B80
7380
7700
7700
ENDCHAR
STARTCHAR dollar
ENCODING 36
SWIDTH 602 0
DWIDTH 15 0
BBX 12 23 2 -3
BITMAP
0700
0700
0FE0
3FE0
7FE0
F800
F000
F800
FC00
7F00
3F80
1FC0
07E0
01F0
00F0
00F0
81F0
FFE0
FFE0
7FC0
0700
0700
0700
ENDCHAR
STARTCHAR percent
ENCODING 37
SWIDTH 602 0
DWIDTH 15 0
BBX 14 18 0 0
BITMAP
3878
7C70
FEF0
EEE0
EFE0
EFC0
FFC0
7F80
3B80
0770
07F8
0FFC
0FDC
1FDC
1DDC
3DFC
38F8
7870
ENDCHAR
STARTCHAR ampersand
ENCODING 38
SWIDTH 602 0
DWIDTH 15 0
BBX 15 18 0 0
BITMAP
0F80
1FC0
3FE0
3DE0
3DE0
3DE0
1FC0
0F80
3F1E
7F9E
779E
F7DC
F3FC
F3F8
F9F0
7FF0
3FF8
1FBE
ENDCHAR
STARTCHAR quotesingle
ENCODING 39
SWIDTH 602 0
DWIDTH 15 0
BBX 4 8 5 11
BITMAP
F0
F0
F0
F0
70
70
70
70
ENDCHAR
STARTCHAR parenleft
ENCODING 40
SWIDTH 602 0
DWIDTH 15 0
BBX 10 23 4 -4
BITMAP
00C0
07C0
0FC0
1F00
3E00
7C00
7800
7800
F000
F000
F000
F000
F000
F000
F000
7800
7800
7800
3C00
1E00
0F80
07C0
00C0
ENDCHAR
STARTCHAR parenright
ENCODING 41
SWIDTH 602 0
DWIDTH 15 0
BBX 10 23 1 -4
BITMAP
C000
F800
7C00
1E00
0F00
0700
0780
0780
03C0
03C0
03C0
03C0
03C0
03C0
03C0
0780
0780
0F80
1F00
3E00
FC00
F800
E000
ENDCHAR
STARTCHAR asterisk
ENCODING 42
SWIDTH 602 0
DWIDTH 15 0
BBX 11 11 2 7
BITMAP
0E00
0E00
4440
64C0
F1E0
F1E0
0900
1B00
7B80
31C0
1100
ENDCHAR
STARTCHAR plus
ENCODING 43
SWIDTH 602 0
DWIDTH 15 0
BBX 13 13 1 0
BITMAP
0700
0700
0700
0700
0700
FFF8
FFF8
FFF8
0700
0700
0700
0700
0700
ENDCHAR
STARTCHAR comma
ENCODING 44
SWIDTH 602 0
DWIDTH 15 0
BBX 4 8 5 -4
BITMAP
F0
F0
F0
F0
70
70
F0
E0
ENDCHAR
STARTCHAR hyphen
ENCODING 45
SWIDTH 602 0
DWIDTH 15 0
BBX 13 3 1 5
BITMAP
FFF8
FFF8
FFF8
ENDCHAR
STARTCHAR period
ENCODING 46
SWIDTH 602 0
DWIDTH 15 0
BBX 4 4 5 0
BITMAP
F0
F0
F0
F0
ENDCHAR
STARTCHAR slash
ENCODING 47
SWIDTH 602 0
DWIDTH 15 0
BBX 15 23 0 -4
BITMAP
001E
001C
003C
0038
0078
0070
00F0
00E0
01E0
01C0
03C0
0380
0780
0700
0F00
0E00
1E00
1C00
3800
3800
7000
7000
E000
ENDCHAR
STARTCHAR zero
ENCODING 48
SWIDTH 602 0
DWIDTH 15 0
BBX 13 18 1 0
BITMAP
0F80
3FE0
3FE0
78F0
78F0
F078
F078
F078
F078
F078
F078
F078
F078
78F0
78F0
3FE0
3FE0
0F80
ENDCHAR
STARTCHAR one
ENCODING 49
SWIDTH 602 0
DWIDTH 15 0
BBX 12 18 2 0
BITMAP
FF00
FF00
FF00
0F00
0F00
0F00
0F00
0F00
0F00
0F00
0F00
0F00
0F00
0F00
0F00
FFF0
FFF0
FFF0
ENDCHAR
STARTCHAR two
ENCODING 50
SWIDTH 602 0
DWIDTH 15 0
BBX 11 18 2 0
BITMAP
3F00
7FC0
7FC0
43E0
01E0
01E0
01E0
03C0
07C0
0780
0F00
1E00
3C00
7800
F000
FFE0
FFE0
FFE0
ENDCHAR
STARTCHAR three
ENCODING 51
SWIDTH 602 0
DWIDTH 15 0
BBX 11 18 2 0
BITMAP
7F00
FFC0
FFE0
83E0
01E0
01E0
07C0
3F80
3E00
3F80
07C0
01E0
01E0
01E0
83E0
FFC0
FF80
7E00
ENDCHAR
STARTCHAR four
ENCODING 52
SWIDTH 602 0
DWIDTH 15 0
BBX 13 18 1 0
BITMAP
03E0
03E0
07E0
0FE0
0FE0
1FE0
3DE0
39E0
79E0
F1E0
FFF8
FFF8
FFF8
FFF8
01E0
01E0
01E0
01E0
ENDCHAR
STARTCHAR five
ENCODING 53
SWIDTH 602 0
DWIDTH 15 0
BBX 10 18 3 0
BITMAP
FFC0
FFC0
FFC0
E000
E000
E000
F800
FF00
FF80
0F80
07C0
03C0
03C0
03C0
8780
FF80
FF00
7C00
ENDCHAR
STARTCHAR six
ENCODING 54
SWIDTH 602 0
DWIDTH 15 0
BBX 13 18 1 0
BITMAP
03F0
0FF0
3FF0
3E10
7800
7800
F000
F3C0
FFF0
FFF0
F8F8
F078
F078
7078
78F8
3FF0
1FE0
0FC0
ENDCHAR
STARTCHAR seven
ENCODING 55
SWIDTH 602 0
DWIDTH 15 0
BBX 11 18 3 0
BITMAP
FFE0
FFE0
FFE0
01E0
01E0
03C0
0780
0780
0F00
0E00
1E00
3C00
3C00
3C00
7800
7800
7800
7800
ENDCHAR
STARTCHAR eight
ENCODING 56
SWIDTH 602 0
DWIDTH 15 0
BBX 12 18 2 0
BITMAP
0F80
3FC0
3FE0
79E0
79E0
7DE0
7FC0
3F80
1F80
3FC0
73E0
F1F0
F0F0
F0F0
F9F0
7FE0
7FC0
1F80
ENDCHAR
STARTCHAR nine
ENCODING 57
SWIDTH 602 0
DWIDTH 15 0
BBX 13 18 1 0
BITMAP
1F80
3FC0
7FE0
F8F0
F070
F078
F078
F8F8
7FF8
7FF8
1E78
0078
00F0
00F0
43E0
7FE0
7F80
7E00
ENDCHAR
STARTCHAR colon
ENCODING 58
SWIDTH 602 0
DWIDTH 15 0
BBX 4 13 5 0
BITMAP
F0
F0
F0
F0
00
00
00
00
00
F0
F0
F0
F0
ENDCHAR
STARTCHAR semicolon
ENCODING 59
SWIDTH 602 0
DWIDTH 15 0
BBX 4 17 5 -4
BITMAP
F0
F0
F0
F0
00
00
00
00
00
F0
F0
F0
F0
70
70
E0
C0
ENDCHAR
STARTCHAR less
ENCODING 60
SWIDTH 602 0
DWIDTH 15 0
BBX 13 13 1 0
BITMAP
0008
0038
00F8
03F0
0FC0
3F00
FC00
3F00
0FC0
03F0
00F8
0038
0008
ENDCHAR
STARTCHAR equal
ENCODING 61
SWIDTH 602 0
DWIDTH 15 0
BBX 13 9 1 2
BITMAP
FFF8
FFF8
FFF8
0000
0000
0000
FFF8
FFF8
FFF8
ENDCHAR
STARTCHAR greater
ENCODING 62
SWIDTH 602 0
DWIDTH 15 0
BBX 13 13 1 0
BITMAP
8000
E000
F800
7E00
1F80
07E0
01F8
07E0
1F80
7E00
F800
E000
8000
ENDCHAR
STARTCHAR question
ENCODING 63
SWIDTH 602 0
DWIDTH 15 0
BBX 12 18 2 0
BITMAP
3F80
FFE0
FFF0
C1F0
C0F0
C0F0
01E0
03E0
0FC0
1F00
3E00
3C00
3C00
0000
0000
3C00
3C00
3C00
ENDCHAR
STARTCHAR at
ENCODING 64
SWIDTH 602 0
DWIDTH 15 0
BBX 14 18 1 0
BITMAP
07E0
1FF0
3FF8
3C78
7BB8
77F8
E7F8
EF38
EE38
EE78
EFFC
EFFC
F7BC
7000
7840
3FC0
3FC0
0F80
ENDCHAR
STARTCHAR A
ENCODING 65
SWIDTH 602 0
DWIDTH 15 0
BBX 15 18 0 0
BITMAP
03C0
07C0
07E0
07E0
0FE0
0FF0
0EF0
1CF0
1CF0
1C78
3878
3FF8
3FFC
7FFC
703C
703C
E01E
E01E
ENDCHAR
STARTCHAR B
ENCODING 66
SWIDTH 602 0
DWIDTH 15 0
BBX 13 18 1 0
BITMAP
FFC0
FFE0
FFF0
F0F0
F0F0
F0F0
F1E0
FFC0
FF80
FFE0
F1F0
F078
F078
F078
F0F8
FFF0
FFF0
FFC0
ENDCHAR
STARTCHAR C
ENCODING 67
SWIDTH 602 0
DWIDTH 15 0
BBX 14 18 0 0
BITMAP
03FC
1FFC
3FFC
7E0C
7C00
7800
F000
F000
F000
F000
F000
F000
7800
7C00
7E04
3FFC
1FFC
03F0
ENDCHAR
STARTCHAR D
ENCODING 68
SWIDTH 602 0
DWIDTH 15 0
BBX 13 18 1 0
BITMAP
FF80
FFE0
FFF0
F1F0
F0F8
F078
F078
F078
F078
F078
F078
F078
F078
F0F0
F1F0
FFE0
FFC0
FF00
ENDCHAR
STARTCHAR E
ENCODING 69
SWIDTH 602 0
DWIDTH 15 0
BBX 12 18 2 0
BITMAP
FFE0
FFE0
FFE0
F000
F000
F000
F000
FFC0
FFC0
FFC0
F000
F000
F000
F000
F000
FFF0
FFF0
FFF0
ENDCHAR
STARTCHAR F
ENCODING 70
SWIDTH 602 0
DWIDTH 15 0
BBX 13 18 2 0
BITMAP
FFF8
FFF8
FFF8
F000
F000
F000
F000
F000
FFF0
FFE0
FFE0
F000
F000
F000
F000
F000
F000
F000
ENDCHAR
STARTCHAR G
ENCODING 71
SWIDTH 602 0
DWIDTH 15 0
BBX 14 18 0 0
BITMAP
03F8
1FFC
3FFC
7E04
7C00
7800
F000
F000
F000
F03C
F03C
F03C
F83C
783C
7E3C
3FFC
1FFC
07F0
ENDCHAR
STARTCHAR H
ENCODING 72
SWIDTH 602 0
DWIDTH 15 0
BBX 13 18 1 0
BITMAP
F078
F078
F078
F078
F078
F078
F078
FFF8
FFF8
FFF8
F078
F078
F078
F078
F078
F078
F078
F078
ENDCHAR
STARTCHAR I
ENCODING 73
SWIDTH 602 0
DWIDTH 15 0
BBX 12 18 1 0
BITMAP
FFF0
FFF0
FFF0
0F00
0F00
0F00
0F00
0F00
0F00
0F00
0F00
0F00
0F00
0F00
0F00
FFF0
FFF0
FFF0
ENDCHAR
STARTCHAR J
ENCODING 74
SWIDTH 602 0
DWIDTH 15 0
BBX 11 18 2 0
BITMAP
7FE0
7FE0
7FE0
01E0
01E0
01E0
01E0
01E0
01E0
01E0
01E0
01E0
01E0
01E0
83E0
FFC0
FF80
FF00
ENDCHAR
STARTCHAR K
ENCODING 75
SWIDTH 602 0
DWIDTH 15 0
BBX 14 18 1 0
BITMAP
F03C
F078
F0F0
F0E0
F1E0
F3C0
F780
FF00
FF00
FF80
FF80
F7C0
F3E0
F1E0
F1F0
F0F8
F0F8
F07C
ENDCHAR
STARTCHAR L
ENCODING 76
SWIDTH 602 0
DWIDTH 15 0
BBX 12 18 3 0
BITMAP
F000
F000
F000
F000
F000
F000
F000
F000
F000
F000
F000
F000
F000
F000
F000
FFF0
FFF0
FFF0
ENDCHAR
STARTCHAR M
ENCODING 77
SWIDTH 602 0
DWIDTH 15 0
BBX 14 18 1 0
BITMAP
F87C
F87C
F8FC
F8FC
FCFC
FCFC
FDFC
FDFC
EFFC
EFFC
EFBC
EFBC
EFBC
EFBC
E7BC
E7BC
E73C
E03C
ENDCHAR
STARTCHAR N
ENCODING 78
SWIDTH 602 0
DWIDTH 15 0
BBX 12 18 1 0
BITMAP
F070
F870
F870
FC70
FC70
FE70
FE70
FF70
EF70
EFF0
E7F0
E7F0
E3F0
E3F0
E1F0
E1F0
E1F0
E0F0
ENDCHAR
STARTCHAR O
ENCODING 79
SWIDTH 602 0
DWIDTH 15 0
BBX 14 18 1 0
BITMAP
0FC0
1FE0
3FF0
7878
7878
F03C
F03C
F03C
F03C
F03C
F03C
F03C
F03C
7878
7878
3FF0
1FE0
0FC0
ENDCHAR
STARTCHAR P
ENCODING 80
SWIDTH 602 0
DWIDTH 15 0
BBX 13 18 2 0
BITMAP
FFC0
FFF0
FFF0
F0F8
F078
F078
F078
F078
F0F0
FFF0
FFE0
FF80
F000
F000
F000
F000
F000
F000
ENDCHAR
STARTCHAR Q
ENCODING 81
SWIDTH 602 0
DWIDTH 15 0
BBX 15 22 1 -4
BITMAP
0FC0
1FE0
3FF0
7878
7878
F03C
F03C
F03C
F03C
F03C
F03C
F03C
F03C
7878
7878
3FF0
1FE0
0FC0
00FE
007C
003C
0008
ENDCHAR
STARTCHAR R
ENCODING 82
SWIDTH 602 0
DWIDTH 15 0
BBX 13 18 2 0
BITMAP
FFC0
FFE0
FFF0
F1F0
F0F0
F0F0
F0F0
F1E0
F3C0
FF80
FF80
FFC0
F7C0
F3E0
F1E0
F1F0
F0F0
F078
ENDCHAR
STARTCHAR S
ENCODING 83
SWIDTH 602 0
DWIDTH 15 0
BBX 13 18 1 0
BITMAP
1FE0
7FF0
7FF0
F830
F000
F800
FE00
7F80
3FC0
0FF0
03F0
00F8
0078
0078
C0F8
FFF0
FFE0
7F80
ENDCHAR
STARTCHAR T
ENCODING 84
SWIDTH 602 0
DWIDTH 15 0
BBX 14 18 1 0
BITMAP
FFFC
FFFC
FFFC
0780
0780
0780
0780
0780
0780
0780
0780
0780
0780
0780
0780
0780
0780
0780
ENDCHAR
STARTCHAR U
ENCODING 85
SWIDTH 602 0
DWIDTH 15 0
BBX 12 18 1 0
BITMAP
F0F0
F0F0
F0F0
F0F0
F0F0
F0F0
F0F0
F0F0
F0F0
F0F0
F0F0
F0F0
F0F0
F0F0
F9F0
7FE0
7FE0
1F80
ENDCHAR
STARTCHAR V
ENCODING 86
SWIDTH 602 0
DWIDTH 15 0
BBX 15 18 0 0
BITMAP
F00E
F80E
781C
781C
781C
3C38
3C38
3C38
3E70
1E70
1E70
1EE0
0FE0
0FE0
0FE0
07C0
07C0
07C0
ENDCHAR
STARTCHAR W
ENCODING 87
SWIDTH 602 0
DWIDTH 15 0
BBX 15 18 0 0
BITMAP
F006
F3C6
F3C6
F3CE
73CE
7FCC
7FEC
7FEC
7FEC
7FEC
7EFC
3EFC
3EFC
3EFC
3EF8
3C78
3C78
3C78
ENDCHAR
STARTCHAR X
ENCODING 88
SWIDTH 602 0
DWIDTH 15 0
BBX 14 18 1 0
BITMAP
F83C
7838
7C70
3C70
3EE0
1FE0
1FC0
0FC0
0780
07C0
0FC0
1FE0
1DE0
3DF0
38F0
78F8
F078
E07C
ENDCHAR
STARTCHAR Y
ENCODING 89
SWIDTH 602 0
DWIDTH 15 0
BBX 16 18 0 0
BITMAP
F80F
780E
7C1E
3C1C
3E3C
1F38
0F70
0FF0
07E0
07E0
03C0
03C0
03C0
03C0
03C0
03C0
03C0
03C0
ENDCHAR
STARTCHAR Z
ENCODING 90
SWIDTH 602 0
DWIDTH 15 0
BBX 13 18 1 0
BITMAP
7FF8
7FF8
7FF8
00F8
01F0
03E0
03E0
07C0
0F80
0F80
1F00
3E00
3E00
7C00
F800
FFF8
FFF8
FFF8
ENDCHAR
STARTCHAR bracketleft
ENCODING 91
SWIDTH 602 0
DWIDTH 15 0
BBX 10 23 4 -4
BITMAP
FFC0
FFC0
FFC0
F000
F000
F000
F000
F000
F000
F000
F000
F000
F000
F000
F000
F000
F000
F000
F000
F000
FFC0
FFC0
FFC0
ENDCHAR
STARTCHAR backslash
ENCODING 92
SWIDTH 602 0
DWIDTH 15 0
BBX 15 23 0 -4
BITMAP
F000
7000
7800
3800
3C00
1C00
1E00
0E00
0F00
0700
0780
0380
03C0
01C0
01E0
00E0
00F0
0070
0078
0038
003C
001C
001E
ENDCHAR
STARTCHAR bracketright
ENCODING 93
SWIDTH 602 0
DWIDTH 15 0
BBX 10 23 1 -4
BITMAP
FFC0
FFC0
FFC0
03C0
03C0
03C0
03C0
03C0
03C0
03C0
03C0
03C0
03C0
03C0
03C0
03C0
03C0
03C0
03C0
03C0
FFC0
FFC0
FFC0
ENDCHAR
STARTCHAR asciicircum
ENCODING 94
SWIDTH 602 0
DWIDTH 15 0
BBX 13 15 1 3
BITMAP
0200
0200
0700
0700
0F80
0F80
0F80
1DC0
1DC0
38E0
38E0
78F0
7070
F078
E038
ENDCHAR
STARTCHAR underscore
ENCODING 95
SWIDTH 602 0
DWIDTH 15 0
BBX 15 3 0 -3
BITMAP
FFFE
FFFE
FFFE
ENDCHAR
STARTCHAR grave
ENCODING 96
SWIDTH 602 0
DWIDTH 15 0
BBX 6 4 5 15
BITMAP
F0
78
38
1C
ENDCHAR
STARTCHAR a
ENCODING 97
SWIDTH 602 0
DWIDTH 15 0
BBX 13 13 1 0
BITMAP
1FC0
7FE0
7FF0
41F0
00F0
1FF0
7FF0
FFF0
F0F0
F1F0
FFF0
7FF8
3E78
ENDCHAR
STARTCHAR b
ENCODING 98
SWIDTH 602 0
DWIDTH 15 0
BBX 13 19 1 0
BITMAP
F000
F000
F000
F000
F000
F000
F3C0
F7F0
FFF0
FFF8
F8F8
F078
F078
F078
F078
F8F0
FFF0
FFE0
E7C0
ENDCHAR
STARTCHAR c
ENCODING 99
SWIDTH 602 0
DWIDTH 15 0
BBX 13 13 1 0
BITMAP
0FF8
3FF8
7FF8
7C18
F800
F000
F000
F000
F800
7C08
7FF8
3FF8
0FF8
ENDCHAR
STARTCHAR d
ENCODING 100
SWIDTH 602 0
DWIDTH 15 0
BBX 13 19 1 0
BITMAP
0078
0078
0078
0078
0078
0078
1F78
3FF8
7FF8
78F8
F078
F078
F078
F078
F8F8
FFF8
7FF8
7F78
1E78
ENDCHAR
STARTCHAR e
ENCODING 101
SWIDTH 602 0
DWIDTH 15 0
BBX 13 13 1 0
BITMAP
0FC0
3FE0
7FF0
7870
F078
FFF8
FFF8
FFF8
F000
7808
7FF8
3FF8
0FE0
ENDCHAR
STARTCHAR f
ENCODING 102
SWIDTH 602 0
DWIDTH 15 0
BBX 13 19 2 0
BITMAP
03F0
0FF8
1FF8
1E08
1E00
1E00
FFF0
FFF0
FFF0
1E00
1E00
1E00
1E00
1E00
1E00
1E00
1E00
1E00
1E00
ENDCHAR
STARTCHAR g
ENCODING 103
SWIDTH 602 0
DWIDTH 15 0
BBX 13 18 1 -5
BITMAP
1F38
3FB8
7FF8
78F8
F078
F078
F078
F078
F8F8
FFF8
7FF8
7F78
1E78
0078
20F0
3FF0
7FE0
1FC0
ENDCHAR
STARTCHAR h
ENCODING 104
SWIDTH 602 0
DWIDTH 15 0
BBX 12 19 2 0
BITMAP
F000
F000
F000
F000
F000
F000
F3C0
F7E0
FFF0
FFF0
F8F0
F0F0
F0F0
F0F0
F0F0
F0F0
F0F0
F0F0
F0F0
ENDCHAR
STARTCHAR i
ENCODING 105
SWIDTH 602 0
DWIDTH 15 0
BBX 9 19 2 0
BITMAP
0780
0780
0780
0780
0000
0000
FF80
FF80
FF80
0780
0780
0780
0780
0780
0780
0780
0780
0780
0780
ENDCHAR
STARTCHAR j
ENCODING 106
SWIDTH 602 0
DWIDTH 15 0
BBX 10 24 1 -5
BITMAP
03C0
03C0
03C0
03C0
0000
0000
7FC0
7FC0
7FC0
03C0
03C0
03C0
03C0
03C0
03C0
03C0
03C0
03C0
03C0
03C0
87C0
FF80
FF80
7F00
ENDCHAR
STARTCHAR k
ENCODING 107
SWIDTH 602 0
DWIDTH 15 0
BBX 13 19 2 0
BITMAP
F000
F000
F000
F000
F000
F000
F0F0
F1E0
F1C0
F380
F780
FF00
FF80
F7C0
F7C0
F3E0
F1F0
F1F0
F0F8
ENDCHAR
STARTCHAR l
ENCODING 108
SWIDTH 602 0
DWIDTH 15 0
BBX 9 19 1 0
BITMAP
FF80
FF80
FF80
0780
0780
0780
0780
0780
0780
0780
0780
0780
0780
0780
0780
0780
0780
0780
0780
ENDCHAR
STARTCHAR m
ENCODING 109
SWIDTH 602 0
DWIDTH 15 0
BBX 14 13 0 0
BITMAP
F338
F7BC
FFFC
F7BC
F7BC
F7BC
F7BC
F7BC
F7BC
F7BC
F7BC
F7BC
F7BC
ENDCHAR
STARTCHAR n
ENCODING 110
SWIDTH 602 0
DWIDTH 15 0
BBX 12 13 2 0
BITMAP
F3C0
F7E0
FFF0
FFF0
F8F0
F0F0
F0F0
F0F0
F0F0
F0F0
F0F0
F0F0
F0F0
ENDCHAR
STARTCHAR o
ENCODING 111
SWIDTH 602 0
DWIDTH 15 0
BBX 14 13 0 0
BITMAP
0FC0
3FF0
7FF8
7878
F03C
F03C
F03C
F03C
F03C
7878
7FF8
3FF0
0FC0
ENDCHAR
STARTCHAR p
ENCODING 112
SWIDTH 602 0
DWIDTH 15 0
BBX 13 18 1 -5
BITMAP
F3C0
F7F0
FFF0
FFF8
F8F8
F078
F078
F078
F078
F8F0
FFF0
FFE0
F7C0
F000
F000
F000
F000
F000
ENDCHAR
STARTCHAR q
ENCODING 113
SWIDTH 602 0
DWIDTH 15 0
BBX 13 18 1 -5
BITMAP
1F38
3FF8
7FF8
78F8
F078
F078
F078
F078
F8F8
FFF8
7FF8
7F78
1E78
0078
0078
0078
0078
0078
ENDCHAR
STARTCHAR r
ENCODING 114
SWIDTH 602 0
DWIDTH 15 0
BBX 11 13 3 0
BITMAP
F3E0
F7E0
FFE0
FFE0
FCE0
F800
F000
F000
F000
F000
F000
F000
F000
ENDCHAR
STARTCHAR s
ENCODING 115
SWIDTH 602 0
DWIDTH 15 0
BBX 12 13 2 0
BITMAP
1FC0
7FE0
FFE0
F020
FE00
FFC0
7FE0
1FF0
03F0
C1F0
FFF0
FFE0
7F80
ENDCHAR
STARTCHAR t
ENCODING 116
SWIDTH 602 0
DWIDTH 15 0
BBX 12 17 2 0
BITMAP
0E00
1E00
1E00
1E00
FFF0
FFF0
FFF0
1E00
1E00
1E00
1E00
1E00
1E00
1E10
1FF0
0FF0
07E0
ENDCHAR
STARTCHAR u
ENCODING 117
SWIDTH 602 0
DWIDTH 15 0
BBX 12 13 1 0
BITMAP
F0F0
F0F0
F0F0
F0F0
F0F0
F0F0
F0F0
F0F0
F1F0
FFF0
FFF0
7EF0
3CF0
ENDCHAR
STARTCHAR v
ENCODING 118
SWIDTH 602 0
DWIDTH 15 0
BBX 14 13 1 0
BITMAP
F01C
F83C
7838
7838
3C70
3C70
3EF0
1EE0
1EE0
0FC0
0FC0
0FC0
0780
ENDCHAR
STARTCHAR w
ENCODING 119
SWIDTH 602 0
DWIDTH 15 0
BBX 15 13 0 0
BITMAP
F00E
F3CE
F3CE
7BCC
7FCC
7FEC
7FFC
7FFC
7EFC
3E78
3E78
3C78
3C38
ENDCHAR
STARTCHAR x
ENCODING 120
SWIDTH 602 0
DWIDTH 15 0
BBX 14 13 1 0
BITMAP
F83C
7C78
3EF0
1FE0
1FC0
0FC0
0FC0
0FC0
1FE0
3DF0
79F0
70F8
F07C
ENDCHAR
STARTCHAR y
ENCODING 121
SWIDTH 602 0
DWIDTH 15 0
BBX 14 18 1 -5
BITMAP
F01C
F83C
7838
7C78
3C70
3E70
1EE0
1FE0
0FC0
0FC0
07C0
0780
0780
0700
0F00
7E00
7E00
7800
ENDCHAR
STARTCHAR z
ENCODING 122
SWIDTH 602 0
DWIDTH 15 0
BBX 12 13 2 0
BITMAP
FFF0
FFF0
FFF0
03F0
07E0
0FC0
1F80
3F00
7E00
FC00
FFF0
FFF0
FFF0
ENDCHAR
STARTCHAR braceleft
ENCODING 123
SWIDTH 602 0
DWIDTH 15 0
BBX 11 23 2 -4
BITMAP
07E0
1FE0
1FE0
1E00
1E00
0E00
0F00
0F00
0F00
0F00
FE00
F800
FE00
0F00
0F00
0F00
0F00
1E00
1E00
1E00
1FE0
1FE0
07E0
ENDCHAR
STARTCHAR bar
ENCODING 124
SWIDTH 602 0
DWIDTH 15 0
BBX 3 23 6 -4
BITMAP
E0
E0
E0
E0
E0
E0
E0
E0
E0
E0
E0
E0
E0
E0
E0
E0
E0
E0
E0
E0
E0
E0
E0
ENDCHAR
STARTCHAR braceright
ENCODING 125
SWIDTH 602 0
DWIDTH 15 0
BBX 11 23 2 -4
BITMAP
FC00
FF00
FF00
0F00
0F00
0F00
1E00
1E00
1E00
1E00
0FE0
03E0
0FE0
1E00
1E00
1E00
1E00
0E00
0F00
0F00
FF00
FF00
FC00
ENDCHAR
STARTCHAR asciitilde
ENCODING 126
SWIDTH 602 0
DWIDTH 15 0
BBX 13 5 1 4
BITMAP
3C38
7F38
FFF8
E7F0
E1E0
ENDCHAR
STARTCHAR space
ENCODING 160
SWIDTH 602 0
DWIDTH 15 0
BBX 1 1 0 0
BITMAP
00
ENDCHAR
STARTCHAR exclamdown
ENCODING 161
SWIDTH 602 0
DWIDTH 15 0
BBX 4 18 5 -5
BITMAP
F0
F0
F0
F0
00
70
70
70
70
70
F0
F0
F0
F0
F0
F0
F0
F0
ENDCHAR
STARTCHAR cent
ENCODING 162
SWIDTH 602 0
DWIDTH 15 0
BBX 11 18 2 0
BITMAP
0700
0700
0FE0
3FE0
7FE0
7800
F000
F000
F000
F000
F800
7C00
7FE0
3FE0
1FE0
0700
0700
0700
ENDCHAR
STARTCHAR sterling
ENCODING 163
SWIDTH 602 0
DWIDTH 15 0
BBX 11 18 2 0
BITMAP
0FE0
1FE0
3FE0
3C00
3C00
3C00
3C00
FF80
FF80
FF80
3C00
3C00
3C00
3800
3000
FFE0
FFE0
FFE0
ENDCHAR
STARTCHAR currency
ENCODING 164
SWIDTH 602 0
DWIDTH 15 0
BBX 13 14 1 2
BITMAP
6030
FFF8
FFF0
7FE0
78E0
7070
7070
7070
7070
78E0
7FF0
FFF0
FFF8
6010
ENDCHAR
STARTCHAR yen
ENCODING 165
SWIDTH 602 0
DWIDTH 15 0
BBX 16 18 0 0
BITMAP
F80F
7C1E
3E3C
1F78
0FF0
0FF0
07E0
1FF8
1FF8
1FF8
03C0
1FF8
1FF8
1FF8
03C0
03C0
03C0
03C0
ENDCHAR
STARTCHAR brokenbar
ENCODING 166
SWIDTH 602 0
DWIDTH 15 0
BBX 3 23 6 -4
BITMAP
E0
E0
E0
E0
E0
E0
E0
E0
E0
00
00
00
00
00
E0
E0
E0
E0
E0
E0
E0
E0
E0
ENDCHAR
STARTCHAR section
ENCODING 167
SWIDTH 602 0
DWIDTH 15 0
BBX 10 23 2 -5
BITMAP
1F80
7F80
FF80
F080
F000
F000
7C00
3F00
7F80
F7C0
E3C0
E1C0
F1C0
FFC0
7F80
3F00
1F80
07C0
03C0
87C0
FFC0
FF80
FE00
ENDCHAR
STARTCHAR dieresis
ENCODING 168
SWIDTH 602 0
DWIDTH 15 0
BBX 7 3 4 15
BITMAP
EE
EE
EE
ENDCHAR
STARTCHAR copyright
ENCODING 169
SWIDTH 602 0
DWIDTH 15 0
BBX 14 18 0 0
BITMAP
0FC0
1FE0
3FF0
7878
73B8
E79C
EE9C
EE1C
EE1C
EE1C
EE1C
EE9C
E79C
73BC
7878
3FF0
1FE0
0FC0
ENDCHAR
STARTCHAR ordfeminine
ENCODING 170
SWIDTH 602 0
DWIDTH 15 0
BBX 11 10 2 8
BITMAP
7F00
FFC0
FFC0
C1C0
3FC0
FFC0
E1C0
FFE0
FFE0
7CE0
ENDCHAR
STARTCHAR guillemotleft
ENCODING 171
SWIDTH 602 0
DWIDTH 15 0
BBX 14 11 1 1
BITMAP
0408
0F1C
1E38
3C78
78F0
FBE0
79F0
3CF0
1E78
0E3C
0418
ENDCHAR
STARTCHAR logicalnot
ENCODING 172
SWIDTH 602 0
DWIDTH 15 0
BBX 13 6 1 2
BITMAP
FFF8
FFF8
FFF8
0038
0038
0038
ENDCHAR
STARTCHAR hyphen
ENCODING 173
SWIDTH 602 0
DWIDTH 15 0
BBX 10 3 2 6
BITMAP
FFC0
FFC0
FFC0
ENDCHAR
STARTCHAR registered
ENCODING 174
SWIDTH 602 0
DWIDTH 15 0
BBX 13 13 1 5
BITMAP
0F80
3FE0
7FF0
78F0
FFF8
EFF8
EFF8
EFF8
FFF8
7FF0
7FF0
3FE0
0F80
ENDCHAR
STARTCHAR macron
ENCODING 175
SWIDTH 602 0
DWIDTH 15 0
BBX 7 3 4 15
BITMAP
FE
FE
FE
ENDCHAR
STARTCHAR degree
ENCODING 176
SWIDTH 602 0
DWIDTH 15 0
BBX 5 4 6 14
BITMAP
30
F8
78
30
ENDCHAR
STARTCHAR plusminus
ENCODING 177
SWIDTH 602 0
DWIDTH 15 0
BBX 13 13 1 0
BITMAP
0700
0700
0700
FFF8
FFF8
FFF8
0700
0700
0000
0000
FFF8
FFF8
FFF8
ENDCHAR
STARTCHAR twosuperior
ENCODING 178
SWIDTH 602 0
DWIDTH 15 0
BBX 5 9 -3 9
BITMAP
F0
88
08
08
10
20
40
C0
F8
ENDCHAR
STARTCHAR threesuperior
ENCODING 179
SWIDTH 602 0
DWIDTH 15 0
BBX 4 9 -3 9
BITMAP
E0
10
10
30
60
30
10
10
E0
ENDCHAR
STARTCHAR acute
ENCODING 180
SWIDTH 602 0
DWIDTH 15 0
BBX 6 4 4 15
BITMAP
3C
78
70
E0
ENDCHAR
STARTCHAR mu
ENCODING 181
SWIDTH 602 0
DWIDTH 15 0
BBX 12 17 1 -4
BITMAP
F0F0
F0F0
F0F0
F0F0
F0F0
F0F0
F0F0
F0F0
F9F0
FFF0
FFF0
FFF0
FEF0
F000
F000
F000
F000
ENDCHAR
STARTCHAR paragraph
ENCODING 182
SWIDTH 602 0
DWIDTH 15 0
BBX 11 22 1 -4
BITMAP
3FE0
7FE0
FFE0
FFE0
FFE0
FFE0
7FE0
7FE0
1FE0
07E0
07E0
07E0
07E0
07E0
07E0
07E0
07E0
07E0
07E0
07E0
07E0
07E0
ENDCHAR
STARTCHAR periodcentered
ENCODING 183
SWIDTH 602 0
DWIDTH 15 0
BBX 3 4 6 4
BITMAP
E0
E0
E0
E0
ENDCHAR
STARTCHAR cedilla
ENCODING 184
SWIDTH 602 0
DWIDTH 15 0
BBX 5 5 6 -5
BITMAP
60
F8
18
F8
F0
ENDCHAR
STARTCHAR onesuperior
ENCODING 185
SWIDTH 602 0
DWIDTH 15 0
BBX 5 9 -3 9
BITMAP
E0
20
20
20
20
20
20
20
F8
ENDCHAR
STARTCHAR ordmasculine
ENCODING 186
SWIDTH 602 0
DWIDTH 15 0
BBX 11 10 2 8
BITMAP
1F00
7FC0
7FC0
F1E0
E0E0
E0E0
F1E0
7FC0
7FC0
1F00
ENDCHAR
STARTCHAR guillemotright
ENCODING 187
SWIDTH 602 0
DWIDTH 15 0
BBX 14 11 0 1
BITMAP
6080
F1C0
79E0
3CF0
3E78
1F7C
3E78
7CF0
79E0
F3C0
6080
ENDCHAR
STARTCHAR onequarter
ENCODING 188
SWIDTH 602 0
DWIDTH 15 0
BBX 17 18 3 0
BITMAP
700780
100F00
101E00
103C00
103800
107800
10F000
10E000
7DE000
03C200
038600
078E00
0F0A00
0E1200
1C1F00
3C0200
780200
F00200
ENDCHAR
STARTCHAR onehalf
ENCODING 189
SWIDTH 602 0
DWIDTH 15 0
BBX 17 18 3 0
BITMAP
700780
100F00
101E00
103C00
103800
107800
10F000
10E000
7DE000
03DE00
039100
078100
0F0100
0E0200
1C0400
3C0800
781800
F01F00
ENDCHAR
STARTCHAR threequarters
ENCODING 190
SWIDTH 602 0
DWIDTH 15 0
BBX 17 18 3 0
BITMAP
700780
080F00
081E00
183C00
303800
187800
08F000
08E000
71E000
03C200
038600
078E00
0F0A00
0E1200
1C1F00
3C0200
780200
F00200
ENDCHAR
STARTCHAR questiondown
ENCODING 191
SWIDTH 602 0
DWIDTH 15 0
BBX 12 18 1 -5
BITMAP
03C0
03C0
03C0
03C0
0000
03C0
03C0
07C0
0F80
3F00
7C00
F800
F030
F030
F830
FFF0
7FF0
1FC0
ENDCHAR
STARTCHAR Agrave
ENCODING 192
SWIDTH 602 0
DWIDTH 15 0
BBX 15 23 0 0
BITMAP
0780
03C0
01C0
00E0
0000
03C0
07C0
07E0
07E0
0FE0
0FF0
0EF0
1CF0
1CF0
1C78
3878
3FF8
3FFC
7FFC
703C
703C
E01E
E01E
ENDCHAR
STARTCHAR Aacute
ENCODING 193
SWIDTH 602 0
DWIDTH 15 0
BBX 15 23 0 0
BITMAP
03C0
0780
0700
0E00
0000
03C0
07C0
07E0
07E0
0FE0
0FF0
0EF0
1CF0
1CF0
1C78
3878
3FF8
3FFC
7FFC
703C
703C
E01E
E01E
ENDCHAR
STARTCHAR Acircumflex
ENCODING 194
SWIDTH 602 0
DWIDTH 15 0
BBX 15 23 0 0
BITMAP
0780
0FC0
0FC0
1CE0
0000
03C0
07C0
07E0
07E0
0FE0
0FF0
0EF0
1CF0
1CF0
1C78
3878
3FF8
3FFC
7FFC
703C
703C
E01E
E01E
ENDCHAR
STARTCHAR Atilde
ENCODING 195
SWIDTH 602 0
DWIDTH 15 0
BBX 15 23 0 0
BITMAP
0730
0FF0
0FF0
0CE0
0000
03C0
07C0
07E0
07E0
0FE0
0FF0
0EF0
1CF0
1CF0
1C78
3878
3FF8
3FFC
7FFC
703C
703C
E01E
E01E
ENDCHAR
STARTCHAR Adieresis
ENCODING 196
SWIDTH 602 0
DWIDTH 15 0
BBX 15 22 0 0
BITMAP
0EE0
0EE0
0EE0
0000
03C0
07C0
07E0
07E0
0FE0
0FF0
0EF0
1CF0
1CF0
1C78
3878
3FF8
3FFC
7FFC
703C
703C
E01E
E01E
ENDCHAR
STARTCHAR Aring
ENCODING 197
SWIDTH 602 0
DWIDTH 15 0
BBX 15 23 0 0
BITMAP
0180
0240
0240
0180
0000
03C0
07C0
07E0
07E0
0FE0
0FF0
0EF0
1CF0
1CF0
1C78
3878
3FF8
3FFC
7FFC
703C
703C
E01E
E01E
ENDCHAR
STARTCHAR AE
ENCODING 198
SWIDTH 602 0
DWIDTH 15 0
BBX 16 18 1 0
BITMAP
01FF
01FF
03FF
03F0
03F0
07F0
07F0
0FFE
0EFE
0EFE
1CF0
1FF0
3FF0
3FF0
38F0
78FF
70FF
F0FF
ENDCHAR
STARTCHAR Ccedilla
ENCODING 199
SWIDTH 602 0
DWIDTH 15 0
BBX 14 23 0 -5
BITMAP
03FC
1FFC
3FFC
7E0C
7C00
7800
F000
F000
F000
F000
F000
F000
7800
7C00
7E04
3FFC
1FFC
03F0
0300
07C0
00C0
07C0
0780
ENDCHAR
STARTCHAR Egrave
ENCODING 200
SWIDTH 602 0
DWIDTH 15 0
BBX 12 23 2 0
BITMAP
1E00
0F00
0700
0380
0000
FFE0
FFE0
FFE0
F000
F000
F000
F000
FFC0
FFC0
FFC0
F000
F000
F000
F000
F000
FFF0
FFF0
FFF0
ENDCHAR
STARTCHAR Eacute
ENCODING 201
SWIDTH 602 0
DWIDTH 15 0
BBX 12 23 2 0
BITMAP
0780
0F00
0E00
1C00
0000
FFE0
FFE0
FFE0
F000
F000
F000
F000
FFC0
FFC0
FFC0
F000
F000
F000
F000
F000
FFF0
FFF0
FFF0
ENDCHAR
STARTCHAR Ecircumflex
ENCODING 202
SWIDTH 602 0
DWIDTH 15 0
BBX 12 23 2 0
BITMAP
0F00
1F80
1F80
39C0
0000
FFE0
FFE0
FFE0
F000
F000
F000
F000
FFC0
FFC0
FFC0
F000
F000
F000
F000
F000
FFF0
FFF0
FFF0
ENDCHAR
STARTCHAR Edieresis
ENCODING 203
SWIDTH 602 0
DWIDTH 15 0
BBX 12 22 2 0
BITMAP
3B80
3B80
3B80
0000
FFE0
FFE0
FFE0
F000
F000
F000
F000
FFC0
FFC0
FFC0
F000
F000
F000
F000
F000
FFF0
FFF0
FFF0
ENDCHAR
STARTCHAR Igrave
ENCODING 204
SWIDTH 602 0
DWIDTH 15 0
BBX 12 23 1 0
BITMAP
1E00
0F00
0700
0380
0000
FFF0
FFF0
FFF0
0F00
0F00
0F00
0F00
0F00
0F00
0F00
0F00
0F00
0F00
0F00
0F00
FFF0
FFF0
FFF0
ENDCHAR
STARTCHAR Iacute
ENCODING 205
SWIDTH 602 0
DWIDTH 15 0
BBX 12 23 1 0
BITMAP
0780
0F00
0E00
1C00
0000
FFF0
FFF0
FFF0
0F00
0F00
0F00
0F00
0F00
0F00
0F00
0F00
0F00
0F00
0F00
0F00
FFF0
FFF0
FFF0
ENDCHAR
STARTCHAR Icircumflex
ENCODING 206
SWIDTH 602 0
DWIDTH 15 0
BBX 12 23 1 0
BITMAP
0F00
1F80
1F80
39C0
0000
FFF0
FFF0
FFF0
0F00
0F00
0F00
0F00
0F00
0F00
0F00
0F00
0F00
0F00
0F00
0F00
FFF0
FFF0
FFF0
ENDCHAR
STARTCHAR Idieresis
ENCODING 207
SWIDTH 602 0
DWIDTH 15 0
BBX 12 22 1 0
BITMAP
3B80
3B80
3B80
0000
FFF0
FFF0
FFF0
0F00
0F00
0F00
0F00
0F00
0F00
0F00
0F00
0F00
0F00
0F00
0F00
FFF0
FFF0
FFF0
ENDCHAR
STARTCHAR Eth
ENCODING 208
SWIDTH 602 0
DWIDTH 15 0
BBX 14 18 0 0
BITMAP
7FC0
7FF0
7FF8
78F8
787C
783C
783C
FE3C
FE3C
FE3C
783C
783C
783C
7878
78F8
7FF0
7FE0
7F80
ENDCHAR
STARTCHAR Ntilde
ENCODING 209
SWIDTH 602 0
DWIDTH 15 0
BBX 12 23 1 0
BITMAP
1CC0
3FC0
3FC0
3380
0000
F070
F870
F870
FC70
FC70
FE70
FE70
FF70
EF70
EFF0
E7F0
E7F0
E3F0
E3F0
E1F0
E1F0
E1F0
E0F0
ENDCHAR
STARTCHAR Ograve
ENCODING 210
SWIDTH 602 0
DWIDTH 15 0
BBX 14 23 1 0
BITMAP
0F00
0780
0380
01C0
0000
0FC0
1FE0
3FF0
7878
7878
F03C
F03C
F03C
F03C
F03C
F03C
F03C
F03C
7878
7878
3FF0
1FE0
0FC0
ENDCHAR
STARTCHAR Oacute
ENCODING 211
SWIDTH 602 0
DWIDTH 15 0
BBX 14 23 1 0
BITMAP
03C0
0780
0700
0E00
0000
0FC0
1FE0
3FF0
7878
7878
F03C
F03C
F03C
F03C
F03C
F03C
F03C
F03C
7878
7878
3FF0
1FE0
0FC0
ENDCHAR
STARTCHAR Ocircumflex
ENCODING 212
SWIDTH 602 0
DWIDTH 15 0
BBX 14 23 1 0
BITMAP
0780
0FC0
0FC0
1CE0
0000
0FC0
1FE0
3FF0
7878
7878
F03C
F03C
F03C
F03C
F03C
F03C
F03C
F03C
7878
7878
3FF0
1FE0
0FC0
ENDCHAR
STARTCHAR Otilde
ENCODING 213
SWIDTH 602 0
DWIDTH 15 0
BBX 14 23 1 0
BITMAP
0E60
1FE0
1FE0
19C0
0000
0FC0
1FE0
3FF0
7878
7878
F03C
F03C
F03C
F03C
F03C
F03C
F03C
F03C
7878
7878
3FF0
1FE0
0FC0
ENDCHAR
STARTCHAR Odieresis
ENCODING 214
SWIDTH 602 0
DWIDTH 15 0
BBX 14 22 1 0
BITMAP
1DC0
1DC0
1DC0
0000
0FC0
1FE0
3FF0
7878
7878
F03C
F03C
F03C
F03C
F03C
F03C
F03C
F03C
7878
7878
3FF0
1FE0
0FC0
ENDCHAR
STARTCHAR multiply
ENCODING 215
SWIDTH 602 0
DWIDTH 15 0
BBX 13 13 1 0
BITMAP
6030
F078
F8F8
7DF0
3FE0
1FC0
0F80
1FC0
3FE0
7DF0
F8F8
F078
6030
ENDCHAR
STARTCHAR Oslash
ENCODING 216
SWIDTH 602 0
DWIDTH 15 0
BBX 14 18 1 0
BITMAP
0FDC
1FF8
3FF0
78F8
78F8
F1FC
F1FC
F3FC
F7BC
F73C
FF3C
FE3C
FC3C
7C78
7C78
3FF0
7FE0
EFC0
ENDCHAR
STARTCHAR Ugrave
ENCODING 217
SWIDTH 602 0
DWIDTH 15 0
BBX 12 23 1 0
BITMAP
1E00
0F00
0700
0380
0000
F0F0
F0F0
F0F0
F0F0
F0F0
F0F0
F0F0
F0F0
F0F0
F0F0
F0F0
F0F0
F0F0
F0F0
F9F0
7FE0
7FE0
1F80
ENDCHAR
STARTCHAR Uacute
ENCODING 218
SWIDTH 602 0
DWIDTH 15 0
BBX 12 23 1 0
BITMAP
0780
0F00
0E00
1C00
0000
F0F0
F0F0
F0F0
F0F0
F0F0
F0F0
F0F0
F0F0
F0F0
F0F0
F0F0
F0F0
F0F0
F0F0
F9F0
7FE0
7FE0
1F80
ENDCHAR
STARTCHAR Ucircumflex
ENCODING 219
SWIDTH 602 0
DWIDTH 15 0
BBX 12 23 1 0
BITMAP
0F00
1F80
1F80
39C0
0000
F0F0
F0F0
F0F0
F0F0
F0F0
F0F0
F0F0
F0F0
F0F0
F0F0
F0F0
F0F0
F0F0
F0F0
F9F0
7FE0
7FE0
1F80
ENDCHAR
STARTCHAR Udieresis
ENCODING 220
SWIDTH 602 0
DWIDTH 15 0
BBX 12 22 1 0
BITMAP
3B80
3B80
3B80
0000
F0F0
F0F0
F0F0
F0F0
F0F0
F0F0
F0F0
F0F0
F0F0
F0F0
F0F0
F0F0
F0F0
F0F0
F9F0
7FE0
7FE0
1F80
ENDCHAR
STARTCHAR Yacute
ENCODING 221
SWIDTH 602 0
DWIDTH 15 0
BBX 16 23 0 0
BITMAP
01E0
03C0
0380
0700
0000
F80F
780E
7C1E
3C1C
3E3C
1F38
0F70
0FF0
07E0
07E0
03C0
03C0
03C0
03C0
03C0
03C0
03C0
03C0
ENDCHAR
STARTCHAR Thorn
ENCODING 222
SWIDTH 602 0
DWIDTH 15 0
BBX 13 18 2 0
BITMAP
F000
F000
F000
FFC0
FFF0
FFF8
F0F8
F078
F078
F078
F0F8
FFF0
FFE0
FF80
F000
F000
F000
F000
ENDCHAR
STARTCHAR germandbls
ENCODING 223
SWIDTH 602 0
DWIDTH 15 0
BBX 13 19 1 0
BITMAP
1F80
7FC0
7FE0
F1E0
F1E0
F1C0
F380
F380
F380
F3C0
F3E0
F1F0
F0F8
F0F8
F078
F478
F7F8
F7F0
F3E0
ENDCHAR
STARTCHAR agrave
ENCODING 224
SWIDTH 602 0
DWIDTH 15 0
BBX 13 18 1 0
BITMAP
1E00
0F00
0700
0380
0000
1FC0
7FE0
7FF0
41F0
00F0
1FF0
7FF0
FFF0
F0F0
F1F0
FFF0
7FF8
3E78
ENDCHAR
STARTCHAR aacute
ENCODING 225
SWIDTH 602 0
DWIDTH 15 0
BBX 13 18 1 0
BITMAP
0780
0F00
0E00
1C00
0000
1FC0
7FE0
7FF0
41F0
00F0
1FF0
7FF0
FFF0
F0F0
F1F0
FFF0
7FF8
3E78
ENDCHAR
STARTCHAR acircumflex
ENCODING 226
SWIDTH 602 0
DWIDTH 15 0
BBX 13 18 1 0
BITMAP
0F00
1F80
1F80
39C0
0000
1FC0
7FE0
7FF0
41F0
00F0
1FF0
7FF0
FFF0
F0F0
F1F0
FFF0
7FF8
3E78
ENDCHAR
STARTCHAR atilde
ENCODING 227
SWIDTH 602 0
DWIDTH 15 0
BBX 13 18 1 0
BITMAP
1CC0
3FC0
3FC0
3380
0000
1FC0
7FE0
7FF0
41F0
00F0
1FF0
7FF0
FFF0
F0F0
F1F0
FFF0
7FF8
3E78
ENDCHAR
STARTCHAR adieresis
ENCODING 228
SWIDTH 602 0
DWIDTH 15 0
BBX 13 17 1 0
BITMAP
1DC0
1DC0
1DC0
0000
1FC0
7FE0
7FF0
41F0
00F0
1FF0
7FF0
FFF0
F0F0
F1F0
FFF0
7FF8
3E78
ENDCHAR
STARTCHAR aring
ENCODING 229
SWIDTH 602 0
DWIDTH 15 0
BBX 13 18 1 0
BITMAP
0600
0900
0900
0600
0000
1FC0
7FE0
7FF0
41F0
00F0
1FF0
7FF0
FFF0
F0F0
F1F0
FFF0
7FF8
3E78
ENDCHAR
STARTCHAR ae
ENCODING 230
SWIDTH 602 0
DWIDTH 15 0
BBX 14 13 0 0
BITMAP
3E70
7FF8
7FF8
43BC
03BC
1FFC
7FFC
FFFC
F380
F384
FFFC
7DFC
38F8
ENDCHAR
STARTCHAR ccedilla
ENCODING 231
SWIDTH 602 0
DWIDTH 15 0
BBX 13 18 1 -5
BITMAP
0FF8
3FF8
7FF8
7C18
F800
F000
F000
F000
F800
7C08
7FF8
3FF8
0FF8
0600
0F80
0180
0F80
0F00
ENDCHAR
STARTCHAR egrave
ENCODING 232
SWIDTH 602 0
DWIDTH 15 0
BBX 13 18 1 0
BITMAP
1E00
0F00
0700
0380
0000
0FC0
3FE0
7FF0
7870
F078
FFF8
FFF8
FFF8
F000
7808
7FF8
3FF8
0FE0
ENDCHAR
STARTCHAR eacute
ENCODING 233
SWIDTH 602 0
DWIDTH 15 0
BBX 13 18 1 0
BITMAP
0780
0F00
0E00
1C00
0000
0FC0
3FE0
7FF0
7870
F078
FFF8
FFF8
FFF8
F000
7808
7FF8
3FF8
0FE0
ENDCHAR
STARTCHAR ecircumflex
ENCODING 234
SWIDTH 602 0
DWIDTH 15 0
BBX 13 18 1 0
BITMAP
0F00
1F80
1F80
39C0
0000
0FC0
3FE0
7FF0
7870
F078
FFF8
FFF8
FFF8
F000
7808
7FF8
3FF8
0FE0
ENDCHAR
STARTCHAR edieresis
ENCODING 235
SWIDTH 602 0
DWIDTH 15 0
BBX 13 17 1 0
BITMAP
1DC0
1DC0
1DC0
0000
0FC0
3FE0
7FF0
7870
F078
FFF8
FFF8
FFF8
F000
7808
7FF8
3FF8
0FE0
ENDCHAR
STARTCHAR igrave
ENCODING 236
SWIDTH 602 0
DWIDTH 15 0
BBX 9 18 2 0
BITMAP
3C00
1E00
0E00
0700
0000
FF80
FF80
FF80
0780
0780
0780
0780
0780
0780
0780
0780
0780
0780
ENDCHAR
STARTCHAR iacute
ENCODING 237
SWIDTH 602 0
DWIDTH 15 0
BBX 9 18 2 0
BITMAP
0F00
1E00
1C00
3800
0000
FF80
FF80
FF80
0780
0780
0780
0780
0780
0780
0780
0780
0780
0780
ENDCHAR
STARTCHAR icircumflex
ENCODING 238
SWIDTH 602 0
DWIDTH 15 0
BBX 9 18 2 0
BITMAP
1E00
3F00
3F00
7380
0000
FF80
FF80
FF80
0780
0780
0780
0780
0780
0780
0780
0780
0780
0780
ENDCHAR
STARTCHAR idieresis
ENCODING 239
SWIDTH 602 0
DWIDTH 15 0
BBX 9 17 2 0
BITMAP
3B80
3B80
3B80
0000
FF80
FF80
FF80
0780
0780
0780
0780
0780
0780
0780
0780
0780
0780
ENDCHAR
STARTCHAR eth
ENCODING 240
SWIDTH 602 0
DWIDTH 15 0
BBX 14 19 0 0
BITMAP
FC60
FFE0
FFC0
0FC0
0DE0
09F0
0FF8
3FF8
7FFC
787C
F03C
F03C
F03C
F03C
F07C
7878
7FF0
3FE0
0FC0
ENDCHAR
STARTCHAR ntilde
ENCODING 241
SWIDTH 602 0
DWIDTH 15 0
BBX 12 18 2 0
BITMAP
1CC0
3FC0
3FC0
3380
0000
F3C0
F7E0
FFF0
FFF0
F8F0
F0F0
F0F0
F0F0
F0F0
F0F0
F0F0
F0F0
F0F0
ENDCHAR
STARTCHAR ograve
ENCODING 242
SWIDTH 602 0
DWIDTH 15 0
BBX 14 18 0 0
BITMAP
0F00
0780
0380
01C0
0000
0FC0
3FF0
7FF8
7878
F03C
F03C
F03C
F03C
F03C
7878
7FF8
3FF0
0FC0
ENDCHAR
STARTCHAR oacute
ENCODING 243
SWIDTH 602 0
DWIDTH 15 0
BBX 14 18 0 0
BITMAP
03C0
0780
0700
0E00
0000
0FC0
3FF0
7FF8
7878
F03C
F03C
F03C
F03C
F03C
7878
7FF8
3FF0
0FC0
ENDCHAR
STARTCHAR ocircumflex
ENCODING 244
SWIDTH 602 0
DWIDTH 15 0
BBX 14 18 0 0
BITMAP
0780
0FC0
0FC0
1CE0
0000
0FC0
3FF0
7FF8
7878
F03C
F03C
F03C
F03C
F03C
7878
7FF8
3FF0
0FC0
ENDCHAR
STARTCHAR otilde
ENCODING 245
SWIDTH 602 0
DWIDTH 15 0
BBX 14 18 0 0
BITMAP
0E60
1FE0
1FE0
19C0
0000
0FC0
3FF0
7FF8
7878
F03C
F03C
F03C
F03C
F03C
7878
7FF8
3FF0
0FC0
ENDCHAR
STARTCHAR odieresis
ENCODING 246
SWIDTH 602 0
DWIDTH 15 0
BBX 14 17 0 0
BITMAP
1DC0
1DC0
1DC0
0000
0FC0
3FF0
7FF8
7878
F03C
F03C
F03C
F03C
F03C
7878
7FF8
3FF0
0FC0
ENDCHAR
STARTCHAR divide
ENCODING 247
SWIDTH 602 0
DWIDTH 15 0
BBX 14 13 0 0
BITMAP
0780
0780
0780
0780
0000
FFFC
FFFC
FFFC
0000
0780
0780
0780
0780
ENDCHAR
STARTCHAR oslash
ENCODING 248
SWIDTH 602 0
DWIDTH 15 0
BBX 14 13 0 0
BITMAP
0FFC
3FF8
7FF8
78F8
F1FC
F3FC
F7BC
FF3C
FE3C
7C78
7FF8
7FF0
FFC0
ENDCHAR
STARTCHAR ugrave
ENCODING 249
SWIDTH 602 0
DWIDTH 15 0
BBX 12 18 1 0
BITMAP
1E00
0F00
0700
0380
0000
F0F0
F0F0
F0F0
F0F0
F0F0
F0F0
F0F0
F0F0
F1F0
FFF0
FFF0
7EF0
3CF0
ENDCHAR
STARTCHAR uacute
ENCODING 250
SWIDTH 602 0
DWIDTH 15 0
BBX 12 18 1 0
BITMAP
0780
0F00
0E00
1C00
0000
F0F0
F0F0
F0F0
F0F0
F0F0
F0F0
F0F0
F0F0
F1F0
FFF0
FFF0
7EF0
3CF0
ENDCHAR
STARTCHAR ucircumflex
ENCODING 251
SWIDTH 602 0
DWIDTH 15 0
BBX 12 18 1 0
BITMAP
0F00
1F80
1F80
39C0
0000
F0F0
F0F0
F0F0
F0F0
F0F0
F0F0
F0F0
F0F0
F1F0
FFF0
FFF0
7EF0
3CF0
ENDCHAR
STARTCHAR udieresis
ENCODING 252
SWIDTH 602 0
DWIDTH 15 0
BBX 12 17 1 0
BITMAP
1DC0
1DC0
1DC0
0000
F0F0
F0F0
F0F0
F0F0
F0F0
F0F0
F0F0
F0F0
F1F0
FFF0
FFF0
7EF0
3CF0
ENDCHAR
STARTCHAR yacute
ENCODING 253
SWIDTH 602 0
DWIDTH 15 0
BBX 14 23 1 -5
BITMAP
03C0
0780
0700
0E00
0000
F01C
F83C
7838
7C78
3C70
3E70
1EE0
1FE0
0FC0
0FC0
07C0
0780
0780
0700
0F00
7E00
7E00
7800
ENDCHAR
STARTCHAR thorn
ENCODING 254
SWIDTH 602 0
DWIDTH 15 0
BBX 13 22 1 -5
BITMAP
F000
F000
F000
F000
F3C0
F7F0
FFF0
FFF8
F8F8
F078
F078
F078
F078
F8F0
FFF0
FFE0
F7C0
F000
F000
F000
F000
F000
ENDCHAR
STARTCHAR ydieresis
ENCODING 255
SWIDTH 602 0
DWIDTH 15 0
BBX 14 22 1 -5
BITMAP
1DC0
1DC0
1DC0
0000
F01C
F83C
7838
7C78
3C70
3E70
1EE0
1FE0
0FC0
0FC0
07C0
0780
0780
0700
0F00
7E00
7E00
7800
ENDCHAR
STARTCHAR Amacron
ENCODING 256
SWIDTH 602 0
DWIDTH 15 0
BBX 15 22 0 0
BITMAP
0FE0
0FE0
0FE0
0000
03C0
07C0
07E0
07E0
0FE0
0FF0
0EF0
1CF0
1CF0
1C78
3878
3FF8
3FFC
7FFC
703C
703C
E01E
E01E
ENDCHAR
STARTCHAR amacron
ENCODING 257
SWIDTH 602 0
DWIDTH 15 0
BBX 13 17 1 0
BITMAP
1FC0
1FC0
1FC0
0000
1FC0
7FE0
7FF0
41F0
00F0
1FF0
7FF0
FFF0
F0F0
F1F0
FFF0
7FF8
3E78
ENDCHAR
STARTCHAR Abreve
ENCODING 258
SWIDTH 602 0
DWIDTH 15 0
BBX 15 23 0 0
BITMAP
0C30
0FF0
07E0
03C0
0000
03C0
07C0
07E0
07E0
0FE0
0FF0
0EF0
1CF0
1CF0
1C78
3878
3FF8
3FFC
7FFC
703C
703C
E01E
E01E
ENDCHAR
STARTCHAR abreve
ENCODING 259
SWIDTH 602 0
DWIDTH 15 0
BBX 13 18 1 0
BITMAP
1860
1FE0
0FC0
0780
0000
1FC0
7FE0
7FF0
41F0
00F0
1FF0
7FF0
FFF0
F0F0
F1F0
FFF0
7FF8
3E78
ENDCHAR
STARTCHAR Aogonek
ENCODING 260
SWIDTH 602 0
DWIDTH 15 0
BBX 15 23 0 -5
BITMAP
03C0
07C0
07E0
07E0
0FE0
0FF0
0EF0
1CF0
1CF0
1C78
3878
3FF8
3FFC
7FFC
703C
703C
E01E
E01E
01C0
0100
0300
03C0
03C0
ENDCHAR
STARTCHAR aogonek
ENCODING 261
SWIDTH 602 0
DWIDTH 15 0
BBX 13 18 1 -5
BITMAP
1FC0
7FE0
7FF0
41F0
00F0
1FF0
7FF0
FFF0
F0F0
F1F0
FFF0
7FF8
3E78
0700
0400
0C00
0F00
0F00
ENDCHAR
STARTCHAR Cacute
ENCODING 262
SWIDTH 602 0
DWIDTH 15 0
BBX 14 23 0 0
BITMAP
01E0
03C0
0380
0700
0000
03FC
1FFC
3FFC
7E0C
7C00
7800
F000
F000
F000
F000
F000
F000
7800
7C00
7E04
3FFC
1FFC
03F0
ENDCHAR
STARTCHAR cacute
ENCODING 263
SWIDTH 602 0
DWIDTH 15 0
BBX 13 18 1 0
BITMAP
01E0
03C0
0380
0700
0000
0FF8
3FF8
7FF8
7C18
F800
F000
F000
F000
F800
7C08
7FF8
3FF8
0FF8
ENDCHAR
STARTCHAR Ccircumflex
ENCODING 264
SWIDTH 602 0
DWIDTH 15 0
BBX 14 23 0 0
BITMAP
0780
0FC0
0FC0
1CE0
0000
03FC
1FFC
3FFC
7E0C
7C00
7800
F000
F000
F000
F000
F000
F000
7800
7C00
7E04
3FFC
1FFC
03F0
ENDCHAR
STARTCHAR ccircumflex
ENCODING 265
SWIDTH 602 0
DWIDTH 15 0
BBX 13 18 1 0
BITMAP
0780
0FC0
0FC0
1CE0
0000
0FF8
3FF8
7FF8
7C18
F800
F000
F000
F000
F800
7C08
7FF8
3FF8
0FF8
ENDCHAR
STARTCHAR Cdotaccent
ENCODING 266
SWIDTH 602 0
DWIDTH 15 0
BBX 14 22 0 0
BITMAP
0380
0380
0380
0000
03FC
1FFC
3FFC
7E0C
7C00
7800
F000
F000
F000
F000
F000
F000
7800
7C00
7E04
3FFC
1FFC
03F0
ENDCHAR
STARTCHAR cdotaccent
ENCODING 267
SWIDTH 602 0
DWIDTH 15 0
BBX 13 17 1 0
BITMAP
0380
0380
0380
0000
0FF8
3FF8
7FF8
7C18
F800
F000
F000
F000
F800
7C08
7FF8
3FF8
0FF8
ENDCHAR
STARTCHAR Ccaron
ENCODING 268
SWIDTH 602 0
DWIDTH 15 0
BBX 14 23 0 0
BITMAP
1CE0
0FC0
0FC0
0780
0000
03FC
1FFC
3FFC
7E0C
7C00
7800
F000
F000
F000
F000
F000
F000
7800
7C00
7E04
3FFC
1FFC
03F0
ENDCHAR
STARTCHAR ccaron
ENCODING 269
SWIDTH 602 0
DWIDTH 15 0
BBX 13 18 1 0
BITMAP
1CE0
0FC0
0FC0
0780
0000
0FF8
3FF8
7FF8
7C18
F800
F000
F000
F000
F800
7C08
7FF8
3FF8
0FF8
ENDCHAR
STARTCHAR Dcaron
ENCODING 270
SWIDTH 602 0
DWIDTH 15 0
BBX 13 23 1 0
BITMAP
39C0
1F80
1F80
0F00
0000
FF80
FFE0
FFF0
F1F0
F0F8
F078
F078
F078
F078
F078
F078
F078
F078
F0F0
F1F0
FFE0
FFC0
FF00
ENDCHAR
STARTCHAR dcaron
ENCODING 271
SWIDTH 602 0
DWIDTH 15 0
BBX 14 24 1 0
BITMAP
039C
01F8
01F8
00F0
0000
0078
0078
0078
0078
0078
0078
1F78
3FF8
7FF8
78F8
F078
F078
F078
F078
F8F8
FFF8
7FF8
7F78
1E78
ENDCHAR
STARTCHAR Dcroat
ENCODING 272
SWIDTH 602 0
DWIDTH 15 0
BBX 14 18 0 0
BITMAP
7FC0
7FF0
7FF8
78F8
787C
783C
783C
FE3C
FE3C
FE3C
783C
783C
783C
7878
78F8
7FF0
7FE0
7F80
ENDCHAR
STARTCHAR dcroat
ENCODING 273
SWIDTH 602 0
DWIDTH 15 0
BBX 15 19 1 0
BITMAP
0078
0078
0078
1FFE
1FFE
1FFE
1F78
3FF8
7FF8
78F8
F078
F078
F078
F078
F8F8
FFF8
7FF8
7F78
1E78
ENDCHAR
STARTCHAR Emacron
ENCODING 274
SWIDTH 602 0
DWIDTH 15 0
BBX 12 22 2 0
BITMAP
3F80
3F80
3F80
0000
FFE0
FFE0
FFE0
F000
F000
F000
F000
FFC0
FFC0
FFC0
F000
F000
F000
F000
F000
FFF0
FFF0
FFF0
ENDCHAR
STARTCHAR emacron
ENCODING 275
SWIDTH 602 0
DWIDTH 15 0
BBX 13 17 1 0
BITMAP
1FC0
1FC0
1FC0
0000
0FC0
3FE0
7FF0
7870
F078
FFF8
FFF8
FFF8
F000
7808
7FF8
3FF8
0FE0
ENDCHAR
STARTCHAR Ebreve
ENCODING 276
SWIDTH 602 0
DWIDTH 15 0
BBX 12 23 2 0
BITMAP
6180
7F80
3F00
1E00
0000
FFE0
FFE0
FFE0
F000
F000
F000
F000
FFC0
FFC0
FFC0
F000
F000
F000
F000
F000
FFF0
FFF0
FFF0
ENDCHAR
STARTCHAR ebreve
ENCODING 277
SWIDTH 602 0
DWIDTH 15 0
BBX 13 18 1 0
BITMAP
1860
1FE0
0FC0
0780
0000
0FC0
3FE0
7FF0
7870
F078
FFF8
FFF8
FFF8
F000
7808
7FF8
3FF8
0FE0
ENDCHAR
STARTCHAR Edotaccent
ENCODING 278
SWIDTH 602 0
DWIDTH 15 0
BBX 12 22 2 0
BITMAP
0E00
0E00
0E00
0000
FFE0
FFE0
FFE0
F000
F000
F000
F000
FFC0
FFC0
FFC0
F000
F000
F000
F000
F000
FFF0
FFF0
FFF0
ENDCHAR
STARTCHAR edotaccent
ENCODING 279
SWIDTH 602 0
DWIDTH 15 0
BBX 13 17 1 0
BITMAP
0700
0700
0700
0000
0FC0
3FE0
7FF0
7870
F078
FFF8
FFF8
FFF8
F000
7808
7FF8
3FF8
0FE0
ENDCHAR
STARTCHAR Eogonek
ENCODING 280
SWIDTH 602 0
DWIDTH 15 0
BBX 12 23 2 -5
BITMAP
FFE0
FFE0
FFE0
F000
F000
F000
F000
FFC0
FFC0
FFC0
F000
F000
F000
F000
F000
FFF0
FFF0
FFF0
0E00
0800
1800
1E00
1E00
ENDCHAR
STARTCHAR eogonek
ENCODING 281
SWIDTH 602 0
DWIDTH 15 0
BBX 13 18 1 -5
BITMAP
0FC0
3FE0
7FF0
7870
F078
FFF8
FFF8
FFF8
F000
7808
7FF8
3FF8
0FE0
0380
0200
0600
0780
0780
ENDCHAR
STARTCHAR Ecaron
ENCODING 282
SWIDTH 602 0
DWIDTH 15 0
BBX 12 23 2 0
BITMAP
7380
3F00
3F00
1E00
0000
FFE0
FFE0
FFE0
F000
F000
F000
F000
FFC0
FFC0
FFC0
F000
F000
F000
F000
F000
FFF0
FFF0
FFF0
ENDCHAR
STARTCHAR ecaron
ENCODING 283
SWIDTH 602 0
DWIDTH 15 0
BBX 13 18 1 0
BITMAP
1CE0
0FC0
0FC0
0780
0000
0FC0
3FE0
7FF0
7870
F078
FFF8
FFF8
FFF8
F000
7808
7FF8
3FF8
0FE0
ENDCHAR
STARTCHAR Gcircumflex
ENCODING 284
SWIDTH 602 0
DWIDTH 15 0
BBX 14 23 0 0
BITMAP
0780
0FC0
0FC0
1CE0
0000
03F8
1FFC
3FFC
7E04
7C00
7800
F000
F000
F000
F03C
F03C
F03C
F83C
783C
7E3C
3FFC
1FFC
07F0
ENDCHAR
STARTCHAR gcircumflex
ENCODING 285
SWIDTH 602 0
DWIDTH 15 0
BBX 13 23 1 -5
BITMAP
0780
0FC0
0FC0
1CE0
0000
1F38
3FB8
7FF8
78F8
F078
F078
F078
F078
F8F8
FFF8
7FF8
7F78
1E78
0078
20F0
3FF0
7FE0
1FC0
ENDCHAR
STARTCHAR Gbreve
ENCODING 286
SWIDTH 602 0
DWIDTH 15 0
BBX 14 23 0 0
BITMAP
1860
1FE0
0FC0
0780
0000
03F8
1FFC
3FFC
7E04
7C00
7800
F000
F000
F000
F03C
F03C
F03C
F83C
783C
7E3C
3FFC
1FFC
07F0
ENDCHAR
STARTCHAR gbreve
ENCODING 287
SWIDTH 602 0
DWIDTH 15 0
BBX 13 23 1 -5
BITMAP
1860
1FE0
0FC0
0780
0000
1F38
3FB8
7FF8
78F8
F078
F078
F078
F078
F8F8
FFF8
7FF8
7F78
1E78
0078
20F0
3FF0
7FE0
1FC0
ENDCHAR
STARTCHAR Gdotaccent
ENCODING 288
SWIDTH 602 0
DWIDTH 15 0
BBX 14 22 0 0
BITMAP
0380
0380
0380
0000
03F8
1FFC
3FFC
7E04
7C00
7800
F000
F000
F000
F03C
F03C
F03C
F83C
783C
7E3C
3FFC
1FFC
07F0
ENDCHAR
STARTCHAR gdotaccent
ENCODING 289
SWIDTH 602 0
DWIDTH 15 0
BBX 13 22 1 -5
BITMAP
0700
0700
0700
0000
1F38
3FB8
7FF8
78F8
F078
F078
F078
F078
F8F8
FFF8
7FF8
7F78
1E78
0078
20F0
3FF0
7FE0
1FC0
ENDCHAR
STARTCHAR Gcommaaccent
ENCODING 290
SWIDTH 602 0
DWIDTH 15 0
BBX 14 27 0 -9
BITMAP
03F8
1FFC
3FFC
7E04
7C00
7800
F000
F000
F000
F03C
F03C
F03C
F83C
783C
7E3C
3FFC
1FFC
07F0
0000
03C0
03C0
03C0
03C0
01C0
01C0
03C0
0380
ENDCHAR
STARTCHAR gcommaaccent
ENCODING 291
SWIDTH 602 0
DWIDTH 15 0
BBX 13 27 1 -5
BITMAP
0380
0780
0700
0700
0780
0780
0780
0780
0000
1F38
3FB8
7FF8
78F8
F078
F078
F078
F078
F8F8
FFF8
7FF8
7F78
1E78
0078
20F0
3FF0
7FE0
1FC0
ENDCHAR
STARTCHAR Hcircumflex
ENCODING 292
SWIDTH 602 0
DWIDTH 15 0
BBX 13 23 1 0
BITMAP
0780
0FC0
0FC0
1CE0
0000
F078
F078
F078
F078
F078
F078
F078
FFF8
FFF8
FFF8
F078
F078
F078
F078
F078
F078
F078
F078
ENDCHAR
STARTCHAR hcircumflex
ENCODING 293
SWIDTH 602 0
DWIDTH 15 0
BBX 13 24 1 0
BITMAP
3C00
7E00
7E00
E700
0000
7800
7800
7800
7800
7800
7800
79E0
7BF0
7FF8
7FF8
7C78
7878
7878
7878
7878
7878
7878
7878
7878
ENDCHAR
STARTCHAR Hbar
ENCODING 294
SWIDTH 602 0
DWIDTH 15 0
BBX 13 18 1 0
BITMAP
F078
F078
F078
FFF8
FFF8
FFF8
F078
FFF8
FFF8
FFF8
F078
F078
F078
F078
F078
F078
F078
F078
ENDCHAR
STARTCHAR hbar
ENCODING 295
SWIDTH 602 0
DWIDTH 15 0
BBX 15 19 -1 0
BITMAP
1E00
1E00
1E00
FFF0
FFF0
FFF0
1E78
1EFC
1FFE
1FFE
1F1E
1E1E
1E1E
1E1E
1E1E
1E1E
1E1E
1E1E
1E1E
ENDCHAR
STARTCHAR Itilde
ENCODING 296
SWIDTH 602 0
DWIDTH 15 0
BBX 12 23 1 0
BITMAP
1CC0
3FC0
3FC0
3380
0000
FFF0
FFF0
FFF0
0F00
0F00
0F00
0F00
0F00
0F00
0F00
0F00
0F00
0F00
0F00
0F00
FFF0
FFF0
FFF0
ENDCHAR
STARTCHAR itilde
ENCODING 297
SWIDTH 602 0
DWIDTH 15 0
BBX 9 18 2 0
BITMAP
3980
7F80
7F80
6700
0000
FF80
FF80
FF80
0780
0780
0780
0780
0780
0780
0780
0780
0780
0780
ENDCHAR
STARTCHAR Imacron
ENCODING 298
SWIDTH 602 0
DWIDTH 15 0
BBX 12 22 1 0
BITMAP
1FC0
1FC0
1FC0
0000
FFF0
FFF0
FFF0
0F00
0F00
0F00
0F00
0F00
0F00
0F00
0F00
0F00
0F00
0F00
0F00
FFF0
FFF0
FFF0
ENDCHAR
STARTCHAR imacron
ENCODING 299
SWIDTH 602 0
DWIDTH 15 0
BBX 9 17 2 0
BITMAP
7F00
7F00
7F00
0000
FF80
FF80
FF80
0780
0780
0780
0780
0780
0780
0780
0780
0780
0780
ENDCHAR
STARTCHAR Ibreve
ENCODING 300
SWIDTH 602 0
DWIDTH 15 0
BBX 12 23 1 0
BITMAP
30C0
3FC0
1F80
0F00
0000
FFF0
FFF0
FFF0
0F00
0F00
0F00
0F00
0F00
0F00
0F00
0F00
0F00
0F00
0F00
0F00
FFF0
FFF0
FFF0
ENDCHAR
STARTCHAR ibreve
ENCODING 301
SWIDTH 602 0
DWIDTH 15 0
BBX 9 18 2 0
BITMAP
6180
7F80
3F00
1E00
0000
FF80
FF80
FF80
0780
0780
0780
0780
0780
0780
0780
0780
0780
0780
ENDCHAR
STARTCHAR Iogonek
ENCODING 302
SWIDTH 602 0
DWIDTH 15 0
BBX 12 23 1 -5
BITMAP
FFF0
FFF0
FFF0
0F00
0F00
0F00
0F00
0F00
0F00
0F00
0F00
0F00
0F00
0F00
0F00
FFF0
FFF0
FFF0
0700
0400
0C00
0F00
0F00
ENDCHAR
STARTCHAR iogonek
ENCODING 303
SWIDTH 602 0
DWIDTH 15 0
BBX 9 24 2 -5
BITMAP
0780
0780
0780
0780
0000
0000
FF80
FF80
FF80
0780
0780
0780
0780
0780
0780
0780
0780
0780
0780
0700
0400
0C00
0F00
0F00
ENDCHAR
STARTCHAR Idotaccent
ENCODING 304
SWIDTH 602 0
DWIDTH 15 0
BBX 12 22 1 0
BITMAP
0700
0700
0700
0000
FFF0
FFF0
FFF0
0F00
0F00
0F00
0F00
0F00
0F00
0F00
0F00
0F00
0F00
0F00
0F00
FFF0
FFF0
FFF0
ENDCHAR
STARTCHAR dotlessi
ENCODING 305
SWIDTH 602 0
DWIDTH 15 0
BBX 9 13 2 0
BITMAP
FF80
FF80
FF80
0780
0780
0780
0780
0780
0780
0780
0780
0780
0780
ENDCHAR
STARTCHAR IJ
ENCODING 306
SWIDTH 602 0
DWIDTH 15 0
BBX 17 18 1 0
BITMAP
FFFF80
FFFF80
FFFF80
0F0780
0F0780
0F0780
0F0780
0F0780
0F0780
0F0780
0F0780
0F0780
0F0780
0F0780
0F0F80
FFFF00
FFFE00
FFFC00
ENDCHAR
STARTCHAR ij
ENCODING 307
SWIDTH 602 0
DWIDTH 15 0
BBX 13 24 2 -5
BITMAP
07F8
07F8
07F8
07F8
0000
0000
FFF8
FFF8
FFF8
07F8
07F8
07F8
07F8
07F8
07F8
07F8
07F8
07F8
07F8
0078
10F8
1FF0
1FF0
0FE0
ENDCHAR
STARTCHAR Jcircumflex
ENCODING 308
SWIDTH 602 0
DWIDTH 15 0
BBX 11 23 2 0
BITMAP
0F00
1F80
1F80
39C0
0000
7FE0
7FE0
7FE0
01E0
01E0
01E0
01E0
01E0
01E0
01E0
01E0
01E0
01E0
01E0
83E0
FFC0
FF80
FF00
ENDCHAR
STARTCHAR jcircumflex
ENCODING 309
SWIDTH 602 0
DWIDTH 15 0
BBX 10 23 1 -5
BITMAP
0F00
1F80
1F80
39C0
0000
7FC0
7FC0
7FC0
03C0
03C0
03C0
03C0
03C0
03C0
03C0
03C0
03C0
03C0
03C0
87C0
FF80
FF80
7F00
ENDCHAR
STARTCHAR Kcommaaccent
ENCODING 310
SWIDTH 602 0
DWIDTH 15 0
BBX 14 27 1 -9
BITMAP
F03C
F078
F0F0
F0E0
F1E0
F3C0
F780
FF00
FF00
FF80
FF80
F7C0
F3E0
F1E0
F1F0
F0F8
F0F8
F07C
0000
0780
0780
0780
0780
0380
0380
0780
0700
ENDCHAR
STARTCHAR kcommaaccent
ENCODING 311
SWIDTH 602 0
DWIDTH 15 0
BBX 13 28 2 -9
BITMAP
F000
F000
F000
F000
F000
F000
F0F0
F1E0
F1C0
F380
F780
FF00
FF80
F7C0
F7C0
F3E0
F1F0
F1F0
F0F8
0000
0F00
0F00
0F00
0F00
0700
0700
0F00
0E00
ENDCHAR
STARTCHAR kgreenlandic
ENCODING 312
SWIDTH 602 0
DWIDTH 15 0
BBX 13 13 2 0
BITMAP
F0F0
F1E0
F1C0
F380
F780
FF00
FF80
F7C0
F7C0
F3E0
F1F0
F1F0
F0F8
ENDCHAR
STARTCHAR Lacute
ENCODING 313
SWIDTH 602 0
DWIDTH 15 0
BBX 12 23 3 0
BITMAP
1E00
3C00
3800
7000
0000
F000
F000
F000
F000
F000
F000
F000
F000
F000
F000
F000
F000
F000
F000
F000
FFF0
FFF0
FFF0
ENDCHAR
STARTCHAR lacute
ENCODING 314
SWIDTH 602 0
DWIDTH 15 0
BBX 9 24 1 0
BITMAP
0780
0F00
0E00
1C00
0000
FF80
FF80
FF80
0780
0780
0780
0780
0780
0780
0780
0780
0780
0780
0780
0780
0780
0780
0780
0780
ENDCHAR
STARTCHAR Lcommaaccent
ENCODING 315
SWIDTH 602 0
DWIDTH 15 0
BBX 12 27 3 -9
BITMAP
F000
F000
F000
F000
F000
F000
F000
F000
F000
F000
F000
F000
F000
F000
F000
FFF0
FFF0
FFF0
0000
0F00
0F00
0F00
0F00
0700
0700
0F00
0E00
ENDCHAR
STARTCHAR lcommaaccent
ENCODING 316
SWIDTH 602 0
DWIDTH 15 0
BBX 9 28 1 -9
BITMAP
FF80
FF80
FF80
0780
0780
0780
0780
0780
0780
0780
0780
0780
0780
0780
0780
0780
0780
0780
0780
0000
0F00
0F00
0F00
0F00
0700
0700
0F00
0E00
ENDCHAR
STARTCHAR Lcaron
ENCODING 317
SWIDTH 602 0
DWIDTH 15 0
BBX 13 23 2 0
BITMAP
E700
7E00
7E00
3C00
0000
7800
7800
7800
7800
7800
7800
7800
7800
7800
7800
7800
7800
7800
7800
7800
7FF8
7FF8
7FF8
ENDCHAR
STARTCHAR lcaron
ENCODING 318
SWIDTH 602 0
DWIDTH 15 0
BBX 9 24 1 0
BITMAP
7380
3F00
3F00
1E00
0000
FF80
FF80
FF80
0780
0780
0780
0780
0780
0780
0780
0780
0780
0780
0780
0780
0780
0780
0780
0780
ENDCHAR
STARTCHAR Ldot
ENCODING 319
SWIDTH 602 0
DWIDTH 15 0
BBX 12 18 3 0
BITMAP
F000
F000
F000
F000
F000
F000
F000
F000
F000
F000
F380
F380
F380
F380
F000
FFF0
FFF0
FFF0
ENDCHAR
STARTCHAR ldot
ENCODING 320
SWIDTH 602 0
DWIDTH 15 0
BBX 11 19 1 0
BITMAP
FF80
FF80
FF80
0780
0780
0780
0780
0780
0780
0780
0780
07E0
07E0
07E0
07E0
0780
0780
0780
0780
ENDCHAR
STARTCHAR Lslash
ENCODING 321
SWIDTH 602 0
DWIDTH 15 0
BBX 15 18 0 0
BITMAP
1E00
1E00
1E00
1E00
1E00
1E40
1FC0
1FC0
3F00
FE00
FE00
9E00
1E00
1E00
1E00
1FFE
1FFE
1FFE
ENDCHAR
STARTCHAR lslash
ENCODING 322
SWIDTH 602 0
DWIDTH 15 0
BBX 12 19 1 0
BITMAP
FF80
FF80
FF80
0780
0780
0780
0790
07F0
07F0
0FC0
3F80
3F80
2780
0780
0780
0780
0780
0780
0780
ENDCHAR
STARTCHAR Nacute
ENCODING 323
SWIDTH 602 0
DWIDTH 15 0
BBX 12 23 1 0
BITMAP
0780
0F00
0E00
1C00
0000
F070
F870
F870
FC70
FC70
FE70
FE70
FF70
EF70
EFF0
E7F0
E7F0
E3F0
E3F0
E1F0
E1F0
E1F0
E0F0
ENDCHAR
STARTCHAR nacute
ENCODING 324
SWIDTH 602 0
DWIDTH 15 0
BBX 12 18 2 0
BITMAP
0780
0F00
0E00
1C00
0000
F3C0
F7E0
FFF0
FFF0
F8F0
F0F0
F0F0
F0F0
F0F0
F0F0
F0F0
F0F0
F0F0
ENDCHAR
STARTCHAR Ncommaaccent
ENCODING 325
SWIDTH 602 0
DWIDTH 15 0
BBX 12 27 1 -9
BITMAP
F070
F870
F870
FC70
FC70
FE70
FE70
FF70
EF70
EFF0
E7F0
E7F0
E3F0
E3F0
E1F0
E1F0
E1F0
E0F0
0000
0F00
0F00
0F00
0F00
0700
0700
0F00
0E00
ENDCHAR
STARTCHAR ncommaaccent
ENCODING 326
SWIDTH 602 0
DWIDTH 15 0
BBX 12 22 2 -9
BITMAP
F3C0
F7E0
FFF0
FFF0
F8F0
F0F0
F0F0
F0F0
F0F0
F0F0
F0F0
F0F0
F0F0
0000
0F00
0F00
0F00
0F00
0700
0700
0F00
0E00
ENDCHAR
STARTCHAR Ncaron
ENCODING 327
SWIDTH 602 0
DWIDTH 15 0
BBX 12 23 1 0
BITMAP
39C0
1F80
1F80
0F00
0000
F070
F870
F870
FC70
FC70
FE70
FE70
FF70
EF70
EFF0
E7F0
E7F0
E3F0
E3F0
E1F0
E1F0
E1F0
E0F0
ENDCHAR
STARTCHAR ncaron
ENCODING 328
SWIDTH 602 0
DWIDTH 15 0
BBX 12 18 2 0
BITMAP
39C0
1F80
1F80
0F00
0000
F3C0
F7E0
FFF0
FFF0
F8F0
F0F0
F0F0
F0F0
F0F0
F0F0
F0F0
F0F0
F0F0
ENDCHAR
STARTCHAR napostrophe
ENCODING 329
SWIDTH 602 0
DWIDTH 15 0
BBX 15 19 -1 0
BITMAP
F000
F000
F000
F000
7000
7000
FE78
FEFC
1FFE
1FFE
1F1E
1E1E
1E1E
1E1E
1E1E
1E1E
1E1E
1E1E
1E1E
ENDCHAR
STARTCHAR Eng
ENCODING 330
SWIDTH 602 0
DWIDTH 15 0
BBX 12 23 1 -5
BITMAP
F070
F870
F870
FC70
FC70
FE70
FE70
FF70
EF70
EFF0
E7F0
E7F0
E3F0
E3F0
E1F0
E1F0
E1F0
E0F0
00F0
21F0
3FE0
3FE0
1FC0
ENDCHAR
STARTCHAR eng
ENCODING 331
SWIDTH 602 0
DWIDTH 15 0
BBX 12 18 2 -5
BITMAP
F3C0
F7E0
FFF0
FFF0
F8F0
F0F0
F0F0
F0F0
F0F0
F0F0
F0F0
F0F0
F0F0
00F0
21F0
3FE0
3FE0
1FC0
ENDCHAR
STARTCHAR Omacron
ENCODING 332
SWIDTH 602 0
DWIDTH 15 0
BBX 14 22 1 0
BITMAP
0FE0
0FE0
0FE0
0000
0FC0
1FE0
3FF0
7878
7878
F03C
F03C
F03C
F03C
F03C
F03C
F03C
F03C
7878
7878
3FF0
1FE0
0FC0
ENDCHAR
STARTCHAR omacron
ENCODING 333
SWIDTH 602 0
DWIDTH 15 0
BBX 14 17 0 0
BITMAP
0FE0
0FE0
0FE0
0000
0FC0
3FF0
7FF8
7878
F03C
F03C
F03C
F03C
F03C
7878
7FF8
3FF0
0FC0
ENDCHAR
STARTCHAR Obreve
ENCODING 334
SWIDTH 602 0
DWIDTH 15 0
BBX 14 23 1 0
BITMAP
1860
1FE0
0FC0
0780
0000
0FC0
1FE0
3FF0
7878
7878
F03C
F03C
F03C
F03C
F03C
F03C
F03C
F03C
7878
7878
3FF0
1FE0
0FC0
ENDCHAR
STARTCHAR obreve
ENCODING 335
SWIDTH 602 0
DWIDTH 15 0
BBX 14 18 0 0
BITMAP
1860
1FE0
0FC0
0780
0000
0FC0
3FF0
7FF8
7878
F03C
F03C
F03C
F03C
F03C
7878
7FF8
3FF0
0FC0
ENDCHAR
STARTCHAR Ohungarumlaut
ENCODING 336
SWIDTH 602 0
DWIDTH 15 0
BBX 14 23 1 0
BITMAP
0370
0660
06C0
0C80
0000
0FC0
1FE0
3FF0
7878
7878
F03C
F03C
F03C
F03C
F03C
F03C
F03C
F03C
7878
7878
3FF0
1FE0
0FC0
ENDCHAR
STARTCHAR ohungarumlaut
ENCODING 337
SWIDTH 602 0
DWIDTH 15 0
BBX 14 18 0 0
BITMAP
0370
0660
06C0
0C80
0000
0FC0
3FF0
7FF8
7878
F03C
F03C
F03C
F03C
F03C
7878
7FF8
3FF0
0FC0
ENDCHAR
STARTCHAR OE
ENCODING 338
SWIDTH 602 0
DWIDTH 15 0
BBX 14 18 1 0
BITMAP
1FFC
3FFC
7FFC
79C0
71C0
F1C0
F1C0
F1FC
F1FC
F1FC
F1C0
F1C0
F1C0
71C0
79C0
7FFC
3FFC
1FFC
ENDCHAR
STARTCHAR oe
ENCODING 339
SWIDTH 602 0
DWIDTH 15 0
BBX 14 13 1 0
BITMAP
1C70
3EF8
7FFC
F79C
F79C
F7FC
F7FC
F7FC
F780
F784
7FFC
7EFC
1E78
ENDCHAR
STARTCHAR Racute
ENCODING 340
SWIDTH 602 0
DWIDTH 15 0
BBX 13 23 2 0
BITMAP
03C0
0780
0700
0E00
0000
FFC0
FFE0
FFF0
F1F0
F0F0
F0F0
F0F0
F1E0
F3C0
FF80
FF80
FFC0
F7C0
F3E0
F1E0
F1F0
F0F0
F078
ENDCHAR
STARTCHAR racute
ENCODING 341
SWIDTH 602 0
DWIDTH 15 0
BBX 11 18 3 0
BITMAP
0780
0F00
0E00
1C00
0000
F3E0
F7E0
FFE0
FFE0
FCE0
F800
F000
F000
F000
F000
F000
F000
F000
ENDCHAR
STARTCHAR Rcommaaccent
ENCODING 342
SWIDTH 602 0
DWIDTH 15 0
BBX 13 27 2 -9
BITMAP
FFC0
FFE0
FFF0
F1F0
F0F0
F0F0
F0F0
F1E0
F3C0
FF80
FF80
FFC0
F7C0
F3E0
F1E0
F1F0
F0F0
F078
0000
0F00
0F00
0F00
0F00
0700
0700
0F00
0E00
ENDCHAR
STARTCHAR rcommaaccent
ENCODING 343
SWIDTH 602 0
DWIDTH 15 0
BBX 11 22 3 -9
BITMAP
F3E0
F7E0
FFE0
FFE0
FCE0
F800
F000
F000
F000
F000
F000
F000
F000
0000
7800
7800
7800
7800
3800
3800
7800
7000
ENDCHAR
STARTCHAR Rcaron
ENCODING 344
SWIDTH 602 0
DWIDTH 15 0
BBX 13 23 2 0
BITMAP
39C0
1F80
1F80
0F00
0000
FFC0
FFE0
FFF0
F1F0
F0F0
F0F0
F0F0
F1E0
F3C0
FF80
FF80
FFC0
F7C0
F3E0
F1E0
F1F0
F0F0
F078
ENDCHAR
STARTCHAR rcaron
ENCODING 345
SWIDTH 602 0
DWIDTH 15 0
BBX 11 18 3 0
BITMAP
39C0
1F80
1F80
0F00
0000
F3E0
F7E0
FFE0
FFE0
FCE0
F800
F000
F000
F000
F000
F000
F000
F000
ENDCHAR
STARTCHAR Sacute
ENCODING 346
SWIDTH 602 0
DWIDTH 15 0
BBX 13 23 1 0
BITMAP
03C0
0780
0700
0E00
0000
1FE0
7FF0
7FF0
F830
F000
F800
FE00
7F80
3FC0
0FF0
03F0
00F8
0078
0078
C0F8
FFF0
FFE0
7F80
ENDCHAR
STARTCHAR sacute
ENCODING 347
SWIDTH 602 0
DWIDTH 15 0
BBX 12 18 2 0
BITMAP
0780
0F00
0E00
1C00
0000
1FC0
7FE0
FFE0
F020
FE00
FFC0
7FE0
1FF0
03F0
C1F0
FFF0
FFE0
7F80
ENDCHAR
STARTCHAR Scircumflex
ENCODING 348
SWIDTH 602 0
DWIDTH 15 0
BBX 13 23 1 0
BITMAP
0F00
1F80
1F80
39C0
0000
1FE0
7FF0
7FF0
F830
F000
F800
FE00
7F80
3FC0
0FF0
03F0
00F8
0078
0078
C0F8
FFF0
FFE0
7F80
ENDCHAR
STARTCHAR scircumflex
ENCODING 349
SWIDTH 602 0
DWIDTH 15 0
BBX 12 18 2 0
BITMAP
0F00
1F80
1F80
39C0
0000
1FC0
7FE0
FFE0
F020
FE00
FFC0
7FE0
1FF0
03F0
C1F0
FFF0
FFE0
7F80
ENDCHAR
STARTCHAR Scedilla
ENCODING 350
SWIDTH 602 0
DWIDTH 15 0
BBX 13 23 1 -5
BITMAP
1FE0
7FF0
7FF0
F830
F000
F800
FE00
7F80
3FC0
0FF0
03F0
00F8
0078
0078
C0F8
FFF0
FFE0
7F80
0600
0F80
0180
0F80
0F00
ENDCHAR
STARTCHAR scedilla
ENCODING 351
SWIDTH 602 0
DWIDTH 15 0
BBX 12 18 2 -5
BITMAP
1FC0
7FE0
FFE0
F020
FE00
FFC0
7FE0
1FF0
03F0
C1F0
FFF0
FFE0
7F80
0C00
1F00
0300
1F00
1E00
ENDCHAR
STARTCHAR Scaron
ENCODING 352
SWIDTH 602 0
DWIDTH 15 0
BBX 13 23 1 0
BITMAP
39C0
1F80
1F80
0F00
0000
1FE0
7FF0
7FF0
F830
F000
F800
FE00
7F80
3FC0
0FF0
03F0
00F8
0078
0078
C0F8
FFF0
FFE0
7F80
ENDCHAR
STARTCHAR scaron
ENCODING 353
SWIDTH 602 0
DWIDTH 15 0
BBX 12 18 2 0
BITMAP
39C0
1F80
1F80
0F00
0000
1FC0
7FE0
FFE0
F020
FE00
FFC0
7FE0
1FF0
03F0
C1F0
FFF0
FFE0
7F80
ENDCHAR
STARTCHAR Tcommaaccent
ENCODING 354
SWIDTH 602 0
DWIDTH 15 0
BBX 14 23 1 -5
BITMAP
FFFC
FFFC
FFFC
0780
0780
0780
0780
0780
0780
0780
0780
0780
0780
0780
0780
0780
0780
0780
0300
07C0
00C0
07C0
0780
ENDCHAR
STARTCHAR tcommaaccent
ENCODING 355
SWIDTH 602 0
DWIDTH 15 0
BBX 12 22 2 -5
BITMAP
0E00
1E00
1E00
1E00
FFF0
FFF0
FFF0
1E00
1E00
1E00
1E00
1E00
1E00
1E10
1FF0
0FF0
07E0
0600
0F80
0180
0F80
0F00
ENDCHAR
STARTCHAR Tcaron
ENCODING 356
SWIDTH 602 0
DWIDTH 15 0
BBX 14 23 1 0
BITMAP
1CE0
0FC0
0FC0
0780
0000
FFFC
FFFC
FFFC
0780
0780
0780
0780
0780
0780
0780
0780
0780
0780
0780
0780
0780
0780
0780
ENDCHAR
STARTCHAR tcaron
ENCODING 357
SWIDTH 602 0
DWIDTH 15 0
BBX 12 22 2 0
BITMAP
39C0
1F80
1F80
0F00
0000
0E00
1E00
1E00
1E00
FFF0
FFF0
FFF0
1E00
1E00
1E00
1E00
1E00
1E00
1E10
1FF0
0FF0
07E0
ENDCHAR
STARTCHAR Tbar
ENCODING 358
SWIDTH 602 0
DWIDTH 15 0
BBX 14 18 1 0
BITMAP
FFFC
FFFC
FFFC
0780
0780
0780
0780
7FF8
7FF8
7FF8
0780
0780
0780
0780
0780
0780
0780
0780
ENDCHAR
STARTCHAR tbar
ENCODING 359
SWIDTH 602 0
DWIDTH 15 0
BBX 12 17 2 0
BITMAP
0E00
1E00
1E00
1E00
FFF0
FFF0
FFF0
1E00
1E00
FFF0
FFF0
FFF0
1E00
1E10
1FF0
0FF0
07E0
ENDCHAR
STARTCHAR Utilde
ENCODING 360
SWIDTH 602 0
DWIDTH 15 0
BBX 12 23 1 0
BITMAP
1CC0
3FC0
3FC0
3380
0000
F0F0
F0F0
F0F0
F0F0
F0F0
F0F0
F0F0
F0F0
F0F0
F0F0
F0F0
F0F0
F0F0
F0F0
F9F0
7FE0
7FE0
1F80
ENDCHAR
STARTCHAR utilde
ENCODING 361
SWIDTH 602 0
DWIDTH 15 0
BBX 12 18 1 0
BITMAP
1CC0
3FC0
3FC0
3380
0000
F0F0
F0F0
F0F0
F0F0
F0F0
F0F0
F0F0
F0F0
F1F0
FFF0
FFF0
7EF0
3CF0
ENDCHAR
STARTCHAR Umacron
ENCODING 362
SWIDTH 602 0
DWIDTH 15 0
BBX 12 22 1 0
BITMAP
1FC0
1FC0
1FC0
0000
F0F0
F0F0
F0F0
F0F0
F0F0
F0F0
F0F0
F0F0
F0F0
F0F0
F0F0
F0F0
F0F0
F0F0
F9F0
7FE0
7FE0
1F80
ENDCHAR
STARTCHAR umacron
ENCODING 363
SWIDTH 602 0
DWIDTH 15 0
BBX 12 17 1 0
BITMAP
1FC0
1FC0
1FC0
0000
F0F0
F0F0
F0F0
F0F0
F0F0
F0F0
F0F0
F0F0
F1F0
FFF0
FFF0
7EF0
3CF0
ENDCHAR
STARTCHAR Ubreve
ENCODING 364
SWIDTH 602 0
DWIDTH 15 0
BBX 12 23 1 0
BITMAP
30C0
3FC0
1F80
0F00
0000
F0F0
F0F0
F0F0
F0F0
F0F0
F0F0
F0F0
F0F0
F0F0
F0F0
F0F0
F0F0
F0F0
F0F0
F9F0
7FE0
7FE0
1F80
ENDCHAR
STARTCHAR ubreve
ENCODING 365
SWIDTH 602 0
DWIDTH 15 0
BBX 12 18 1 0
BITMAP
30C0
3FC0
1F80
0F00
0000
F0F0
F0F0
F0F0
F0F0
F0F0
F0F0
F0F0
F0F0
F1F0
FFF0
FFF0
7EF0
3CF0
ENDCHAR
STARTCHAR Uring
ENCODING 366
SWIDTH 602 0
DWIDTH 15 0
BBX 12 23 1 0
BITMAP
0600
0900
0900
0600
0000
F0F0
F0F0
F0F0
F0F0
F0F0
F0F0
F0F0
F0F0
F0F0
F0F0
F0F0
F0F0
F0F0
F0F0
F9F0
7FE0
7FE0
1F80
ENDCHAR
STARTCHAR uring
ENCODING 367
SWIDTH 602 0
DWIDTH 15 0
BBX 12 18 1 0
BITMAP
0600
0900
0900
0600
0000
F0F0
F0F0
F0F0
F0F0
F0F0
F0F0
F0F0
F0F0
F1F0
FFF0
FFF0
7EF0
3CF0
ENDCHAR
STARTCHAR Uhungarumlaut
ENCODING 368
SWIDTH 602 0
DWIDTH 15 0
BBX 12 23 1 0
BITMAP
06E0
0CC0
0D80
1900
0000
F0F0
F0F0
F0F0
F0F0
F0F0
F0F0
F0F0
F0F0
F0F0
F0F0
F0F0
F0F0
F0F0
F0F0
F9F0
7FE0
7FE0
1F80
ENDCHAR
STARTCHAR uhungarumlaut
ENCODING 369
SWIDTH 602 0
DWIDTH 15 0
BBX 12 18 1 0
BITMAP
06E0
0CC0
0D80
1900
0000
F0F0
F0F0
F0F0
F0F0
F0F0
F0F0
F0F0
F0F0
F1F0
FFF0
FFF0
7EF0
3CF0
ENDCHAR
STARTCHAR Uogonek
ENCODING 370
SWIDTH 602 0
DWIDTH 15 0
BBX 12 23 1 -5
BITMAP
F0F0
F0F0
F0F0
F0F0
F0F0
F0F0
F0F0
F0F0
F0F0
F0F0
F0F0
F0F0
F0F0
F0F0
F9F0
7FE0
7FE0
1F80
0700
0400
0C00
0F00
0F00
ENDCHAR
STARTCHAR uogonek
ENCODING 371
SWIDTH 602 0
DWIDTH 15 0
BBX 12 18 1 -5
BITMAP
F0F0
F0F0
F0F0
F0F0
F0F0
F0F0
F0F0
F0F0
F1F0
FFF0
FFF0
7EF0
3CF0
0700
0400
0C00
0F00
0F00
ENDCHAR
STARTCHAR Wcircumflex
ENCODING 372
SWIDTH 602 0
DWIDTH 15 0
BBX 15 23 0 0
BITMAP
0780
0FC0
0FC0
1CE0
0000
F006
F3C6
F3C6
F3CE
73CE
7FCC
7FEC
7FEC
7FEC
7FEC
7EFC
3EFC
3EFC
3EFC
3EF8
3C78
3C78
3C78
ENDCHAR
STARTCHAR wcircumflex
ENCODING 373
SWIDTH 602 0
DWIDTH 15 0
BBX 15 18 0 0
BITMAP
0780
0FC0
0FC0
1CE0
0000
F00E
F3CE
F3CE
7BCC
7FCC
7FEC
7FFC
7FFC
7EFC
3E78
3E78
3C78
3C38
ENDCHAR
STARTCHAR Ycircumflex
ENCODING 374
SWIDTH 602 0
DWIDTH 15 0
BBX 16 23 0 0
BITMAP
03C0
07E0
07E0
0E70
0000
F80F
780E
7C1E
3C1C
3E3C
1F38
0F70
0FF0
07E0
07E0
03C0
03C0
03C0
03C0
03C0
03C0
03C0
03C0
ENDCHAR
STARTCHAR ycircumflex
ENCODING 375
SWIDTH 602 0
DWIDTH 15 0
BBX 14 23 1 -5
BITMAP
0780
0FC0
0FC0
1CE0
0000
F01C
F83C
7838
7C78
3C70
3E70
1EE0
1FE0
0FC0
0FC0
07C0
0780
0780
0700
0F00
7E00
7E00
7800
ENDCHAR
STARTCHAR Ydieresis
ENCODING 376
SWIDTH 602 0
DWIDTH 15 0
BBX 16 22 0 0
BITMAP
0EE0
0EE0
0EE0
0000
F80F
780E
7C1E
3C1C
3E3C
1F38
0F70
0FF0
07E0
07E0
03C0
03C0
03C0
03C0
03C0
03C0
03C0
03C0
ENDCHAR
STARTCHAR Zacute
ENCODING 377
SWIDTH 602 0
DWIDTH 15 0
BBX 13 23 1 0
BITMAP
01E0
03C0
0380
0700
0000
7FF8
7FF8
7FF8
00F8
01F0
03E0
03E0
07C0
0F80
0F80
1F00
3E00
3E00
7C00
F800
FFF8
FFF8
FFF8
ENDCHAR
STARTCHAR zacute
ENCODING 378
SWIDTH 602 0
DWIDTH 15 0
BBX 12 18 2 0
BITMAP
03C0
0780
0700
0E00
0000
FFF0
FFF0
FFF0
03F0
07E0
0FC0
1F80
3F00
7E00
FC00
FFF0
FFF0
FFF0
ENDCHAR
STARTCHAR Zdotaccent
ENCODING 379
SWIDTH 602 0
DWIDTH 15 0
BBX 13 22 1 0
BITMAP
0380
0380
0380
0000
7FF8
7FF8
7FF8
00F8
01F0
03E0
03E0
07C0
0F80
0F80
1F00
3E00
3E00
7C00
F800
FFF8
FFF8
FFF8
ENDCHAR
STARTCHAR zdotaccent
ENCODING 380
SWIDTH 602 0
DWIDTH 15 0
BBX 12 17 2 0
BITMAP
0700
0700
0700
0000
FFF0
FFF0
FFF0
03F0
07E0
0FC0
1F80
3F00
7E00
FC00
FFF0
FFF0
FFF0
ENDCHAR
STARTCHAR Zcaron
ENCODING 381
SWIDTH 602 0
DWIDTH 15 0
BBX 13 23 1 0
BITMAP
1CE0
0FC0
0FC0
0780
0000
7FF8
7FF8
7FF8
00F8
01F0
03E0
03E0
07C0
0F80
0F80
1F00
3E00
3E00
7C00
F800
FFF8
FFF8
FFF8
ENDCHAR
STARTCHAR zcaron
ENCODING 382
SWIDTH 602 0
DWIDTH 15 0
BBX 12 18 2 0
BITMAP
39C0
1F80
1F80
0F00
0000
FFF0
FFF0
FFF0
03F0
07E0
0FC0
1F80
3F00
7E00
FC00
FFF0
FFF0
FFF0
ENDCHAR
STARTCHAR uni0186
ENCODING 390
SWIDTH 602 0
DWIDTH 15 0
BBX 14 18 0 0
BITMAP
3F00
FFE0
FFF0
81F8
00F8
0078
003C
003C
003C
003C
003C
003C
0078
00F8
C1F8
FFF0
FFE0
FF00
ENDCHAR
STARTCHAR uni0189
ENCODING 393
SWIDTH 602 0
DWIDTH 15 0
BBX 14 18 0 0
BITMAP
7FC0
7FF0
7FF8
78F8
787C
783C
783C
FE3C
FE3C
FE3C
783C
783C
783C
7878
78F8
7FF0
7FE0
7F80
ENDCHAR
STARTCHAR uni018E
ENCODING 398
SWIDTH 602 0
DWIDTH 15 0
BBX 12 18 2 0
BITMAP
FFF0
FFF0
FFF0
00F0
00F0
00F0
00F0
00F0
3FF0
3FF0
3FF0
00F0
00F0
00F0
00F0
7FF0
7FF0
7FF0
ENDCHAR
STARTCHAR florin
ENCODING 402
SWIDTH 602 0
DWIDTH 15 0
BBX 11 22 2 -4
BITMAP
01E0
07E0
07E0
0F00
0E00
1E00
1E00
1E00
7F80
7F80
7F80
3C00
3C00
3C00
7C00
7800
7800
7800
7800
F000
F000
F000
ENDCHAR
STARTCHAR uni0197
ENCODING 407
SWIDTH 602 0
DWIDTH 15 0
BBX 12 18 1 0
BITMAP
FFF0
FFF0
FFF0
0F00
0F00
0F00
0F00
FFF0
FFF0
FFF0
0F00
0F00
0F00
0F00
0F00
FFF0
FFF0
FFF0
ENDCHAR
STARTCHAR uni019A
ENCODING 410
SWIDTH 602 0
DWIDTH 15 0
BBX 12 19 0 0
BITMAP
7FC0
7FC0
7FC0
03C0
03C0
03C0
03C0
03C0
FFF0
FFF0
FFF0
03C0
03C0
03C0
03C0
03C0
03C0
03C0
03C0
ENDCHAR
STARTCHAR uni019D
ENCODING 413
SWIDTH 602 0
DWIDTH 15 0
BBX 18 23 -5 -5
BITMAP
03C1C0
03E1C0
03E1C0
03F1C0
03F1C0
03F9C0
03F9C0
03FDC0
03BDC0
03BFC0
039FC0
039FC0
03CFC0
03C7C0
03C7C0
03C7C0
03C7C0
03C3C0
03C000
87C000
FF8000
FF8000
7F0000
ENDCHAR
STARTCHAR uni019F
ENCODING 415
SWIDTH 602 0
DWIDTH 15 0
BBX 14 18 1 0
BITMAP
0FC0
1FE0
3FF0
7878
7878
F03C
F03C
FFFC
FFFC
FFFC
F03C
F03C
F03C
7878
7878
3FF0
1FE0
0FC0
ENDCHAR
STARTCHAR Ohorn
ENCODING 416
SWIDTH 602 0
DWIDTH 15 0
BBX 17 18 1 0
BITMAP
0FC780
1FE780
3FF780
787F80
787B80
F03F80
F03F80
F03F00
F03C00
F03C00
F03C00
F03C00
F03C00
787800
787800
3FF000
1FE000
0FC000
ENDCHAR
STARTCHAR ohorn
ENCODING 417
SWIDTH 602 0
DWIDTH 15 0
BBX 17 13 0 0
BITMAP
0FC780
3FF780
7FFF80
787F80
F03F80
F03F80
F03F80
F03F00
F03C00
787800
7FF800
3FF000
0FC000
ENDCHAR
STARTCHAR uni01A7
ENCODING 423
SWIDTH 602 0
DWIDTH 15 0
BBX 13 18 1 0
BITMAP
3FC0
7FF0
7FF0
60F8
0078
00F8
03F8
0FF0
1FE0
7F80
7E00
F800
F000
F000
F818
7FF8
3FF8
0FF0
ENDCHAR
STARTCHAR uni01A8
ENCODING 424
SWIDTH 602 0
DWIDTH 15 0
BBX 12 13 2 0
BITMAP
3F80
7FE0
7FF0
40F0
07F0
3FF0
7FE0
FF80
FC00
F830
FFF0
7FF0
1FE0
ENDCHAR
STARTCHAR uni01AE
ENCODING 430
SWIDTH 602 0
DWIDTH 15 0
BBX 15 23 1 -5
BITMAP
FFFC
FFFC
FFFC
0780
0780
0780
0780
0780
0780
0780
0780
0780
0780
0780
0780
0780
0780
0780
0780
07C2
03FE
03FE
01FC
ENDCHAR
STARTCHAR Uhorn
ENCODING 431
SWIDTH 602 0
DWIDTH 15 0
BBX 15 18 1 0
BITMAP
F0FE
F0FE
F0FE
F0FE
F0FE
F0FE
F0FE
F0FC
F0F0
F0F0
F0F0
F0F0
F0F0
F0F0
F9F0
7FE0
7FE0
1F80
ENDCHAR
STARTCHAR uhorn
ENCODING 432
SWIDTH 602 0
DWIDTH 15 0
BBX 15 13 1 0
BITMAP
F0FE
F0FE
F0FE
F0FE
F0FE
F0FE
F0FE
F0FC
F1F0
FFF0
FFF0
7EF0
3CF0
ENDCHAR
STARTCHAR uni01B5
ENCODING 437
SWIDTH 602 0
DWIDTH 15 0
BBX 13 18 1 0
BITMAP
7FF8
7FF8
7FF8
00F8
01F0
03E0
03E0
7FF8
7FF8
7FF8
1F00
3E00
3E00
7C00
F800
FFF8
FFF8
FFF8
ENDCHAR
STARTCHAR uni01B6
ENCODING 438
SWIDTH 602 0
DWIDTH 15 0
BBX 12 13 2 0
BITMAP
FFF0
FFF0
FFF0
03F0
07E0
FFF0
FFF0
FFF0
7E00
FC00
FFF0
FFF0
FFF0
ENDCHAR
STARTCHAR uni01BB
ENCODING 443
SWIDTH 602 0
DWIDTH 15 0
BBX 11 18 2 0
BITMAP
3F00
7FC0
7FC0
43E0
01E0
01E0
01E0
FFE0
FFE0
FFE0
0F00
1E00
3C00
7800
F000
FFE0
FFE0
FFE0
ENDCHAR
STARTCHAR uni01BC
ENCODING 444
SWIDTH 602 0
DWIDTH 15 0
BBX 10 18 3 0
BITMAP
FFC0
FFC0
FFC0
E000
E000
E000
F800
FF00
FF80
0F80
07C0
03C0
03C0
03C0
8780
FF80
FF00
7C00
ENDCHAR
STARTCHAR uni01C0
ENCODING 448
SWIDTH 602 0
DWIDTH 15 0
BBX 3 23 6 -4
BITMAP
E0
E0
E0
E0
E0
E0
E0
E0
E0
E0
E0
E0
E0
E0
E0
E0
E0
E0
E0
E0
E0
E0
E0
ENDCHAR
STARTCHAR uni01C2
ENCODING 450
SWIDTH 602 0
DWIDTH 15 0
BBX 13 23 1 -5
BITMAP
0700
0700
0700
0700
0700
0700
0700
FFF8
FFF8
FFF8
0700
0700
0700
FFF8
FFF8
FFF8
0700
0700
0700
0700
0700
0700
0700
ENDCHAR
STARTCHAR uni01C3
ENCODING 451
SWIDTH 602 0
DWIDTH 15 0
BBX 4 18 5 0
BITMAP
F0
F0
F0
F0
F0
F0
F0
F0
70
70
70
70
70
00
00
F0
F0
F0
ENDCHAR
STARTCHAR uni01CD
ENCODING 461
SWIDTH 602 0
DWIDTH 15 0
BBX 15 23 0 0
BITMAP
0E70
07E0
07E0
03C0
0000
03C0
07C0
07E0
07E0
0FE0
0FF0
0EF0
1CF0
1CF0
1C78
3878
3FF8
3FFC
7FFC
703C
703C
E01E
E01E
ENDCHAR
STARTCHAR uni01CE
ENCODING 462
SWIDTH 602 0
DWIDTH 15 0
BBX 13 18 1 0
BITMAP
1CE0
0FC0
0FC0
0780
0000
1FC0
7FE0
7FF0
41F0
00F0
1FF0
7FF0
FFF0
F0F0
F1F0
FFF0
7FF8
3E78
ENDCHAR
STARTCHAR uni01CF
ENCODING 463
SWIDTH 602 0
DWIDTH 15 0
BBX 12 23 1 0
BITMAP
39C0
1F80
1F80
0F00
0000
FFF0
FFF0
FFF0
0F00
0F00
0F00
0F00
0F00
0F00
0F00
0F00
0F00
0F00
0F00
0F00
FFF0
FFF0
FFF0
ENDCHAR
STARTCHAR uni01D0
ENCODING 464
SWIDTH 602 0
DWIDTH 15 0
BBX 9 18 2 0
BITMAP
7380
3F00
3F00
1E00
0000
FF80
FF80
FF80
0780
0780
0780
0780
0780
0780
0780
0780
0780
0780
ENDCHAR
STARTCHAR uni01D1
ENCODING 465
SWIDTH 602 0
DWIDTH 15 0
BBX 14 23 1 0
BITMAP
1CE0
0FC0
0FC0
0780
0000
0FC0
1FE0
3FF0
7878
7878
F03C
F03C
F03C
F03C
F03C
F03C
F03C
F03C
7878
7878
3FF0
1FE0
0FC0
ENDCHAR
STARTCHAR uni01D2
ENCODING 466
SWIDTH 602 0
DWIDTH 15 0
BBX 14 18 0 0
BITMAP
1CE0
0FC0
0FC0
0780
0000
0FC0
3FF0
7FF8
7878
F03C
F03C
F03C
F03C
F03C
7878
7FF8
3FF0
0FC0
ENDCHAR
STARTCHAR uni01D3
ENCODING 467
SWIDTH 602 0
DWIDTH 15 0
BBX 12 23 1 0
BITMAP
39C0
1F80
1F80
0F00
0000
F0F0
F0F0
F0F0
F0F0
F0F0
F0F0
F0F0
F0F0
F0F0
F0F0
F0F0
F0F0
F0F0
F0F0
F9F0
7FE0
7FE0
1F80
ENDCHAR
STARTCHAR uni01D4
ENCODING 468
SWIDTH 602 0
DWIDTH 15 0
BBX 12 18 1 0
BITMAP
39C0
1F80
1F80
0F00
0000
F0F0
F0F0
F0F0
F0F0
F0F0
F0F0
F0F0
F0F0
F1F0
FFF0
FFF0
7EF0
3CF0
ENDCHAR
STARTCHAR uni01D5
ENCODING 469
SWIDTH 602 0
DWIDTH 15 0
BBX 12 26 1 0
BITMAP
3F80
3F80
3F80
0000
3B80
3B80
3B80
0000
F0F0
F0F0
F0F0
F0F0
F0F0
F0F0
F0F0
F0F0
F0F0
F0F0
F0F0
F0F0
F0F0
F0F0
F9F0
7FE0
7FE0
1F80
ENDCHAR
STARTCHAR uni01D6
ENCODING 470
SWIDTH 602 0
DWIDTH 15 0
BBX 12 21 1 0
BITMAP
1FC0
1FC0
1FC0
0000
1DC0
1DC0
1DC0
0000
F0F0
F0F0
F0F0
F0F0
F0F0
F0F0
F0F0
F0F0
F1F0
FFF0
FFF0
7EF0
3CF0
ENDCHAR
STARTCHAR uni01D7
ENCODING 471
SWIDTH 602 0
DWIDTH 15 0
BBX 12 27 1 0
BITMAP
0780
0F00
0E00
1C00
0000
3B80
3B80
3B80
0000
F0F0
F0F0
F0F0
F0F0
F0F0
F0F0
F0F0
F0F0
F0F0
F0F0
F0F0
F0F0
F0F0
F0F0
F9F0
7FE0
7FE0
1F80
ENDCHAR
STARTCHAR uni01D8
ENCODING 472
SWIDTH 602 0
DWIDTH 15 0
BBX 12 22 1 0
BITMAP
03C0
0780
0700
0E00
0000
1DC0
1DC0
1DC0
0000
F0F0
F0F0
F0F0
F0F0
F0F0
F0F0
F0F0
F0F0
F1F0
FFF0
FFF0
7EF0
3CF0
ENDCHAR
STARTCHAR uni01D9
ENCODING 473
SWIDTH 602 0
DWIDTH 15 0
BBX 12 27 1 0
BITMAP
39C0
1F80
1F80
0F00
0000
3B80
3B80
3B80
0000
F0F0
F0F0
F0F0
F0F0
F0F0
F0F0
F0F0
F0F0
F0F0
F0F0
F0F0
F0F0
F0F0
F0F0
F9F0
7FE0
7FE0
1F80
ENDCHAR
STARTCHAR uni01DA
ENCODING 474
SWIDTH 602 0
DWIDTH 15 0
BBX 12 22 1 0
BITMAP
39C0
1F80
1F80
0F00
0000
1DC0
1DC0
1DC0
0000
F0F0
F0F0
F0F0
F0F0
F0F0
F0F0
F0F0
F0F0
F1F0
FFF0
FFF0
7EF0
3CF0
ENDCHAR
STARTCHAR uni01DB
ENCODING 475
SWIDTH 602 0
DWIDTH 15 0
BBX 12 27 1 0
BITMAP
3C00
1E00
0E00
0700
0000
3B80
3B80
3B80
0000
F0F0
F0F0
F0F0
F0F0
F0F0
F0F0
F0F0
F0F0
F0F0
F0F0
F0F0
F0F0
F0F0
F0F0
F9F0
7FE0
7FE0
1F80
ENDCHAR
STARTCHAR uni01DC
ENCODING 476
SWIDTH 602 0
DWIDTH 15 0
BBX 12 22 1 0
BITMAP
1E00
0F00
0700
0380
0000
1DC0
1DC0
1DC0
0000
F0F0
F0F0
F0F0
F0F0
F0F0
F0F0
F0F0
F0F0
F1F0
FFF0
FFF0
7EF0
3CF0
ENDCHAR
STARTCHAR uni01DD
ENCODING 477
SWIDTH 602 0
DWIDTH 15 0
BBX 13 13 1 0
BITMAP
3F80
FFE0
FFF0
80F0
0078
FFF8
FFF8
FFF8
F078
70F0
7FF0
3FE0
1F80
ENDCHAR
STARTCHAR uni01DE
ENCODING 478
SWIDTH 602 0
DWIDTH 15 0
BBX 15 26 0 0
BITMAP
0FE0
0FE0
0FE0
0000
0EE0
0EE0
0EE0
0000
03C0
07C0
07E0
07E0
0FE0
0FF0
0EF0
1CF0
1CF0
1C78
3878
3FF8
3FFC
7FFC
703C
703C
E01E
E01E
ENDCHAR
STARTCHAR uni01DF
ENCODING 479
SWIDTH 602 0
DWIDTH 15 0
BBX 13 21 1 0
BITMAP
1FC0
1FC0
1FC0
0000
1DC0
1DC0
1DC0
0000
1FC0
7FE0
7FF0
41F0
00F0
1FF0
7FF0
FFF0
F0F0
F1F0
FFF0
7FF8
3E78
ENDCHAR
STARTCHAR uni01E0
ENCODING 480
SWIDTH 602 0
DWIDTH 15 0
BBX 15 26 0 0
BITMAP
0FE0
0FE0
0FE0
0000
0380
0380
0380
0000
03C0
07C0
07E0
07E0
0FE0
0FF0
0EF0
1CF0
1CF0
1C78
3878
3FF8
3FFC
7FFC
703C
703C
E01E
E01E
ENDCHAR
STARTCHAR uni01E1
ENCODING 481
SWIDTH 602 0
DWIDTH 15 0
BBX 13 21 1 0
BITMAP
1FC0
1FC0
1FC0
0000
0700
0700
0700
0000
1FC0
7FE0
7FF0
41F0
00F0
1FF0
7FF0
FFF0
F0F0
F1F0
FFF0
7FF8
3E78
ENDCHAR
STARTCHAR uni01E2
ENCODING 482
SWIDTH 602 0
DWIDTH 15 0
BBX 16 22 1 0
BITMAP
03F8
03F8
03F8
0000
01FF
01FF
03FF
03F0
03F0
07F0
07F0
0FFE
0EFE
0EFE
1CF0
1FF0
3FF0
3FF0
38F0
78FF
70FF
F0FF
ENDCHAR
STARTCHAR uni01E3
ENCODING 483
SWIDTH 602 0
DWIDTH 15 0
BBX 14 17 0 0
BITMAP
0FE0
0FE0
0FE0
0000
3E70
7FF8
7FF8
43BC
03BC
1FFC
7FFC
FFFC
F380
F384
FFFC
7DFC
38F8
ENDCHAR
STARTCHAR uni01E4
ENCODING 484
SWIDTH 602 0
DWIDTH 15 0
BBX 18 18 0 0
BITMAP
03F800
1FFC00
3FFC00
7E0400
7C0000
780000
F00000
F00000
F00000
F03C00
F03C00
F03C00
FBFFC0
7BFFC0
7FFFC0
3FFC00
1FFC00
07F000
ENDCHAR
STARTCHAR uni01E5
ENCODING 485
SWIDTH 602 0
DWIDTH 15 0
BBX 13 18 1 -5
BITMAP
1F38
3FB8
7FF8
78F8
F078
F078
F078
F078
F8F8
FFF8
7FF8
FFF8
FFF8
FFF8
20F0
3FF0
7FE0
1FC0
ENDCHAR
STARTCHAR Gcaron
ENCODING 486
SWIDTH 602 0
DWIDTH 15 0
BBX 14 23 0 0
BITMAP
1CE0
0FC0
0FC0
0780
0000
03F8
1FFC
3FFC
7E04
7C00
7800
F000
F000
F000
F03C
F03C
F03C
F83C
783C
7E3C
3FFC
1FFC
07F0
ENDCHAR
STARTCHAR gcaron
ENCODING 487
SWIDTH 602 0
DWIDTH 15 0
BBX 13 23 1 -5
BITMAP
1CE0
0FC0
0FC0
0780
0000
1F38
3FB8
7FF8
78F8
F078
F078
F078
F078
F8F8
FFF8
7FF8
7F78
1E78
0078
20F0
3FF0
7FE0
1FC0
ENDCHAR
STARTCHAR uni01E8
ENCODING 488
SWIDTH 602 0
DWIDTH 15 0
BBX 14 23 1 0
BITMAP
39C0
1F80
1F80
0F00
0000
F03C
F078
F0F0
F0E0
F1E0
F3C0
F780
FF00
FF00
FF80
FF80
F7C0
F3E0
F1E0
F1F0
F0F8
F0F8
F07C
ENDCHAR
STARTCHAR uni01E9
ENCODING 489
SWIDTH 602 0
DWIDTH 15 0
BBX 13 24 2 0
BITMAP
E700
7E00
7E00
3C00
0000
F000
F000
F000
F000
F000
F000
F0F0
F1E0
F1C0
F380
F780
FF00
FF80
F7C0
F7C0
F3E0
F1F0
F1F0
F0F8
ENDCHAR
STARTCHAR uni01EA
ENCODING 490
SWIDTH 602 0
DWIDTH 15 0
BBX 14 23 1 -5
BITMAP
0FC0
1FE0
3FF0
7878
7878
F03C
F03C
F03C
F03C
F03C
F03C
F03C
F03C
7878
7878
3FF0
1FE0
0FC0
0380
0200
0600
0780
0780
ENDCHAR
STARTCHAR uni01EB
ENCODING 491
SWIDTH 602 0
DWIDTH 15 0
BBX 14 18 0 -5
BITMAP
0FC0
3FF0
7FF8
7878
F03C
F03C
F03C
F03C
F03C
7878
7FF8
3FF0
0FC0
0380
0200
0600
0780
0780
ENDCHAR
STARTCHAR uni01EC
ENCODING 492
SWIDTH 602 0
DWIDTH 15 0
BBX 14 27 1 -5
BITMAP
0FE0
0FE0
0FE0
0000
0FC0
1FE0
3FF0
7878
7878
F03C
F03C
F03C
F03C
F03C
F03C
F03C
F03C
7878
7878
3FF0
1FE0
0FC0
0380
0200
0600
0780
0780
ENDCHAR
STARTCHAR uni01ED
ENCODING 493
SWIDTH 602 0
DWIDTH 15 0
BBX 14 22 0 -5
BITMAP
0FE0
0FE0
0FE0
0000
0FC0
3FF0
7FF8
7878
F03C
F03C
F03C
F03C
F03C
7878
7FF8
3FF0
0FC0
0380
0200
0600
0780
0780
ENDCHAR
STARTCHAR uni01F0
ENCODING 496
SWIDTH 602 0
DWIDTH 15 0
BBX 10 23 1 -5
BITMAP
39C0
1F80
1F80
0F00
0000
7FC0
7FC0
7FC0
03C0
03C0
03C0
03C0
03C0
03C0
03C0
03C0
03C0
03C0
03C0
87C0
FF80
FF80
7F00
ENDCHAR
STARTCHAR uni01F4
ENCODING 500
SWIDTH 602 0
DWIDTH 15 0
BBX 14 23 0 0
BITMAP
01E0
03C0
0380
0700
0000
03F8
1FFC
3FFC
7E04
7C00
7800
F000
F000
F000
F03C
F03C
F03C
F83C
783C
7E3C
3FFC
1FFC
07F0
ENDCHAR
STARTCHAR uni01F5
ENCODING 501
SWIDTH 602 0
DWIDTH 15 0
BBX 13 23 1 -5
BITMAP
01E0
03C0
0380
0700
0000
1F38
3FB8
7FF8
78F8
F078
F078
F078
F078
F8F8
FFF8
7FF8
7F78
1E78
0078
20F0
3FF0
7FE0
1FC0
ENDCHAR
STARTCHAR uni01F8
ENCODING 504
SWIDTH 602 0
DWIDTH 15 0
BBX 12 23 1 0
BITMAP
3C00
1E00
0E00
0700
0000
F070
F870
F870
FC70
FC70
FE70
FE70
FF70
EF70
EFF0
E7F0
E7F0
E3F0
E3F0
E1F0
E1F0
E1F0
E0F0
ENDCHAR
STARTCHAR uni01F9
ENCODING 505
SWIDTH 602 0
DWIDTH 15 0
BBX 12 18 2 0
BITMAP
3C00
1E00
0E00
0700
0000
F3C0
F7E0
FFF0
FFF0
F8F0
F0F0
F0F0
F0F0
F0F0
F0F0
F0F0
F0F0
F0F0
ENDCHAR
STARTCHAR Aringacute
ENCODING 506
SWIDTH 602 0
DWIDTH 15 0
BBX 15 28 0 0
BITMAP
00F0
01E0
01C0
0380
0000
0180
0240
0240
0180
0000
03C0
07C0
07E0
07E0
0FE0
0FF0
0EF0
1CF0
1CF0
1C78
3878
3FF8
3FFC
7FFC
703C
703C
E01E
E01E
ENDCHAR
STARTCHAR aringacute
ENCODING 507
SWIDTH 602 0
DWIDTH 15 0
BBX 13 23 1 0
BITMAP
03C0
0780
0700
0E00
0000
0600
0900
0900
0600
0000
1FC0
7FE0
7FF0
41F0
00F0
1FF0
7FF0
FFF0
F0F0
F1F0
FFF0
7FF8
3E78
ENDCHAR
STARTCHAR AEacute
ENCODING 508
SWIDTH 602 0
DWIDTH 15 0
BBX 16 23 1 0
BITMAP
0078
00F0
00E0
01C0
0000
01FF
01FF
03FF
03F0
03F0
07F0
07F0
0FFE
0EFE
0EFE
1CF0
1FF0
3FF0
3FF0
38F0
78FF
70FF
F0FF
ENDCHAR
STARTCHAR aeacute
ENCODING 509
SWIDTH 602 0
DWIDTH 15 0
BBX 14 18 0 0
BITMAP
01E0
03C0
0380
0700
0000
3E70
7FF8
7FF8
43BC
03BC
1FFC
7FFC
FFFC
F380
F384
FFFC
7DFC
38F8
ENDCHAR
STARTCHAR Oslashacute
ENCODING 510
SWIDTH 602 0
DWIDTH 15 0
BBX 14 23 1 0
BITMAP
01E0
03C0
0380
0700
0000
0FDC
1FF8
3FF0
78F8
78F8
F1FC
F1FC
F3FC
F7BC
F73C
FF3C
FE3C
FC3C
7C78
7C78
3FF0
7FE0
EFC0
ENDCHAR
STARTCHAR oslashacute
ENCODING 511
SWIDTH 602 0
DWIDTH 15 0
BBX 14 18 0 0
BITMAP
01E0
03C0
0380
0700
0000
0FFC
3FF8
7FF8
78F8
F1FC
F3FC
F7BC
FF3C
FE3C
7C78
7FF8
7FF0
FFC0
ENDCHAR
STARTCHAR uni0200
ENCODING 512
SWIDTH 602 0
DWIDTH 15 0
BBX 15 23 0 0
BITMAP
1D80
0CC0
06C0
0260
0000
03C0
07C0
07E0
07E0
0FE0
0FF0
0EF0
1CF0
1CF0
1C78
3878
3FF8
3FFC
7FFC
703C
703C
E01E
E01E
ENDCHAR
STARTCHAR uni0201
ENCODING 513
SWIDTH 602 0
DWIDTH 15 0
BBX 13 18 1 0
BITMAP
3B00
1980
0D80
04C0
0000
1FC0
7FE0
7FF0
41F0
00F0
1FF0
7FF0
FFF0
F0F0
F1F0
FFF0
7FF8
3E78
ENDCHAR
STARTCHAR uni0202
ENCODING 514
SWIDTH 602 0
DWIDTH 15 0
BBX 15 23 0 0
BITMAP
03C0
07E0
0FF0
0C30
0000
03C0
07C0
07E0
07E0
0FE0
0FF0
0EF0
1CF0
1CF0
1C78
3878
3FF8
3FFC
7FFC
703C
703C
E01E
E01E
ENDCHAR
STARTCHAR uni0203
ENCODING 515
SWIDTH 602 0
DWIDTH 15 0
BBX 13 18 1 0
BITMAP
0780
0FC0
1FE0
1860
0000
1FC0
7FE0
7FF0
41F0
00F0
1FF0
7FF0
FFF0
F0F0
F1F0
FFF0
7FF8
3E78
ENDCHAR
STARTCHAR uni0204
ENCODING 516
SWIDTH 602 0
DWIDTH 15 0
BBX 12 23 2 0
BITMAP
EC00
6600
3600
1300
0000
FFE0
FFE0
FFE0
F000
F000
F000
F000
FFC0
FFC0
FFC0
F000
F000
F000
F000
F000
FFF0
FFF0
FFF0
ENDCHAR
STARTCHAR uni0205
ENCODING 517
SWIDTH 602 0
DWIDTH 15 0
BBX 13 18 1 0
BITMAP
3B00
1980
0D80
04C0
0000
0FC0
3FE0
7FF0
7870
F078
FFF8
FFF8
FFF8
F000
7808
7FF8
3FF8
0FE0
ENDCHAR
STARTCHAR uni0206
ENCODING 518
SWIDTH 602 0
DWIDTH 15 0
BBX 12 23 2 0
BITMAP
1E00
3F00
7F80
6180
0000
FFE0
FFE0
FFE0
F000
F000
F000
F000
FFC0
FFC0
FFC0
F000
F000
F000
F000
F000
FFF0
FFF0
FFF0
ENDCHAR
STARTCHAR uni0207
ENCODING 519
SWIDTH 602 0
DWIDTH 15 0
BBX 13 18 1 0
BITMAP
0780
0FC0
1FE0
1860
0000
0FC0
3FE0
7FF0
7870
F078
FFF8
FFF8
FFF8
F000
7808
7FF8
3FF8
0FE0
ENDCHAR
STARTCHAR uni0208
ENCODING 520
SWIDTH 602 0
DWIDTH 15 0
BBX 12 23 1 0
BITMAP
7600
3300
1B00
0980
0000
FFF0
FFF0
FFF0
0F00
0F00
0F00
0F00
0F00
0F00
0F00
0F00
0F00
0F00
0F00
0F00
FFF0
FFF0
FFF0
ENDCHAR
STARTCHAR uni0209
ENCODING 521
SWIDTH 602 0
DWIDTH 15 0
BBX 9 18 2 0
BITMAP
EC00
6600
3600
1300
0000
FF80
FF80
FF80
0780
0780
0780
0780
0780
0780
0780
0780
0780
0780
ENDCHAR
STARTCHAR uni020A
ENCODING 522
SWIDTH 602 0
DWIDTH 15 0
BBX 12 23 1 0
BITMAP
0F00
1F80
3FC0
30C0
0000
FFF0
FFF0
FFF0
0F00
0F00
0F00
0F00
0F00
0F00
0F00
0F00
0F00
0F00
0F00
0F00
FFF0
FFF0
FFF0
ENDCHAR
STARTCHAR uni020B
ENCODING 523
SWIDTH 602 0
DWIDTH 15 0
BBX 9 18 2 0
BITMAP
1E00
3F00
7F80
6180
0000
FF80
FF80
FF80
0780
0780
0780
0780
0780
0780
0780
0780
0780
0780
ENDCHAR
STARTCHAR uni020C
ENCODING 524
SWIDTH 602 0
DWIDTH 15 0
BBX 14 23 1 0
BITMAP
3B00
1980
0D80
04C0
0000
0FC0
1FE0
3FF0
7878
7878
F03C
F03C
F03C
F03C
F03C
F03C
F03C
F03C
7878
7878
3FF0
1FE0
0FC0
ENDCHAR
STARTCHAR uni020D
ENCODING 525
SWIDTH 602 0
DWIDTH 15 0
BBX 14 18 0 0
BITMAP
3B00
1980
0D80
04C0
0000
0FC0
3FF0
7FF8
7878
F03C
F03C
F03C
F03C
F03C
7878
7FF8
3FF0
0FC0
ENDCHAR
STARTCHAR uni020E
ENCODING 526
SWIDTH 602 0
DWIDTH 15 0
BBX 14 23 1 0
BITMAP
0780
0FC0
1FE0
1860
0000
0FC0
1FE0
3FF0
7878
7878
F03C
F03C
F03C
F03C
F03C
F03C
F03C
F03C
7878
7878
3FF0
1FE0
0FC0
ENDCHAR
STARTCHAR uni020F
ENCODING 527
SWIDTH 602 0
DWIDTH 15 0
BBX 14 18 0 0
BITMAP
0780
0FC0
1FE0
1860
0000
0FC0
3FF0
7FF8
7878
F03C
F03C
F03C
F03C
F03C
7878
7FF8
3FF0
0FC0
ENDCHAR
STARTCHAR uni0210
ENCODING 528
SWIDTH 602 0
DWIDTH 15 0
BBX 13 23 2 0
BITMAP
7600
3300
1B00
0980
0000
FFC0
FFE0
FFF0
F1F0
F0F0
F0F0
F0F0
F1E0
F3C0
FF80
FF80
FFC0
F7C0
F3E0
F1E0
F1F0
F0F0
F078
ENDCHAR
STARTCHAR uni0211
ENCODING 529
SWIDTH 602 0
DWIDTH 15 0
BBX 11 18 3 0
BITMAP
7600
3300
1B00
0980
0000
F3E0
F7E0
FFE0
FFE0
FCE0
F800
F000
F000
F000
F000
F000
F000
F000
ENDCHAR
STARTCHAR uni0212
ENCODING 530
SWIDTH 602 0
DWIDTH 15 0
BBX 13 23 2 0
BITMAP
0F00
1F80
3FC0
30C0
0000
FFC0
FFE0
FFF0
F1F0
F0F0
F0F0
F0F0
F1E0
F3C0
FF80
FF80
FFC0
F7C0
F3E0
F1E0
F1F0
F0F0
F078
ENDCHAR
STARTCHAR uni0213
ENCODING 531
SWIDTH 602 0
DWIDTH 15 0
BBX 11 18 3 0
BITMAP
0F00
1F80
3FC0
30C0
0000
F3E0
F7E0
FFE0
FFE0
FCE0
F800
F000
F000
F000
F000
F000
F000
F000
ENDCHAR
STARTCHAR uni0214
ENCODING 532
SWIDTH 602 0
DWIDTH 15 0
BBX 12 23 1 0
BITMAP
7600
3300
1B00
0980
0000
F0F0
F0F0
F0F0
F0F0
F0F0
F0F0
F0F0
F0F0
F0F0
F0F0
F0F0
F0F0
F0F0
F0F0
F9F0
7FE0
7FE0
1F80
ENDCHAR
STARTCHAR uni0215
ENCODING 533
SWIDTH 602 0
DWIDTH 15 0
BBX 12 18 1 0
BITMAP
7600
3300
1B00
0980
0000
F0F0
F0F0
F0F0
F0F0
F0F0
F0F0
F0F0
F0F0
F1F0
FFF0
FFF0
7EF0
3CF0
ENDCHAR
STARTCHAR uni0216
ENCODING 534
SWIDTH 602 0
DWIDTH 15 0
BBX 12 23 1 0
BITMAP
0F00
1F80
3FC0
30C0
0000
F0F0
F0F0
F0F0
F0F0
F0F0
F0F0
F0F0
F0F0
F0F0
F0F0
F0F0
F0F0
F0F0
F0F0
F9F0
7FE0
7FE0
1F80
ENDCHAR
STARTCHAR uni0217
ENCODING 535
SWIDTH 602 0
DWIDTH 15 0
BBX 12 18 1 0
BITMAP
0F00
1F80
3FC0
30C0
0000
F0F0
F0F0
F0F0
F0F0
F0F0
F0F0
F0F0
F0F0
F1F0
FFF0
FFF0
7EF0
3CF0
ENDCHAR
STARTCHAR Scommaaccent
ENCODING 536
SWIDTH 602 0
DWIDTH 15 0
BBX 13 27 1 -9
BITMAP
1FE0
7FF0
7FF0
F830
F000
F800
FE00
7F80
3FC0
0FF0
03F0
00F8
0078
0078
C0F8
FFF0
FFE0
7F80
0000
0F00
0F00
0F00
0F00
0700
0700
0F00
0E00
ENDCHAR
STARTCHAR scommaaccent
ENCODING 537
SWIDTH 602 0
DWIDTH 15 0
BBX 12 22 2 -9
BITMAP
1FC0
7FE0
FFE0
F020
FE00
FFC0
7FE0
1FF0
03F0
C1F0
FFF0
FFE0
7F80
0000
0F00
0F00
0F00
0F00
0700
0700
0F00
0E00
ENDCHAR
STARTCHAR Tcommaaccent
ENCODING 538
SWIDTH 602 0
DWIDTH 15 0
BBX 14 27 1 -9
BITMAP
FFFC
FFFC
FFFC
0780
0780
0780
0780
0780
0780
0780
0780
0780
0780
0780
0780
0780
0780
0780
0000
0780
0780
0780
0780
0380
0380
0780
0700
ENDCHAR
STARTCHAR tcommaaccent
ENCODING 539
SWIDTH 602 0
DWIDTH 15 0
BBX 12 26 2 -9
BITMAP
0E00
1E00
1E00
1E00
FFF0
FFF0
FFF0
1E00
1E00
1E00
1E00
1E00
1E00
1E10
1FF0
0FF0
07E0
0000
0780
0780
0780
0780
0380
0380
0780
0700
ENDCHAR
STARTCHAR uni021E
ENCODING 542
SWIDTH 602 0
DWIDTH 15 0
BBX 13 23 1 0
BITMAP
1CE0
0FC0
0FC0
0780
0000
F078
F078
F078
F078
F078
F078
F078
FFF8
FFF8
FFF8
F078
F078
F078
F078
F078
F078
F078
F078
ENDCHAR
STARTCHAR uni021F
ENCODING 543
SWIDTH 602 0
DWIDTH 15 0
BBX 13 24 1 0
BITMAP
E700
7E00
7E00
3C00
0000
7800
7800
7800
7800
7800
7800
79E0
7BF0
7FF8
7FF8
7C78
7878
7878
7878
7878
7878
7878
7878
7878
ENDCHAR
STARTCHAR uni0226
ENCODING 550
SWIDTH 602 0
DWIDTH 15 0
BBX 15 22 0 0
BITMAP
0380
0380
0380
0000
03C0
07C0
07E0
07E0
0FE0
0FF0
0EF0
1CF0
1CF0
1C78
3878
3FF8
3FFC
7FFC
703C
703C
E01E
E01E
ENDCHAR
STARTCHAR uni0227
ENCODING 551
SWIDTH 602 0
DWIDTH 15 0
BBX 13 17 1 0
BITMAP
0700
0700
0700
0000
1FC0
7FE0
7FF0
41F0
00F0
1FF0
7FF0
FFF0
F0F0
F1F0
FFF0
7FF8
3E78
ENDCHAR
STARTCHAR uni0228
ENCODING 552
SWIDTH 602 0
DWIDTH 15 0
BBX 12 23 2 -5
BITMAP
FFE0
FFE0
FFE0
F000
F000
F000
F000
FFC0
FFC0
FFC0
F000
F000
F000
F000
F000
FFF0
FFF0
FFF0
0C00
1F00
0300
1F00
1E00
ENDCHAR
STARTCHAR uni0229
ENCODING 553
SWIDTH 602 0
DWIDTH 15 0
BBX 13 18 1 -5
BITMAP
0FC0
3FE0
7FF0
7870
F078
FFF8
FFF8
FFF8
F000
7808
7FF8
3FF8
0FE0
0600
0F80
0180
0F80
0F00
ENDCHAR
STARTCHAR uni022A
ENCODING 554
SWIDTH 602 0
DWIDTH 15 0
BBX 14 26 1 0
BITMAP
1FC0
1FC0
1FC0
0000
1DC0
1DC0
1DC0
0000
0FC0
1FE0
3FF0
7878
7878
F03C
F03C
F03C
F03C
F03C
F03C
F03C
F03C
7878
7878
3FF0
1FE0
0FC0
ENDCHAR
STARTCHAR uni022B
ENCODING 555
SWIDTH 602 0
DWIDTH 15 0
BBX 14 21 0 0
BITMAP
1FC0
1FC0
1FC0
0000
1DC0
1DC0
1DC0
0000
0FC0
3FF0
7FF8
7878
F03C
F03C
F03C
F03C
F03C
7878
7FF8
3FF0
0FC0
ENDCHAR
STARTCHAR uni022C
ENCODING 556
SWIDTH 602 0
DWIDTH 15 0
BBX 14 27 1 0
BITMAP
0FE0
0FE0
0FE0
0000
0E60
1FE0
1FE0
19C0
0000
0FC0
1FE0
3FF0
7878
7878
F03C
F03C
F03C
F03C
F03C
F03C
F03C
F03C
7878
7878
3FF0
1FE0
0FC0
ENDCHAR
STARTCHAR uni022D
ENCODING 557
SWIDTH 602 0
DWIDTH 15 0
BBX 14 22 0 0
BITMAP
0FE0
0FE0
0FE0
0000
0E60
1FE0
1FE0
19C0
0000
0FC0
3FF0
7FF8
7878
F03C
F03C
F03C
F03C
F03C
7878
7FF8
3FF0
0FC0
ENDCHAR
STARTCHAR uni022E
ENCODING 558
SWIDTH 602 0
DWIDTH 15 0
BBX 14 22 1 0
BITMAP
0380
0380
0380
0000
0FC0
1FE0
3FF0
7878
7878
F03C
F03C
F03C
F03C
F03C
F03C
F03C
F03C
7878
7878
3FF0
1FE0
0FC0
ENDCHAR
STARTCHAR uni022F
ENCODING 559
SWIDTH 602 0
DWIDTH 15 0
BBX 14 17 0 0
BITMAP
0380
0380
0380
0000
0FC0
3FF0
7FF8
7878
F03C
F03C
F03C
F03C
F03C
7878
7FF8
3FF0
0FC0
ENDCHAR
STARTCHAR uni0230
ENCODING 560
SWIDTH 602 0
DWIDTH 15 0
BBX 14 26 1 0
BITMAP
0FE0
0FE0
0FE0
0000
0380
0380
0380
0000
0FC0
1FE0
3FF0
7878
7878
F03C
F03C
F03C
F03C
F03C
F03C
F03C
F03C
7878
7878
3FF0
1FE0
0FC0
ENDCHAR
STARTCHAR uni0231
ENCODING 561
SWIDTH 602 0
DWIDTH 15 0
BBX 14 21 0 0
BITMAP
0FE0
0FE0
0FE0
0000
0380
0380
0380
0000
0FC0
3FF0
7FF8
7878
F03C
F03C
F03C
F03C
F03C
7878
7FF8
3FF0
0FC0
ENDCHAR
STARTCHAR uni0232
ENCODING 562
SWIDTH 602 0
DWIDTH 15 0
BBX 16 22 0 0
BITMAP
0FE0
0FE0
0FE0
0000
F80F
780E
7C1E
3C1C
3E3C
1F38
0F70
0FF0
07E0
07E0
03C0
03C0
03C0
03C0
03C0
03C0
03C0
03C0
ENDCHAR
STARTCHAR uni0233
ENCODING 563
SWIDTH 602 0
DWIDTH 15 0
BBX 14 22 1 -5
BITMAP
1FC0
1FC0
1FC0
0000
F01C
F83C
7838
7C78
3C70
3E70
1EE0
1FE0
0FC0
0FC0
07C0
0780
0780
0700
0F00
7E00
7E00
7800
ENDCHAR
STARTCHAR uni0250
ENCODING 592
SWIDTH 602 0
DWIDTH 15 0
BBX 13 13 1 0
BITMAP
F3E0
FFF0
7FF8
7C78
7878
7FF8
7FF0
7FC0
7800
7C10
7FF0
3FF0
1FC0
ENDCHAR
STARTCHAR uni0254
ENCODING 596
SWIDTH 602 0
DWIDTH 15 0
BBX 13 13 1 0
BITMAP
FF80
FFE0
FFF0
C1F0
00F8
0078
0078
0078
00F8
81F0
FFF0
FFE0
FF80
ENDCHAR
STARTCHAR uni0258
ENCODING 600
SWIDTH 602 0
DWIDTH 15 0
BBX 13 13 1 0
BITMAP
1F80
3FE0
7FF0
70F0
F078
FFF8
FFF8
FFF8
0078
80F0
FFF0
FFE0
3F80
ENDCHAR
STARTCHAR uni0259
ENCODING 601
SWIDTH 602 0
DWIDTH 15 0
BBX 13 13 1 0
BITMAP
3F80
FFE0
FFF0
80F0
0078
FFF8
FFF8
FFF8
F078
70F0
7FF0
3FE0
1F80
ENDCHAR
STARTCHAR uni025F
ENCODING 607
SWIDTH 602 0
DWIDTH 15 0
BBX 13 19 2 -6
BITMAP
03C0
03C0
03C0
03C0
03C0
03C0
03C0
03C0
03C0
03C0
7FF8
7FF8
7FF8
03C0
03C0
83C0
FFC0
FF80
7E00
ENDCHAR
STARTCHAR uni0265
ENCODING 613
SWIDTH 602 0
DWIDTH 15 0
BBX 12 19 2 -6
BITMAP
F0F0
F0F0
F0F0
F0F0
F0F0
F0F0
F0F0
F0F0
F1F0
FFF0
FFF0
7EF0
3CF0
00F0
00F0
00F0
00F0
00F0
00F0
ENDCHAR
STARTCHAR uni0275
ENCODING 629
SWIDTH 602 0
DWIDTH 15 0
BBX 14 13 0 0
BITMAP
0FC0
3FF0
7FF8
7878
F03C
FFFC
FFFC
FFFC
F03C
7878
7FF8
3FF0
0FC0
ENDCHAR
STARTCHAR uni0279
ENCODING 633
SWIDTH 602 0
DWIDTH 15 0
BBX 11 13 3 0
BITMAP
01E0
01E0
01E0
01E0
01E0
01E0
01E0
03E0
E7E0
FFE0
FFE0
FDE0
F9E0
ENDCHAR
STARTCHAR uni0287
ENCODING 647
SWIDTH 602 0
DWIDTH 15 0
BBX 12 17 2 0
BITMAP
7E00
FF00
FF80
8780
0780
0780
0780
0780
0780
0780
FFF0
FFF0
FFF0
0780
0780
0780
0700
ENDCHAR
STARTCHAR uni0288
ENCODING 648
SWIDTH 602 0
DWIDTH 15 0
BBX 13 22 2 -5
BITMAP
0E00
1E00
1E00
1E00
FFF0
FFF0
FFF0
1E00
1E00
1E00
1E00
1E00
1E00
1E00
1E00
1E00
1E00
1E00
1F08
0FF8
0FF8
07F0
ENDCHAR
STARTCHAR uni0289
ENCODING 649
SWIDTH 602 0
DWIDTH 15 0
BBX 12 13 1 0
BITMAP
F0F0
F0F0
F0F0
F0F0
F0F0
FFF0
FFF0
FFF0
F1F0
FFF0
FFF0
7EF0
3CF0
ENDCHAR
STARTCHAR uni028C
ENCODING 652
SWIDTH 602 0
DWIDTH 15 0
BBX 14 13 1 0
BITMAP
0780
0FC0
0FC0
0FC0
1DE0
1DE0
3DF0
38F0
38F0
7078
7078
F07C
E03C
ENDCHAR
STARTCHAR uni028D
ENCODING 653
SWIDTH 602 0
DWIDTH 15 0
BBX 15 13 0 0
BITMAP
3878
3C78
3CF8
3CF8
7EFC
7FFC
7FFC
6FFC
67FC
67BC
E79E
E79E
E01E
ENDCHAR
STARTCHAR uni028E
ENCODING 654
SWIDTH 602 0
DWIDTH 15 0
BBX 14 18 1 0
BITMAP
0078
01F8
01F8
03C0
0380
0780
0780
0F80
0FC0
0FC0
1FE0
1DE0
39F0
38F0
78F8
7078
F07C
E03C
ENDCHAR
STARTCHAR uni029E
ENCODING 670
SWIDTH 602 0
DWIDTH 15 0
BBX 13 19 2 -6
BITMAP
F878
7C78
7C78
3E78
1F78
1F78
0FF8
07F8
0F78
0E78
1C78
3C78
7878
0078
0078
0078
0078
0078
0078
ENDCHAR
STARTCHAR uni02BB
ENCODING 699
SWIDTH 602 0
DWIDTH 15 0
BBX 4 8 5 11
BITMAP
70
F0
E0
E0
F0
F0
F0
F0
ENDCHAR
STARTCHAR afii57929
ENCODING 700
SWIDTH 602 0
DWIDTH 15 0
BBX 4 8 5 11
BITMAP
F0
F0
F0
F0
70
70
F0
E0
ENDCHAR
STARTCHAR afii64937
ENCODING 701
SWIDTH 602 0
DWIDTH 15 0
BBX 4 8 5 11
BITMAP
F0
F0
F0
F0
E0
E0
F0
70
ENDCHAR
STARTCHAR circumflex
ENCODING 710
SWIDTH 602 0
DWIDTH 15 0
BBX 8 4 3 15
BITMAP
3C
7E
7E
E7
ENDCHAR
STARTCHAR caron
ENCODING 711
SWIDTH 602 0
DWIDTH 15 0
BBX 8 4 3 15
BITMAP
E7
7E
7E
3C
ENDCHAR
STARTCHAR uni02C8
ENCODING 712
SWIDTH 602 0
DWIDTH 15 0
BBX 4 8 5 11
BITMAP
F0
F0
F0
F0
70
70
70
70
ENDCHAR
STARTCHAR macron
ENCODING 713
SWIDTH 602 0
DWIDTH 15 0
BBX 7 3 4 15
BITMAP
FE
FE
FE
ENDCHAR
STARTCHAR uni02CA
ENCODING 714
SWIDTH 602 0
DWIDTH 15 0
BBX 6 4 4 15
BITMAP
3C
78
70
E0
ENDCHAR
STARTCHAR uni02CB
ENCODING 715
SWIDTH 602 0
DWIDTH 15 0
BBX 6 4 5 15
BITMAP
F0
78
38
1C
ENDCHAR
STARTCHAR uni02CD
ENCODING 717
SWIDTH 602 0
DWIDTH 15 0
BBX 7 3 4 -4
BITMAP
FE
FE
FE
ENDCHAR
STARTCHAR uni02CE
ENCODING 718
SWIDTH 602 0
DWIDTH 15 0
BBX 6 4 5 -5
BITMAP
F0
78
38
1C
ENDCHAR
STARTCHAR uni02CF
ENCODING 719
SWIDTH 602 0
DWIDTH 15 0
BBX 6 4 4 -5
BITMAP
3C
78
70
E0
ENDCHAR
STARTCHAR breve
ENCODING 728
SWIDTH 602 0
DWIDTH 15 0
BBX 8 4 4 14
BITMAP
C3
FF
7E
3C
ENDCHAR
STARTCHAR dotaccent
ENCODING 729
SWIDTH 602 0
DWIDTH 15 0
BBX 3 3 6 15
BITMAP
E0
E0
E0
ENDCHAR
STARTCHAR ring
ENCODING 730
SWIDTH 602 0
DWIDTH 15 0
BBX 4 4 6 15
BITMAP
60
90
90
60
ENDCHAR
STARTCHAR ogonek
ENCODING 731
SWIDTH 602 0
DWIDTH 15 0
BBX 4 5 5 -5
BITMAP
70
40
C0
F0
F0
ENDCHAR
STARTCHAR tilde
ENCODING 732
SWIDTH 602 0
DWIDTH 15 0
BBX 8 4 4 14
BITMAP
73
FF
FF
CE
ENDCHAR
STARTCHAR hungarumlaut
ENCODING 733
SWIDTH 602 0
DWIDTH 15 0
BBX 8 4 5 15
BITMAP
37
66
6C
C8
ENDCHAR
STARTCHAR uni02EE
ENCODING 750
SWIDTH 602 0
DWIDTH 15 0
BBX 10 7 2 12
BITMAP
F3C0
F3C0
F3C0
F3C0
71C0
71C0
F3C0
ENDCHAR
STARTCHAR uni037E
ENCODING 894
SWIDTH 602 0
DWIDTH 15 0
BBX 4 17 5 -4
BITMAP
F0
F0
F0
F0
00
00
00
00
00
F0
F0
F0
F0
70
70
E0
C0
ENDCHAR
STARTCHAR tonos
ENCODING 900
SWIDTH 602 0
DWIDTH 15 0
BBX 6 4 4 15
BITMAP
3C
78
70
E0
ENDCHAR
STARTCHAR dieresistonos
ENCODING 901
SWIDTH 602 0
DWIDTH 15 0
BBX 7 8 4 15
BITMAP
1E
3C
38
70
00
EE
EE
EE
ENDCHAR
STARTCHAR anoteleia
ENCODING 903
SWIDTH 602 0
DWIDTH 15 0
BBX 3 4 6 4
BITMAP
E0
E0
E0
E0
ENDCHAR
STARTCHAR mu
ENCODING 956
SWIDTH 602 0
DWIDTH 15 0
BBX 12 17 1 -4
BITMAP
F0F0
F0F0
F0F0
F0F0
F0F0
F0F0
F0F0
F0F0
F9F0
FFF0
FFF0
FFF0
FEF0
F000
F000
F000
F000
ENDCHAR
STARTCHAR uni1E00
ENCODING 7680
SWIDTH 602 0
DWIDTH 15 0
BBX 15 23 0 -5
BITMAP
03C0
07C0
07E0
07E0
0FE0
0FF0
0EF0
1CF0
1CF0
1C78
3878
3FF8
3FFC
7FFC
703C
703C
E01E
E01E
0000
0180
0240
0240
0180
ENDCHAR
STARTCHAR uni1E01
ENCODING 7681
SWIDTH 602 0
DWIDTH 15 0
BBX 13 18 1 -5
BITMAP
1FC0
7FE0
7FF0
41F0
00F0
1FF0
7FF0
FFF0
F0F0
F1F0
FFF0
7FF8
3E78
0000
0300
0480
0480
0300
ENDCHAR
STARTCHAR uni1E02
ENCODING 7682
SWIDTH 602 0
DWIDTH 15 0
BBX 13 22 1 0
BITMAP
0E00
0E00
0E00
0000
FFC0
FFE0
FFF0
F0F0
F0F0
F0F0
F1E0
FFC0
FF80
FFE0
F1F0
F078
F078
F078
F0F8
FFF0
FFF0
FFC0
ENDCHAR
STARTCHAR uni1E03
ENCODING 7683
SWIDTH 602 0
DWIDTH 15 0
BBX 13 23 1 0
BITMAP
3800
3800
3800
0000
F000
F000
F000
F000
F000
F000
F3C0
F7F0
FFF0
FFF8
F8F8
F078
F078
F078
F078
F8F0
FFF0
FFE0
E7C0
ENDCHAR
STARTCHAR uni1E04
ENCODING 7684
SWIDTH 602 0
DWIDTH 15 0
BBX 13 22 1 -4
BITMAP
FFC0
FFE0
FFF0
F0F0
F0F0
F0F0
F1E0
FFC0
FF80
FFE0
F1F0
F078
F078
F078
F0F8
FFF0
FFF0
FFC0
0000
0700
0700
0700
ENDCHAR
STARTCHAR uni1E05
ENCODING 7685
SWIDTH 602 0
DWIDTH 15 0
BBX 13 23 1 -4
BITMAP
F000
F000
F000
F000
F000
F000
F3C0
F7F0
FFF0
FFF8
F8F8
F078
F078
F078
F078
F8F0
FFF0
FFE0
E7C0
0000
0700
0700
0700
ENDCHAR
STARTCHAR uni1E06
ENCODING 7686
SWIDTH 602 0
DWIDTH 15 0
BBX 13 22 1 -4
BITMAP
FFC0
FFE0
FFF0
F0F0
F0F0
F0F0
F1E0
FFC0
FF80
FFE0
F1F0
F078
F078
F078
F0F8
FFF0
FFF0
FFC0
0000
1FC0
1FC0
1FC0
ENDCHAR
STARTCHAR uni1E07
ENCODING 7687
SWIDTH 602 0
DWIDTH 15 0
BBX 13 23 1 -4
BITMAP
F000
F000
F000
F000
F000
F000
F3C0
F7F0
FFF0
FFF8
F8F8
F078
F078
F078
F078
F8F0
FFF0
FFE0
E7C0
0000
1FC0
1FC0
1FC0
ENDCHAR
STARTCHAR uni1E08
ENCODING 7688
SWIDTH 602 0
DWIDTH 15 0
BBX 14 28 0 -5
BITMAP
01E0
03C0
0380
0700
0000
03FC
1FFC
3FFC
7E0C
7C00
7800
F000
F000
F000
F000
F000
F000
7800
7C00
7E04
3FFC
1FFC
03F0
0300
07C0
00C0
07C0
0780
ENDCHAR
STARTCHAR uni1E09
ENCODING 7689
SWIDTH 602 0
DWIDTH 15 0
BBX 13 23 1 -5
BITMAP
03C0
0780
0700
0E00
0000
0FF8
3FF8
7FF8
7C18
F800
F000
F000
F000
F800
7C08
7FF8
3FF8
0FF8
0600
0F80
0180
0F80
0F00
ENDCHAR
STARTCHAR uni1E0A
ENCODING 7690
SWIDTH 602 0
DWIDTH 15 0
BBX 13 22 1 0
BITMAP
0700
0700
0700
0000
FF80
FFE0
FFF0
F1F0
F0F8
F078
F078
F078
F078
F078
F078
F078
F078
F0F0
F1F0
FFE0
FFC0
FF00
ENDCHAR
STARTCHAR uni1E0B
ENCODING 7691
SWIDTH 602 0
DWIDTH 15 0
BBX 13 23 1 0
BITMAP
00E0
00E0
00E0
0000
0078
0078
0078
0078
0078
0078
1F78
3FF8
7FF8
78F8
F078
F078
F078
F078
F8F8
FFF8
7FF8
7F78
1E78
ENDCHAR
STARTCHAR uni1E0C
ENCODING 7692
SWIDTH 602 0
DWIDTH 15 0
BBX 13 22 1 -4
BITMAP
FF80
FFE0
FFF0
F1F0
F0F8
F078
F078
F078
F078
F078
F078
F078
F078
F0F0
F1F0
FFE0
FFC0
FF00
0000
0E00
0E00
0E00
ENDCHAR
STARTCHAR uni1E0D
ENCODING 7693
SWIDTH 602 0
DWIDTH 15 0
BBX 13 23 1 -4
BITMAP
0078
0078
0078
0078
0078
0078
1F78
3FF8
7FF8
78F8
F078
F078
F078
F078
F8F8
FFF8
7FF8
7F78
1E78
0000
0700
0700
0700
ENDCHAR
STARTCHAR uni1E0E
ENCODING 7694
SWIDTH 602 0
DWIDTH 15 0
BBX 13 22 1 -4
BITMAP
FF80
FFE0
FFF0
F1F0
F0F8
F078
F078
F078
F078
F078
F078
F078
F078
F0F0
F1F0
FFE0
FFC0
FF00
0000
3F80
3F80
3F80
ENDCHAR
STARTCHAR uni1E0F
ENCODING 7695
SWIDTH 602 0
DWIDTH 15 0
BBX 13 23 1 -4
BITMAP
0078
0078
0078
0078
0078
0078
1F78
3FF8
7FF8
78F8
F078
F078
F078
F078
F8F8
FFF8
7FF8
7F78
1E78
0000
1FC0
1FC0
1FC0
ENDCHAR
STARTCHAR uni1E10
ENCODING 7696
SWIDTH 602 0
DWIDTH 15 0
BBX 13 23 1 -5
BITMAP
FF80
FFE0
FFF0
F1F0
F0F8
F078
F078
F078
F078
F078
F078
F078
F078
F0F0
F1F0
FFE0
FFC0
FF00
0C00
1F00
0300
1F00
1E00
ENDCHAR
STARTCHAR uni1E11
ENCODING 7697
SWIDTH 602 0
DWIDTH 15 0
BBX 13 24 1 -5
BITMAP
0078
0078
0078
0078
0078
0078
1F78
3FF8
7FF8
78F8
F078
F078
F078
F078
F8F8
FFF8
7FF8
7F78
1E78
0600
0F80
0180
0F80
0F00
ENDCHAR
STARTCHAR uni1E12
ENCODING 7698
SWIDTH 602 0
DWIDTH 15 0
BBX 13 23 1 -5
BITMAP
FF80
FFE0
FFF0
F1F0
F0F8
F078
F078
F078
F078
F078
F078
F078
F078
F0F0
F1F0
FFE0
FFC0
FF00
0000
0F00
1F80
1F80
39C0
ENDCHAR
STARTCHAR uni1E13
ENCODING 7699
SWIDTH 602 0
DWIDTH 15 0
BBX 13 24 1 -5
BITMAP
0078
0078
0078
0078
0078
0078
1F78
3FF8
7FF8
78F8
F078
F078
F078
F078
F8F8
FFF8
7FF8
7F78
1E78
0000
0780
0FC0
0FC0
1CE0
ENDCHAR
STARTCHAR uni1E14
ENCODING 7700
SWIDTH 602 0
DWIDTH 15 0
BBX 12 27 2 0
BITMAP
3C00
1E00
0E00
0700
0000
3F80
3F80
3F80
0000
FFE0
FFE0
FFE0
F000
F000
F000
F000
FFC0
FFC0
FFC0
F000
F000
F000
F000
F000
FFF0
FFF0
FFF0
ENDCHAR
STARTCHAR uni1E15
ENCODING 7701
SWIDTH 602 0
DWIDTH 15 0
BBX 13 22 1 0
BITMAP
1E00
0F00
0700
0380
0000
1FC0
1FC0
1FC0
0000
0FC0
3FE0
7FF0
7870
F078
FFF8
FFF8
FFF8
F000
7808
7FF8
3FF8
0FE0
ENDCHAR
STARTCHAR uni1E16
ENCODING 7702
SWIDTH 602 0
DWIDTH 15 0
BBX 12 27 2 0
BITMAP
0780
0F00
0E00
1C00
0000
3F80
3F80
3F80
0000
FFE0
FFE0
FFE0
F000
F000
F000
F000
FFC0
FFC0
FFC0
F000
F000
F000
F000
F000
FFF0
FFF0
FFF0
ENDCHAR
STARTCHAR uni1E17
ENCODING 7703
SWIDTH 602 0
DWIDTH 15 0
BBX 13 22 1 0
BITMAP
03C0
0780
0700
0E00
0000
1FC0
1FC0
1FC0
0000
0FC0
3FE0
7FF0
7870
F078
FFF8
FFF8
FFF8
F000
7808
7FF8
3FF8
0FE0
ENDCHAR
STARTCHAR uni1E18
ENCODING 7704
SWIDTH 602 0
DWIDTH 15 0
BBX 12 23 2 -5
BITMAP
FFE0
FFE0
FFE0
F000
F000
F000
F000
FFC0
FFC0
FFC0
F000
F000
F000
F000
F000
FFF0
FFF0
FFF0
0000
0F00
1F80
1F80
39C0
ENDCHAR
STARTCHAR uni1E19
ENCODING 7705
SWIDTH 602 0
DWIDTH 15 0
BBX 13 18 1 -5
BITMAP
0FC0
3FE0
7FF0
7870
F078
FFF8
FFF8
FFF8
F000
7808
7FF8
3FF8
0FE0
0000
0780
0FC0
0FC0
1CE0
ENDCHAR
STARTCHAR uni1E1A
ENCODING 7706
SWIDTH 602 0
DWIDTH 15 0
BBX 12 23 2 -5
BITMAP
FFE0
FFE0
FFE0
F000
F000
F000
F000
FFC0
FFC0
FFC0
F000
F000
F000
F000
F000
FFF0
FFF0
FFF0
0000
3980
7F80
7F80
6700
ENDCHAR
STARTCHAR uni1E1B
ENCODING 7707
SWIDTH 602 0
DWIDTH 15 0
BBX 13 18 1 -5
BITMAP
0FC0
3FE0
7FF0
7870
F078
FFF8
FFF8
FFF8
F000
7808
7FF8
3FF8
0FE0
0000
0E60
1FE0
1FE0
19C0
ENDCHAR
STARTCHAR uni1E1C
ENCODING 7708
SWIDTH 602 0
DWIDTH 15 0
BBX 12 28 2 -5
BITMAP
6180
7F80
3F00
1E00
0000
FFE0
FFE0
FFE0
F000
F000
F000
F000
FFC0
FFC0
FFC0
F000
F000
F000
F000
F000
FFF0
FFF0
FFF0
0C00
1F00
0300
1F00
1E00
ENDCHAR
STARTCHAR uni1E1D
ENCODING 7709
SWIDTH 602 0
DWIDTH 15 0
BBX 13 23 1 -5
BITMAP
1860
1FE0
0FC0
0780
0000
0FC0
3FE0
7FF0
7870
F078
FFF8
FFF8
FFF8
F000
7808
7FF8
3FF8
0FE0
0600
0F80
0180
0F80
0F00
ENDCHAR
STARTCHAR uni1E1E
ENCODING 7710
SWIDTH 602 0
DWIDTH 15 0
BBX 13 22 2 0
BITMAP
0E00
0E00
0E00
0000
FFF8
FFF8
FFF8
F000
F000
F000
F000
F000
FFF0
FFE0
FFE0
F000
F000
F000
F000
F000
F000
F000
ENDCHAR
STARTCHAR uni1E1F
ENCODING 7711
SWIDTH 602 0
DWIDTH 15 0
BBX 13 23 2 0
BITMAP
0380
0380
0380
0000
03F0
0FF8
1FF8
1E08
1E00
1E00
FFF0
FFF0
FFF0
1E00
1E00
1E00
1E00
1E00
1E00
1E00
1E00
1E00
1E00
ENDCHAR
STARTCHAR uni1E20
ENCODING 7712
SWIDTH 602 0
DWIDTH 15 0
BBX 14 22 0 0
BITMAP
0FE0
0FE0
0FE0
0000
03F8
1FFC
3FFC
7E04
7C00
7800
F000
F000
F000
F03C
F03C
F03C
F83C
783C
7E3C
3FFC
1FFC
07F0
ENDCHAR
STARTCHAR uni1E21
ENCODING 7713
SWIDTH 602 0
DWIDTH 15 0
BBX 13 22 1 -5
BITMAP
1FC0
1FC0
1FC0
0000
1F38
3FB8
7FF8
78F8
F078
F078
F078
F078
F8F8
FFF8
7FF8
7F78
1E78
0078
20F0
3FF0
7FE0
1FC0
ENDCHAR
STARTCHAR uni1E22
ENCODING 7714
SWIDTH 602 0
DWIDTH 15 0
BBX 13 22 1 0
BITMAP
0700
0700
0700
0000
F078
F078
F078
F078
F078
F078
F078
FFF8
FFF8
FFF8
F078
F078
F078
F078
F078
F078
F078
F078
ENDCHAR
STARTCHAR uni1E23
ENCODING 7715
SWIDTH 602 0
DWIDTH 15 0
BBX 12 23 2 0
BITMAP
3800
3800
3800
0000
F000
F000
F000
F000
F000
F000
F3C0
F7E0
FFF0
FFF0
F8F0
F0F0
F0F0
F0F0
F0F0
F0F0
F0F0
F0F0
F0F0
ENDCHAR
STARTCHAR uni1E24
ENCODING 7716
SWIDTH 602 0
DWIDTH 15 0
BBX 13 22 1 -4
BITMAP
F078
F078
F078
F078
F078
F078
F078
FFF8
FFF8
FFF8
F078
F078
F078
F078
F078
F078
F078
F078
0000
0700
0700
0700
ENDCHAR
STARTCHAR uni1E25
ENCODING 7717
SWIDTH 602 0
DWIDTH 15 0
BBX 12 23 2 -4
BITMAP
F000
F000
F000
F000
F000
F000
F3C0
F7E0
FFF0
FFF0
F8F0
F0F0
F0F0
F0F0
F0F0
F0F0
F0F0
F0F0
F0F0
0000
0700
0700
0700
ENDCHAR
STARTCHAR uni1E26
ENCODING 7718
SWIDTH 602 0
DWIDTH 15 0
BBX 13 22 1 0
BITMAP
1DC0
1DC0
1DC0
0000
F078
F078
F078
F078
F078
F078
F078
FFF8
FFF8
FFF8
F078
F078
F078
F078
F078
F078
F078
F078
ENDCHAR
STARTCHAR uni1E27
ENCODING 7719
SWIDTH 602 0
DWIDTH 15 0
BBX 12 23 2 0
BITMAP
EE00
EE00
EE00
0000
F000
F000
F000
F000
F000
F000
F3C0
F7E0
FFF0
FFF0
F8F0
F0F0
F0F0
F0F0
F0F0
F0F0
F0F0
F0F0
F0F0
ENDCHAR
STARTCHAR uni1E28
ENCODING 7720
SWIDTH 602 0
DWIDTH 15 0
BBX 13 23 1 -5
BITMAP
F078
F078
F078
F078
F078
F078
F078
FFF8
FFF8
FFF8
F078
F078
F078
F078
F078
F078
F078
F078
0600
0F80
0180
0F80
0F00
ENDCHAR
STARTCHAR uni1E29
ENCODING 7721
SWIDTH 602 0
DWIDTH 15 0
BBX 12 24 2 -5
BITMAP
F000
F000
F000
F000
F000
F000
F3C0
F7E0
FFF0
FFF0
F8F0
F0F0
F0F0
F0F0
F0F0
F0F0
F0F0
F0F0
F0F0
0600
0F80
0180
0F80
0F00
ENDCHAR
STARTCHAR uni1E2A
ENCODING 7722
SWIDTH 602 0
DWIDTH 15 0
BBX 13 23 1 -5
BITMAP
F078
F078
F078
F078
F078
F078
F078
FFF8
FFF8
FFF8
F078
F078
F078
F078
F078
F078
F078
F078
0000
1860
1FE0
0FC0
0780
ENDCHAR
STARTCHAR uni1E2B
ENCODING 7723
SWIDTH 602 0
DWIDTH 15 0
BBX 12 24 2 -5
BITMAP
F000
F000
F000
F000
F000
F000
F3C0
F7E0
FFF0
FFF0
F8F0
F0F0
F0F0
F0F0
F0F0
F0F0
F0F0
F0F0
F0F0
0000
30C0
3FC0
1F80
0F00
ENDCHAR
STARTCHAR uni1E2C
ENCODING 7724
SWIDTH 602 0
DWIDTH 15 0
BBX 12 23 1 -5
BITMAP
FFF0
FFF0
FFF0
0F00
0F00
0F00
0F00
0F00
0F00
0F00
0F00
0F00
0F00
0F00
0F00
FFF0
FFF0
FFF0
0000
1CC0
3FC0
3FC0
3380
ENDCHAR
STARTCHAR uni1E2D
ENCODING 7725
SWIDTH 602 0
DWIDTH 15 0
BBX 10 24 2 -5
BITMAP
0780
0780
0780
0780
0000
0000
FF80
FF80
FF80
0780
0780
0780
0780
0780
0780
0780
0780
0780
0780
0000
1CC0
3FC0
3FC0
3380
ENDCHAR
STARTCHAR uni1E2E
ENCODING 7726
SWIDTH 602 0
DWIDTH 15 0
BBX 12 27 1 0
BITMAP
03C0
0780
0700
0E00
0000
3B80
3B80
3B80
0000
FFF0
FFF0
FFF0
0F00
0F00
0F00
0F00
0F00
0F00
0F00
0F00
0F00
0F00
0F00
0F00
FFF0
FFF0
FFF0
ENDCHAR
STARTCHAR uni1E2F
ENCODING 7727
SWIDTH 602 0
DWIDTH 15 0
BBX 9 22 2 0
BITMAP
0780
0F00
0E00
1C00
0000
3B80
3B80
3B80
0000
FF80
FF80
FF80
0780
0780
0780
0780
0780
0780
0780
0780
0780
0780
ENDCHAR
STARTCHAR uni1E30
ENCODING 7728
SWIDTH 602 0
DWIDTH 15 0
BBX 14 23 1 0
BITMAP
03C0
0780
0700
0E00
0000
F03C
F078
F0F0
F0E0
F1E0
F3C0
F780
FF00
FF00
FF80
FF80
F7C0
F3E0
F1E0
F1F0
F0F8
F0F8
F07C
ENDCHAR
STARTCHAR uni1E31
ENCODING 7729
SWIDTH 602 0
DWIDTH 15 0
BBX 13 24 2 0
BITMAP
1E00
3C00
3800
7000
0000
F000
F000
F000
F000
F000
F000
F0F0
F1E0
F1C0
F380
F780
FF00
FF80
F7C0
F7C0
F3E0
F1F0
F1F0
F0F8
ENDCHAR
STARTCHAR uni1E32
ENCODING 7730
SWIDTH 602 0
DWIDTH 15 0
BBX 14 22 1 -4
BITMAP
F03C
F078
F0F0
F0E0
F1E0
F3C0
F780
FF00
FF00
FF80
FF80
F7C0
F3E0
F1E0
F1F0
F0F8
F0F8
F07C
0000
0700
0700
0700
ENDCHAR
STARTCHAR uni1E33
ENCODING 7731
SWIDTH 602 0
DWIDTH 15 0
BBX 13 23 2 -4
BITMAP
F000
F000
F000
F000
F000
F000
F0F0
F1E0
F1C0
F380
F780
FF00
FF80
F7C0
F7C0
F3E0
F1F0
F1F0
F0F8
0000
0700
0700
0700
ENDCHAR
STARTCHAR uni1E34
ENCODING 7732
SWIDTH 602 0
DWIDTH 15 0
BBX 14 22 1 -4
BITMAP
F03C
F078
F0F0
F0E0
F1E0
F3C0
F780
FF00
FF00
FF80
FF80
F7C0
F3E0
F1E0
F1F0
F0F8
F0F8
F07C
0000
1FC0
1FC0
1FC0
ENDCHAR
STARTCHAR uni1E35
ENCODING 7733
SWIDTH 602 0
DWIDTH 15 0
BBX 13 23 2 -4
BITMAP
F000
F000
F000
F000
F000
F000
F0F0
F1E0
F1C0
F380
F780
FF00
FF80
F7C0
F7C0
F3E0
F1F0
F1F0
F0F8
0000
1FC0
1FC0
1FC0
ENDCHAR
STARTCHAR uni1E36
ENCODING 7734
SWIDTH 602 0
DWIDTH 15 0
BBX 12 22 3 -4
BITMAP
F000
F000
F000
F000
F000
F000
F000
F000
F000
F000
F000
F000
F000
F000
F000
FFF0
FFF0
FFF0
0000
0E00
0E00
0E00
ENDCHAR
STARTCHAR uni1E37
ENCODING 7735
SWIDTH 602 0
DWIDTH 15 0
BBX 9 23 1 -4
BITMAP
FF80
FF80
FF80
0780
0780
0780
0780
0780
0780
0780
0780
0780
0780
0780
0780
0780
0780
0780
0780
0000
0700
0700
0700
ENDCHAR
STARTCHAR uni1E38
ENCODING 7736
SWIDTH 602 0
DWIDTH 15 0
BBX 12 26 3 -4
BITMAP
FE00
FE00
FE00
0000
F000
F000
F000
F000
F000
F000
F000
F000
F000
F000
F000
F000
F000
F000
F000
FFF0
FFF0
FFF0
0000
0E00
0E00
0E00
ENDCHAR
STARTCHAR uni1E39
ENCODING 7737
SWIDTH 602 0
DWIDTH 15 0
BBX 9 27 1 -4
BITMAP
3F80
3F80
3F80
0000
FF80
FF80
FF80
0780
0780
0780
0780
0780
0780
0780
0780
0780
0780
0780
0780
0780
0780
0780
0780
0000
0700
0700
0700
ENDCHAR
STARTCHAR uni1E3A
ENCODING 7738
SWIDTH 602 0
DWIDTH 15 0
BBX 12 22 3 -4
BITMAP
F000
F000
F000
F000
F000
F000
F000
F000
F000
F000
F000
F000
F000
F000
F000
FFF0
FFF0
FFF0
0000
3F80
3F80
3F80
ENDCHAR
STARTCHAR uni1E3B
ENCODING 7739
SWIDTH 602 0
DWIDTH 15 0
BBX 10 23 1 -4
BITMAP
FF80
FF80
FF80
0780
0780
0780
0780
0780
0780
0780
0780
0780
0780
0780
0780
0780
0780
0780
0780
0000
1FC0
1FC0
1FC0
ENDCHAR
STARTCHAR uni1E3C
ENCODING 7740
SWIDTH 602 0
DWIDTH 15 0
BBX 12 23 3 -5
BITMAP
F000
F000
F000
F000
F000
F000
F000
F000
F000
F000
F000
F000
F000
F000
F000
FFF0
FFF0
FFF0
0000
0F00
1F80
1F80
39C0
ENDCHAR
STARTCHAR uni1E3D
ENCODING 7741
SWIDTH 602 0
DWIDTH 15 0
BBX 10 24 1 -5
BITMAP
FF80
FF80
FF80
0780
0780
0780
0780
0780
0780
0780
0780
0780
0780
0780
0780
0780
0780
0780
0780
0000
0F00
1F80
1F80
39C0
ENDCHAR
STARTCHAR uni1E3E
ENCODING 7742
SWIDTH 602 0
DWIDTH 15 0
BBX 14 23 1 0
BITMAP
01E0
03C0
0380
0700
0000
F87C
F87C
F8FC
F8FC
FCFC
FCFC
FDFC
FDFC
EFFC
EFFC
EFBC
EFBC
EFBC
EFBC
E7BC
E7BC
E73C
E03C
ENDCHAR
STARTCHAR uni1E3F
ENCODING 7743
SWIDTH 602 0
DWIDTH 15 0
BBX 14 18 0 0
BITMAP
01E0
03C0
0380
0700
0000
F338
F7BC
FFFC
F7BC
F7BC
F7BC
F7BC
F7BC
F7BC
F7BC
F7BC
F7BC
F7BC
ENDCHAR
STARTCHAR uni1E40
ENCODING 7744
SWIDTH 602 0
DWIDTH 15 0
BBX 14 22 1 0
BITMAP
0380
0380
0380
0000
F87C
F87C
F8FC
F8FC
FCFC
FCFC
FDFC
FDFC
EFFC
EFFC
EFBC
EFBC
EFBC
EFBC
E7BC
E7BC
E73C
E03C
ENDCHAR
STARTCHAR uni1E41
ENCODING 7745
SWIDTH 602 0
DWIDTH 15 0
BBX 14 17 0 0
BITMAP
0700
0700
0700
0000
F338
F7BC
FFFC
F7BC
F7BC
F7BC
F7BC
F7BC
F7BC
F7BC
F7BC
F7BC
F7BC
ENDCHAR
STARTCHAR uni1E42
ENCODING 7746
SWIDTH 602 0
DWIDTH 15 0
BBX 14 22 1 -4
BITMAP
F87C
F87C
F8FC
F8FC
FCFC
FCFC
FDFC
FDFC
EFFC
EFFC
EFBC
EFBC
EFBC
EFBC
E7BC
E7BC
E73C
E03C
0000
0380
0380
0380
ENDCHAR
STARTCHAR uni1E43
ENCODING 7747
SWIDTH 602 0
DWIDTH 15 0
BBX 14 17 0 -4
BITMAP
F338
F7BC
FFFC
F7BC
F7BC
F7BC
F7BC
F7BC
F7BC
F7BC
F7BC
F7BC
F7BC
0000
0380
0380
0380
ENDCHAR
STARTCHAR uni1E44
ENCODING 7748
SWIDTH 602 0
DWIDTH 15 0
BBX 12 22 1 0
BITMAP
0E00
0E00
0E00
0000
F070
F870
F870
FC70
FC70
FE70
FE70
FF70
EF70
EFF0
E7F0
E7F0
E3F0
E3F0
E1F0
E1F0
E1F0
E0F0
ENDCHAR
STARTCHAR uni1E45
ENCODING 7749
SWIDTH 602 0
DWIDTH 15 0
BBX 12 17 2 0
BITMAP
0E00
0E00
0E00
0000
F3C0
F7E0
FFF0
FFF0
F8F0
F0F0
F0F0
F0F0
F0F0
F0F0
F0F0
F0F0
F0F0
ENDCHAR
STARTCHAR uni1E46
ENCODING 7750
SWIDTH 602 0
DWIDTH 15 0
BBX 12 22 1 -4
BITMAP
F070
F870
F870
FC70
FC70
FE70
FE70
FF70
EF70
EFF0
E7F0
E7F0
E3F0
E3F0
E1F0
E1F0
E1F0
E0F0
0000
0700
0700
0700
ENDCHAR
STARTCHAR uni1E47
ENCODING 7751
SWIDTH 602 0
DWIDTH 15 0
BBX 12 17 2 -4
BITMAP
F3C0
F7E0
FFF0
FFF0
F8F0
F0F0
F0F0
F0F0
F0F0
F0F0
F0F0
F0F0
F0F0
0000
0700
0700
0700
ENDCHAR
STARTCHAR uni1E48
ENCODING 7752
SWIDTH 602 0
DWIDTH 15 0
BBX 12 22 1 -4
BITMAP
F070
F870
F870
FC70
FC70
FE70
FE70
FF70
EF70
EFF0
E7F0
E7F0
E3F0
E3F0
E1F0
E1F0
E1F0
E0F0
0000
1FC0
1FC0
1FC0
ENDCHAR
STARTCHAR uni1E49
ENCODING 7753
SWIDTH 602 0
DWIDTH 15 0
BBX 12 17 2 -4
BITMAP
F3C0
F7E0
FFF0
FFF0
F8F0
F0F0
F0F0
F0F0
F0F0
F0F0
F0F0
F0F0
F0F0
0000
1FC0
1FC0
1FC0
ENDCHAR
STARTCHAR uni1E4A
ENCODING 7754
SWIDTH 602 0
DWIDTH 15 0
BBX 12 23 1 -5
BITMAP
F070
F870
F870
FC70
FC70
FE70
FE70
FF70
EF70
EFF0
E7F0
E7F0
E3F0
E3F0
E1F0
E1F0
E1F0
E0F0
0000
0F00
1F80
1F80
39C0
ENDCHAR
STARTCHAR uni1E4B
ENCODING 7755
SWIDTH 602 0
DWIDTH 15 0
BBX 12 18 2 -5
BITMAP
F3C0
F7E0
FFF0
FFF0
F8F0
F0F0
F0F0
F0F0
F0F0
F0F0
F0F0
F0F0
F0F0
0000
0F00
1F80
1F80
39C0
ENDCHAR
STARTCHAR uni1E4C
ENCODING 7756
SWIDTH 602 0
DWIDTH 15 0
BBX 14 28 1 0
BITMAP
01E0
03C0
0380
0700
0000
0E60
1FE0
1FE0
19C0
0000
0FC0
1FE0
3FF0
7878
7878
F03C
F03C
F03C
F03C
F03C
F03C
F03C
F03C
7878
7878
3FF0
1FE0
0FC0
ENDCHAR
STARTCHAR uni1E4D
ENCODING 7757
SWIDTH 602 0
DWIDTH 15 0
BBX 14 23 0 0
BITMAP
01E0
03C0
0380
0700
0000
0E60
1FE0
1FE0
19C0
0000
0FC0
3FF0
7FF8
7878
F03C
F03C
F03C
F03C
F03C
7878
7FF8
3FF0
0FC0
ENDCHAR
STARTCHAR uni1E4E
ENCODING 7758
SWIDTH 602 0
DWIDTH 15 0
BBX 14 27 1 0
BITMAP
0EE0
0EE0
0EE0
0000
0E60
1FE0
1FE0
19C0
0000
0FC0
1FE0
3FF0
7878
7878
F03C
F03C
F03C
F03C
F03C
F03C
F03C
F03C
7878
7878
3FF0
1FE0
0FC0
ENDCHAR
STARTCHAR uni1E4F
ENCODING 7759
SWIDTH 602 0
DWIDTH 15 0
BBX 14 22 0 0
BITMAP
0EE0
0EE0
0EE0
0000
0E60
1FE0
1FE0
19C0
0000
0FC0
3FF0
7FF8
7878
F03C
F03C
F03C
F03C
F03C
7878
7FF8
3FF0
0FC0
ENDCHAR
STARTCHAR uni1E50
ENCODING 7760
SWIDTH 602 0
DWIDTH 15 0
BBX 14 27 1 0
BITMAP
0F00
0780
0380
01C0
0000
0FE0
0FE0
0FE0
0000
0FC0
1FE0
3FF0
7878
7878
F03C
F03C
F03C
F03C
F03C
F03C
F03C
F03C
7878
7878
3FF0
1FE0
0FC0
ENDCHAR
STARTCHAR uni1E51
ENCODING 7761
SWIDTH 602 0
DWIDTH 15 0
BBX 14 22 0 0
BITMAP
0F00
0780
0380
01C0
0000
0FE0
0FE0
0FE0
0000
0FC0
3FF0
7FF8
7878
F03C
F03C
F03C
F03C
F03C
7878
7FF8
3FF0
0FC0
ENDCHAR
STARTCHAR uni1E52
ENCODING 7762
SWIDTH 602 0
DWIDTH 15 0
BBX 14 27 1 0
BITMAP
01E0
03C0
0380
0700
0000
0FE0
0FE0
0FE0
0000
0FC0
1FE0
3FF0
7878
7878
F03C
F03C
F03C
F03C
F03C
F03C
F03C
F03C
7878
7878
3FF0
1FE0
0FC0
ENDCHAR
STARTCHAR uni1E53
ENCODING 7763
SWIDTH 602 0
DWIDTH 15 0
BBX 14 22 0 0
BITMAP
01E0
03C0
0380
0700
0000
0FE0
0FE0
0FE0
0000
0FC0
3FF0
7FF8
7878
F03C
F03C
F03C
F03C
F03C
7878
7FF8
3FF0
0FC0
ENDCHAR
STARTCHAR uni1E54
ENCODING 7764
SWIDTH 602 0
DWIDTH 15 0
BBX 13 23 2 0
BITMAP
03C0
0780
0700
0E00
0000
FFC0
FFF0
FFF0
F0F8
F078
F078
F078
F078
F0F0
FFF0
FFE0
FF80
F000
F000
F000
F000
F000
F000
ENDCHAR
STARTCHAR uni1E55
ENCODING 7765
SWIDTH 602 0
DWIDTH 15 0
BBX 13 23 1 -5
BITMAP
03C0
0780
0700
0E00
0000
F3C0
F7F0
FFF0
FFF8
F8F8
F078
F078
F078
F078
F8F0
FFF0
FFE0
F7C0
F000
F000
F000
F000
F000
ENDCHAR
STARTCHAR uni1E56
ENCODING 7766
SWIDTH 602 0
DWIDTH 15 0
BBX 13 22 2 0
BITMAP
0700
0700
0700
0000
FFC0
FFF0
FFF0
F0F8
F078
F078
F078
F078
F0F0
FFF0
FFE0
FF80
F000
F000
F000
F000
F000
F000
ENDCHAR
STARTCHAR uni1E57
ENCODING 7767
SWIDTH 602 0
DWIDTH 15 0
BBX 13 22 1 -5
BITMAP
0700
0700
0700
0000
F3C0
F7F0
FFF0
FFF8
F8F8
F078
F078
F078
F078
F8F0
FFF0
FFE0
F7C0
F000
F000
F000
F000
F000
ENDCHAR
STARTCHAR uni1E58
ENCODING 7768
SWIDTH 602 0
DWIDTH 15 0
BBX 13 22 2 0
BITMAP
0E00
0E00
0E00
0000
FFC0
FFE0
FFF0
F1F0
F0F0
F0F0
F0F0
F1E0
F3C0
FF80
FF80
FFC0
F7C0
F3E0
F1E0
F1F0
F0F0
F078
ENDCHAR
STARTCHAR uni1E59
ENCODING 7769
SWIDTH 602 0
DWIDTH 15 0
BBX 11 17 3 0
BITMAP
0E00
0E00
0E00
0000
F3E0
F7E0
FFE0
FFE0
FCE0
F800
F000
F000
F000
F000
F000
F000
F000
ENDCHAR
STARTCHAR uni1E5A
ENCODING 7770
SWIDTH 602 0
DWIDTH 15 0
BBX 13 22 2 -4
BITMAP
FFC0
FFE0
FFF0
F1F0
F0F0
F0F0
F0F0
F1E0
F3C0
FF80
FF80
FFC0
F7C0
F3E0
F1E0
F1F0
F0F0
F078
0000
0700
0700
0700
ENDCHAR
STARTCHAR uni1E5B
ENCODING 7771
SWIDTH 602 0
DWIDTH 15 0
BBX 11 17 3 -4
BITMAP
F3E0
F7E0
FFE0
FFE0
FCE0
F800
F000
F000
F000
F000
F000
F000
F000
0000
3800
3800
3800
ENDCHAR
STARTCHAR uni1E5C
ENCODING 7772
SWIDTH 602 0
DWIDTH 15 0
BBX 13 26 2 -4
BITMAP
1FC0
1FC0
1FC0
0000
FFC0
FFE0
FFF0
F1F0
F0F0
F0F0
F0F0
F1E0
F3C0
FF80
FF80
FFC0
F7C0
F3E0
F1E0
F1F0
F0F0
F078
0000
0700
0700
0700
ENDCHAR
STARTCHAR uni1E5D
ENCODING 7773
SWIDTH 602 0
DWIDTH 15 0
BBX 11 21 3 -4
BITMAP
3F80
3F80
3F80
0000
F3E0
F7E0
FFE0
FFE0
FCE0
F800
F000
F000
F000
F000
F000
F000
F000
0000
3800
3800
3800
ENDCHAR
STARTCHAR uni1E5E
ENCODING 7774
SWIDTH 602 0
DWIDTH 15 0
BBX 13 22 2 -4
BITMAP
FFC0
FFE0
FFF0
F1F0
F0F0
F0F0
F0F0
F1E0
F3C0
FF80
FF80
FFC0
F7C0
F3E0
F1E0
F1F0
F0F0
F078
0000
1FC0
1FC0
1FC0
ENDCHAR
STARTCHAR uni1E5F
ENCODING 7775
SWIDTH 602 0
DWIDTH 15 0
BBX 11 17 3 -4
BITMAP
F3E0
F7E0
FFE0
FFE0
FCE0
F800
F000
F000
F000
F000
F000
F000
F000
0000
FE00
FE00
FE00
ENDCHAR
STARTCHAR uni1E60
ENCODING 7776
SWIDTH 602 0
DWIDTH 15 0
BBX 13 22 1 0
BITMAP
0700
0700
0700
0000
1FE0
7FF0
7FF0
F830
F000
F800
FE00
7F80
3FC0
0FF0
03F0
00F8
0078
0078
C0F8
FFF0
FFE0
7F80
ENDCHAR
STARTCHAR uni1E61
ENCODING 7777
SWIDTH 602 0
DWIDTH 15 0
BBX 12 17 2 0
BITMAP
0E00
0E00
0E00
0000
1FC0
7FE0
FFE0
F020
FE00
FFC0
7FE0
1FF0
03F0
C1F0
FFF0
FFE0
7F80
ENDCHAR
STARTCHAR uni1E62
ENCODING 7778
SWIDTH 602 0
DWIDTH 15 0
BBX 13 22 1 -4
BITMAP
1FE0
7FF0
7FF0
F830
F000
F800
FE00
7F80
3FC0
0FF0
03F0
00F8
0078
0078
C0F8
FFF0
FFE0
7F80
0000
0700
0700
0700
ENDCHAR
STARTCHAR uni1E63
ENCODING 7779
SWIDTH 602 0
DWIDTH 15 0
BBX 12 17 2 -4
BITMAP
1FC0
7FE0
FFE0
F020
FE00
FFC0
7FE0
1FF0
03F0
C1F0
FFF0
FFE0
7F80
0000
0E00
0E00
0E00
ENDCHAR
STARTCHAR uni1E64
ENCODING 7780
SWIDTH 602 0
DWIDTH 15 0
BBX 13 27 1 0
BITMAP
0700
0700
0700
0000
03C0
0780
0700
0E00
0000
1FE0
7FF0
7FF0
F830
F000
F800
FE00
7F80
3FC0
0FF0
03F0
00F8
0078
0078
C0F8
FFF0
FFE0
7F80
ENDCHAR
STARTCHAR uni1E65
ENCODING 7781
SWIDTH 602 0
DWIDTH 15 0
BBX 12 22 2 0
BITMAP
0E00
0E00
0E00
0000
0780
0F00
0E00
1C00
0000
1FC0
7FE0
FFE0
F020
FE00
FFC0
7FE0
1FF0
03F0
C1F0
FFF0
FFE0
7F80
ENDCHAR
STARTCHAR uni1E66
ENCODING 7782
SWIDTH 602 0
DWIDTH 15 0
BBX 13 27 1 0
BITMAP
0700
0700
0700
0000
39C0
1F80
1F80
0F00
0000
1FE0
7FF0
7FF0
F830
F000
F800
FE00
7F80
3FC0
0FF0
03F0
00F8
0078
0078
C0F8
FFF0
FFE0
7F80
ENDCHAR
STARTCHAR uni1E67
ENCODING 7783
SWIDTH 602 0
DWIDTH 15 0
BBX 12 22 2 0
BITMAP
0700
0700
0700
0000
39C0
1F80
1F80
0F00
0000
1FC0
7FE0
FFE0
F020
FE00
FFC0
7FE0
1FF0
03F0
C1F0
FFF0
FFE0
7F80
ENDCHAR
STARTCHAR uni1E68
ENCODING 7784
SWIDTH 602 0
DWIDTH 15 0
BBX 13 26 1 -4
BITMAP
0E00
0E00
0E00
0000
1FE0
7FF0
7FF0
F830
F000
F800
FE00
7F80
3FC0
0FF0
03F0
00F8
0078
0078
C0F8
FFF0
FFE0
7F80
0000
0700
0700
0700
ENDCHAR
STARTCHAR uni1E69
ENCODING 7785
SWIDTH 602 0
DWIDTH 15 0
BBX 12 21 2 -4
BITMAP
0E00
0E00
0E00
0000
1FC0
7FE0
FFE0
F020
FE00
FFC0
7FE0
1FF0
03F0
C1F0
FFF0
FFE0
7F80
0000
0E00
0E00
0E00
ENDCHAR
STARTCHAR uni1E6A
ENCODING 7786
SWIDTH 602 0
DWIDTH 15 0
BBX 14 22 1 0
BITMAP
0380
0380
0380
0000
FFFC
FFFC
FFFC
0780
0780
0780
0780
0780
0780
0780
0780
0780
0780
0780
0780
0780
0780
0780
ENDCHAR
STARTCHAR uni1E6B
ENCODING 7787
SWIDTH 602 0
DWIDTH 15 0
BBX 12 21 2 0
BITMAP
0E00
0E00
0E00
0000
0E00
1E00
1E00
1E00
FFF0
FFF0
FFF0
1E00
1E00
1E00
1E00
1E00
1E00
1E10
1FF0
0FF0
07E0
ENDCHAR
STARTCHAR uni1E6C
ENCODING 7788
SWIDTH 602 0
DWIDTH 15 0
BBX 14 22 1 -4
BITMAP
FFFC
FFFC
FFFC
0780
0780
0780
0780
0780
0780
0780
0780
0780
0780
0780
0780
0780
0780
0780
0000
0380
0380
0380
ENDCHAR
STARTCHAR uni1E6D
ENCODING 7789
SWIDTH 602 0
DWIDTH 15 0
BBX 12 21 2 -4
BITMAP
0E00
1E00
1E00
1E00
FFF0
FFF0
FFF0
1E00
1E00
1E00
1E00
1E00
1E00
1E10
1FF0
0FF0
07E0
0000
0700
0700
0700
ENDCHAR
STARTCHAR uni1E6E
ENCODING 7790
SWIDTH 602 0
DWIDTH 15 0
BBX 14 22 1 -4
BITMAP
FFFC
FFFC
FFFC
0780
0780
0780
0780
0780
0780
0780
0780
0780
0780
0780
0780
0780
0780
0780
0000
0FE0
0FE0
0FE0
ENDCHAR
STARTCHAR uni1E6F
ENCODING 7791
SWIDTH 602 0
DWIDTH 15 0
BBX 12 21 2 -4
BITMAP
0E00
1E00
1E00
1E00
FFF0
FFF0
FFF0
1E00
1E00
1E00
1E00
1E00
1E00
1E10
1FF0
0FF0
07E0
0000
1FC0
1FC0
1FC0
ENDCHAR
STARTCHAR uni1E70
ENCODING 7792
SWIDTH 602 0
DWIDTH 15 0
BBX 14 23 1 -5
BITMAP
FFFC
FFFC
FFFC
0780
0780
0780
0780
0780
0780
0780
0780
0780
0780
0780
0780
0780
0780
0780
0000
0780
0FC0
0FC0
1CE0
ENDCHAR
STARTCHAR uni1E71
ENCODING 7793
SWIDTH 602 0
DWIDTH 15 0
BBX 12 22 2 -5
BITMAP
0E00
1E00
1E00
1E00
FFF0
FFF0
FFF0
1E00
1E00
1E00
1E00
1E00
1E00
1E10
1FF0
0FF0
07E0
0000
0780
0FC0
0FC0
1CE0
ENDCHAR
STARTCHAR uni1E72
ENCODING 7794
SWIDTH 602 0
DWIDTH 15 0
BBX 12 22 1 -4
BITMAP
F0F0
F0F0
F0F0
F0F0
F0F0
F0F0
F0F0
F0F0
F0F0
F0F0
F0F0
F0F0
F0F0
F0F0
F9F0
7FE0
7FE0
1F80
0000
1DC0
1DC0
1DC0
ENDCHAR
STARTCHAR uni1E73
ENCODING 7795
SWIDTH 602 0
DWIDTH 15 0
BBX 12 17 1 -4
BITMAP
F0F0
F0F0
F0F0
F0F0
F0F0
F0F0
F0F0
F0F0
F1F0
FFF0
FFF0
7EF0
3CF0
0000
1DC0
1DC0
1DC0
ENDCHAR
STARTCHAR uni1E74
ENCODING 7796
SWIDTH 602 0
DWIDTH 15 0
BBX 12 23 1 -5
BITMAP
F0F0
F0F0
F0F0
F0F0
F0F0
F0F0
F0F0
F0F0
F0F0
F0F0
F0F0
F0F0
F0F0
F0F0
F9F0
7FE0
7FE0
1F80
0000
1CC0
3FC0
3FC0
3380
ENDCHAR
STARTCHAR uni1E75
ENCODING 7797
SWIDTH 602 0
DWIDTH 15 0
BBX 12 18 1 -5
BITMAP
F0F0
F0F0
F0F0
F0F0
F0F0
F0F0
F0F0
F0F0
F1F0
FFF0
FFF0
7EF0
3CF0
0000
1CC0
3FC0
3FC0
3380
ENDCHAR
STARTCHAR uni1E76
ENCODING 7798
SWIDTH 602 0
DWIDTH 15 0
BBX 12 23 1 -5
BITMAP
F0F0
F0F0
F0F0
F0F0
F0F0
F0F0
F0F0
F0F0
F0F0
F0F0
F0F0
F0F0
F0F0
F0F0
F9F0
7FE0
7FE0
1F80
0000
0F00
1F80
1F80
39C0
ENDCHAR
STARTCHAR uni1E77
ENCODING 7799
SWIDTH 602 0
DWIDTH 15 0
BBX 12 18 1 -5
BITMAP
F0F0
F0F0
F0F0
F0F0
F0F0
F0F0
F0F0
F0F0
F1F0
FFF0
FFF0
7EF0
3CF0
0000
0F00
1F80
1F80
39C0
ENDCHAR
STARTCHAR uni1E78
ENCODING 7800
SWIDTH 602 0
DWIDTH 15 0
BBX 12 28 1 0
BITMAP
03C0
0780
0700
0E00
0000
1CC0
3FC0
3FC0
3380
0000
F0F0
F0F0
F0F0
F0F0
F0F0
F0F0
F0F0
F0F0
F0F0
F0F0
F0F0
F0F0
F0F0
F0F0
F9F0
7FE0
7FE0
1F80
ENDCHAR
STARTCHAR uni1E79
ENCODING 7801
SWIDTH 602 0
DWIDTH 15 0
BBX 12 23 1 0
BITMAP
03C0
0780
0700
0E00
0000
1CC0
3FC0
3FC0
3380
0000
F0F0
F0F0
F0F0
F0F0
F0F0
F0F0
F0F0
F0F0
F1F0
FFF0
FFF0
7EF0
3CF0
ENDCHAR
STARTCHAR uni1E7A
ENCODING 7802
SWIDTH 602 0
DWIDTH 15 0
BBX 12 26 1 0
BITMAP
1DC0
1DC0
1DC0
0000
1FC0
1FC0
1FC0
0000
F0F0
F0F0
F0F0
F0F0
F0F0
F0F0
F0F0
F0F0
F0F0
F0F0
F0F0
F0F0
F0F0
F0F0
F9F0
7FE0
7FE0
1F80
ENDCHAR
STARTCHAR uni1E7B
ENCODING 7803
SWIDTH 602 0
DWIDTH 15 0
BBX 12 21 1 0
BITMAP
1DC0
1DC0
1DC0
0000
1FC0
1FC0
1FC0
0000
F0F0
F0F0
F0F0
F0F0
F0F0
F0F0
F0F0
F0F0
F1F0
FFF0
FFF0
7EF0
3CF0
ENDCHAR
STARTCHAR uni1E7C
ENCODING 7804
SWIDTH 602 0
DWIDTH 15 0
BBX 15 23 0 0
BITMAP
0E60
1FE0
1FE0
19C0
0000
F00E
F80E
781C
781C
781C
3C38
3C38
3C38
3E70
1E70
1E70
1EE0
0FE0
0FE0
0FE0
07C0
07C0
07C0
ENDCHAR
STARTCHAR uni1E7D
ENCODING 7805
SWIDTH 602 0
DWIDTH 15 0
BBX 14 18 1 0
BITMAP
0E60
1FE0
1FE0
19C0
0000
F01C
F83C
7838
7838
3C70
3C70
3EF0
1EE0
1EE0
0FC0
0FC0
0FC0
0780
ENDCHAR
STARTCHAR uni1E7E
ENCODING 7806
SWIDTH 602 0
DWIDTH 15 0
BBX 15 22 0 -4
BITMAP
F00E
F80E
781C
781C
781C
3C38
3C38
3C38
3E70
1E70
1E70
1EE0
0FE0
0FE0
0FE0
07C0
07C0
07C0
0000
0380
0380
0380
ENDCHAR
STARTCHAR uni1E7F
ENCODING 7807
SWIDTH 602 0
DWIDTH 15 0
BBX 14 17 1 -4
BITMAP
F01C
F83C
7838
7838
3C70
3C70
3EF0
1EE0
1EE0
0FC0
0FC0
0FC0
0780
0000
0380
0380
0380
ENDCHAR
STARTCHAR Wgrave
ENCODING 7808
SWIDTH 602 0
DWIDTH 15 0
BBX 15 23 0 0
BITMAP
0F00
0780
0380
01C0
0000
F006
F3C6
F3C6
F3CE
73CE
7FCC
7FEC
7FEC
7FEC
7FEC
7EFC
3EFC
3EFC
3EFC
3EF8
3C78
3C78
3C78
ENDCHAR
STARTCHAR wgrave
ENCODING 7809
SWIDTH 602 0
DWIDTH 15 0
BBX 15 18 0 0
BITMAP
0F00
0780
0380
01C0
0000
F00E
F3CE
F3CE
7BCC
7FCC
7FEC
7FFC
7FFC
7EFC
3E78
3E78
3C78
3C38
ENDCHAR
STARTCHAR Wacute
ENCODING 7810
SWIDTH 602 0
DWIDTH 15 0
BBX 15 23 0 0
BITMAP
01E0
03C0
0380
0700
0000
F006
F3C6
F3C6
F3CE
73CE
7FCC
7FEC
7FEC
7FEC
7FEC
7EFC
3EFC
3EFC
3EFC
3EF8
3C78
3C78
3C78
ENDCHAR
STARTCHAR wacute
ENCODING 7811
SWIDTH 602 0
DWIDTH 15 0
BBX 15 18 0 0
BITMAP
01E0
03C0
0380
0700
0000
F00E
F3CE
F3CE
7BCC
7FCC
7FEC
7FFC
7FFC
7EFC
3E78
3E78
3C78
3C38
ENDCHAR
STARTCHAR Wdieresis
ENCODING 7812
SWIDTH 602 0
DWIDTH 15 0
BBX 15 22 0 0
BITMAP
0EE0
0EE0
0EE0
0000
F006
F3C6
F3C6
F3CE
73CE
7FCC
7FEC
7FEC
7FEC
7FEC
7EFC
3EFC
3EFC
3EFC
3EF8
3C78
3C78
3C78
ENDCHAR
STARTCHAR wdieresis
ENCODING 7813
SWIDTH 602 0
DWIDTH 15 0
BBX 15 17 0 0
BITMAP
0EE0
0EE0
0EE0
0000
F00E
F3CE
F3CE
7BCC
7FCC
7FEC
7FFC
7FFC
7EFC
3E78
3E78
3C78
3C38
ENDCHAR
STARTCHAR uni1E86
ENCODING 7814
SWIDTH 602 0
DWIDTH 15 0
BBX 15 22 0 0
BITMAP
0380
0380
0380
0000
F006
F3C6
F3C6
F3CE
73CE
7FCC
7FEC
7FEC
7FEC
7FEC
7EFC
3EFC
3EFC
3EFC
3EF8
3C78
3C78
3C78
ENDCHAR
STARTCHAR uni1E87
ENCODING 7815
SWIDTH 602 0
DWIDTH 15 0
BBX 15 17 0 0
BITMAP
0380
0380
0380
0000
F00E
F3CE
F3CE
7BCC
7FCC
7FEC
7FFC
7FFC
7EFC
3E78
3E78
3C78
3C38
ENDCHAR
STARTCHAR uni1E88
ENCODING 7816
SWIDTH 602 0
DWIDTH 15 0
BBX 15 22 0 -4
BITMAP
F006
F3C6
F3C6
F3CE
73CE
7FCC
7FEC
7FEC
7FEC
7FEC
7EFC
3EFC
3EFC
3EFC
3EF8
3C78
3C78
3C78
0000
0380
0380
0380
ENDCHAR
STARTCHAR uni1E89
ENCODING 7817
SWIDTH 602 0
DWIDTH 15 0
BBX 15 17 0 -4
BITMAP
F00E
F3CE
F3CE
7BCC
7FCC
7FEC
7FFC
7FFC
7EFC
3E78
3E78
3C78
3C38
0000
0380
0380
0380
ENDCHAR
STARTCHAR uni1E8A
ENCODING 7818
SWIDTH 602 0
DWIDTH 15 0
BBX 14 22 1 0
BITMAP
0700
0700
0700
0000
F83C
7838
7C70
3C70
3EE0
1FE0
1FC0
0FC0
0780
07C0
0FC0
1FE0
1DE0
3DF0
38F0
78F8
F078
E07C
ENDCHAR
STARTCHAR uni1E8B
ENCODING 7819
SWIDTH 602 0
DWIDTH 15 0
BBX 14 17 1 0
BITMAP
0700
0700
0700
0000
F83C
7C78
3EF0
1FE0
1FC0
0FC0
0FC0
0FC0
1FE0
3DF0
79F0
70F8
F07C
ENDCHAR
STARTCHAR uni1E8C
ENCODING 7820
SWIDTH 602 0
DWIDTH 15 0
BBX 14 22 1 0
BITMAP
1DC0
1DC0
1DC0
0000
F83C
7838
7C70
3C70
3EE0
1FE0
1FC0
0FC0
0780
07C0
0FC0
1FE0
1DE0
3DF0
38F0
78F8
F078
E07C
ENDCHAR
STARTCHAR uni1E8D
ENCODING 7821
SWIDTH 602 0
DWIDTH 15 0
BBX 14 17 1 0
BITMAP
1DC0
1DC0
1DC0
0000
F83C
7C78
3EF0
1FE0
1FC0
0FC0
0FC0
0FC0
1FE0
3DF0
79F0
70F8
F07C
ENDCHAR
STARTCHAR uni1E8E
ENCODING 7822
SWIDTH 602 0
DWIDTH 15 0
BBX 16 22 0 0
BITMAP
0380
0380
0380
0000
F80F
780E
7C1E
3C1C
3E3C
1F38
0F70
0FF0
07E0
07E0
03C0
03C0
03C0
03C0
03C0
03C0
03C0
03C0
ENDCHAR
STARTCHAR uni1E8F
ENCODING 7823
SWIDTH 602 0
DWIDTH 15 0
BBX 14 22 1 -5
BITMAP
0700
0700
0700
0000
F01C
F83C
7838
7C78
3C70
3E70
1EE0
1FE0
0FC0
0FC0
07C0
0780
0780
0700
0F00
7E00
7E00
7800
ENDCHAR
STARTCHAR uni1E90
ENCODING 7824
SWIDTH 602 0
DWIDTH 15 0
BBX 13 23 1 0
BITMAP
0780
0FC0
0FC0
1CE0
0000
7FF8
7FF8
7FF8
00F8
01F0
03E0
03E0
07C0
0F80
0F80
1F00
3E00
3E00
7C00
F800
FFF8
FFF8
FFF8
ENDCHAR
STARTCHAR uni1E91
ENCODING 7825
SWIDTH 602 0
DWIDTH 15 0
BBX 12 18 2 0
BITMAP
0F00
1F80
1F80
39C0
0000
FFF0
FFF0
FFF0
03F0
07E0
0FC0
1F80
3F00
7E00
FC00
FFF0
FFF0
FFF0
ENDCHAR
STARTCHAR uni1E92
ENCODING 7826
SWIDTH 602 0
DWIDTH 15 0
BBX 13 22 1 -4
BITMAP
7FF8
7FF8
7FF8
00F8
01F0
03E0
03E0
07C0
0F80
0F80
1F00
3E00
3E00
7C00
F800
FFF8
FFF8
FFF8
0000
0700
0700
0700
ENDCHAR
STARTCHAR uni1E93
ENCODING 7827
SWIDTH 602 0
DWIDTH 15 0
BBX 12 17 2 -4
BITMAP
FFF0
FFF0
FFF0
03F0
07E0
0FC0
1F80
3F00
7E00
FC00
FFF0
FFF0
FFF0
0000
0E00
0E00
0E00
ENDCHAR
STARTCHAR uni1E94
ENCODING 7828
SWIDTH 602 0
DWIDTH 15 0
BBX 13 22 1 -4
BITMAP
7FF8
7FF8
7FF8
00F8
01F0
03E0
03E0
07C0
0F80
0F80
1F00
3E00
3E00
7C00
F800
FFF8
FFF8
FFF8
0000
1FC0
1FC0
1FC0
ENDCHAR
STARTCHAR uni1E95
ENCODING 7829
SWIDTH 602 0
DWIDTH 15 0
BBX 12 17 2 -4
BITMAP
FFF0
FFF0
FFF0
03F0
07E0
0FC0
1F80
3F00
7E00
FC00
FFF0
FFF0
FFF0
0000
3F80
3F80
3F80
ENDCHAR
STARTCHAR uni1E96
ENCODING 7830
SWIDTH 602 0
DWIDTH 15 0
BBX 12 23 2 -4
BITMAP
F000
F000
F000
F000
F000
F000
F3C0
F7E0
FFF0
FFF0
F8F0
F0F0
F0F0
F0F0
F0F0
F0F0
F0F0
F0F0
F0F0
0000
1FC0
1FC0
1FC0
ENDCHAR
STARTCHAR uni1E97
ENCODING 7831
SWIDTH 602 0
DWIDTH 15 0
BBX 12 21 2 0
BITMAP
3B80
3B80
3B80
0000
0E00
1E00
1E00
1E00
FFF0
FFF0
FFF0
1E00
1E00
1E00
1E00
1E00
1E00
1E10
1FF0
0FF0
07E0
ENDCHAR
STARTCHAR uni1E98
ENCODING 7832
SWIDTH 602 0
DWIDTH 15 0
BBX 15 18 0 0
BITMAP
0300
0480
0480
0300
0000
F00E
F3CE
F3CE
7BCC
7FCC
7FEC
7FFC
7FFC
7EFC
3E78
3E78
3C78
3C38
ENDCHAR
STARTCHAR uni1E99
ENCODING 7833
SWIDTH 602 0
DWIDTH 15 0
BBX 14 23 1 -5
BITMAP
0300
0480
0480
0300
0000
F01C
F83C
7838
7C78
3C70
3E70
1EE0
1FE0
0FC0
0FC0
07C0
0780
0780
0700
0F00
7E00
7E00
7800
ENDCHAR
STARTCHAR uni1EA0
ENCODING 7840
SWIDTH 602 0
DWIDTH 15 0
BBX 15 22 0 -4
BITMAP
03C0
07C0
07E0
07E0
0FE0
0FF0
0EF0
1CF0
1CF0
1C78
3878
3FF8
3FFC
7FFC
703C
703C
E01E
E01E
0000
0380
0380
0380
ENDCHAR
STARTCHAR uni1EA1
ENCODING 7841
SWIDTH 602 0
DWIDTH 15 0
BBX 13 17 1 -4
BITMAP
1FC0
7FE0
7FF0
41F0
00F0
1FF0
7FF0
FFF0
F0F0
F1F0
FFF0
7FF8
3E78
0000
0700
0700
0700
ENDCHAR
STARTCHAR uni1EA4
ENCODING 7844
SWIDTH 602 0
DWIDTH 15 0
BBX 15 28 0 0
BITMAP
01E0
03C0
0380
0700
0000
0780
0FC0
0FC0
1CE0
0000
03C0
07C0
07E0
07E0
0FE0
0FF0
0EF0
1CF0
1CF0
1C78
3878
3FF8
3FFC
7FFC
703C
703C
E01E
E01E
ENDCHAR
STARTCHAR uni1EA5
ENCODING 7845
SWIDTH 602 0
DWIDTH 15 0
BBX 13 23 1 0
BITMAP
03C0
0780
0700
0E00
0000
0F00
1F80
1F80
39C0
0000
1FC0
7FE0
7FF0
41F0
00F0
1FF0
7FF0
FFF0
F0F0
F1F0
FFF0
7FF8
3E78
ENDCHAR
STARTCHAR uni1EA6
ENCODING 7846
SWIDTH 602 0
DWIDTH 15 0
BBX 15 28 0 0
BITMAP
0F00
0780
0380
01C0
0000
0780
0FC0
0FC0
1CE0
0000
03C0
07C0
07E0
07E0
0FE0
0FF0
0EF0
1CF0
1CF0
1C78
3878
3FF8
3FFC
7FFC
703C
703C
E01E
E01E
ENDCHAR
STARTCHAR uni1EA7
ENCODING 7847
SWIDTH 602 0
DWIDTH 15 0
BBX 13 23 1 0
BITMAP
1E00
0F00
0700
0380
0000
0F00
1F80
1F80
39C0
0000
1FC0
7FE0
7FF0
41F0
00F0
1FF0
7FF0
FFF0
F0F0
F1F0
FFF0
7FF8
3E78
ENDCHAR
STARTCHAR uni1EAA
ENCODING 7850
SWIDTH 602 0
DWIDTH 15 0
BBX 15 28 0 0
BITMAP
0E60
1FE0
1FE0
19C0
0000
0780
0FC0
0FC0
1CE0
0000
03C0
07C0
07E0
07E0
0FE0
0FF0
0EF0
1CF0
1CF0
1C78
3878
3FF8
3FFC
7FFC
703C
703C
E01E
E01E
ENDCHAR
STARTCHAR uni1EAB
ENCODING 7851
SWIDTH 602 0
DWIDTH 15 0
BBX 13 23 1 0
BITMAP
1CC0
3FC0
3FC0
3380
0000
0F00
1F80
1F80
39C0
0000
1FC0
7FE0
7FF0
41F0
00F0
1FF0
7FF0
FFF0
F0F0
F1F0
FFF0
7FF8
3E78
ENDCHAR
STARTCHAR uni1EAC
ENCODING 7852
SWIDTH 602 0
DWIDTH 15 0
BBX 15 27 0 -4
BITMAP
03C0
07E0
07E0
0E70
0000
03C0
07C0
07E0
07E0
0FE0
0FF0
0EF0
1CF0
1CF0
1C78
3878
3FF8
3FFC
7FFC
703C
703C
E01E
E01E
0000
0380
0380
0380
ENDCHAR
STARTCHAR uni1EAD
ENCODING 7853
SWIDTH 602 0
DWIDTH 15 0
BBX 13 22 1 -4
BITMAP
0780
0FC0
0FC0
1CE0
0000
1FC0
7FE0
7FF0
41F0
00F0
1FF0
7FF0
FFF0
F0F0
F1F0
FFF0
7FF8
3E78
0000
0700
0700
0700
ENDCHAR
STARTCHAR uni1EAE
ENCODING 7854
SWIDTH 602 0
DWIDTH 15 0
BBX 15 28 0 0
BITMAP
00F0
01E0
01C0
0380
0000
0C30
0FF0
07E0
03C0
0000
03C0
07C0
07E0
07E0
0FE0
0FF0
0EF0
1CF0
1CF0
1C78
3878
3FF8
3FFC
7FFC
703C
703C
E01E
E01E
ENDCHAR
STARTCHAR uni1EAF
ENCODING 7855
SWIDTH 602 0
DWIDTH 15 0
BBX 13 23 1 0
BITMAP
01E0
03C0
0380
0700
0000
1860
1FE0
0FC0
0780
0000
1FC0
7FE0
7FF0
41F0
00F0
1FF0
7FF0
FFF0
F0F0
F1F0
FFF0
7FF8
3E78
ENDCHAR
STARTCHAR uni1EB0
ENCODING 7856
SWIDTH 602 0
DWIDTH 15 0
BBX 15 28 0 0
BITMAP
0F00
0780
0380
01C0
0000
0C30
0FF0
07E0
03C0
0000
03C0
07C0
07E0
07E0
0FE0
0FF0
0EF0
1CF0
1CF0
1C78
3878
3FF8
3FFC
7FFC
703C
703C
E01E
E01E
ENDCHAR
STARTCHAR uni1EB1
ENCODING 7857
SWIDTH 602 0
DWIDTH 15 0
BBX 13 23 1 0
BITMAP
1E00
0F00
0700
0380
0000
1860
1FE0
0FC0
0780
0000
1FC0
7FE0
7FF0
41F0
00F0
1FF0
7FF0
FFF0
F0F0
F1F0
FFF0
7FF8
3E78
ENDCHAR
STARTCHAR uni1EB4
ENCODING 7860
SWIDTH 602 0
DWIDTH 15 0
BBX 15 28 0 0
BITMAP
0730
0FF0
0FF0
0CE0
0000
0C30
0FF0
07E0
03C0
0000
03C0
07C0
07E0
07E0
0FE0
0FF0
0EF0
1CF0
1CF0
1C78
3878
3FF8
3FFC
7FFC
703C
703C
E01E
E01E
ENDCHAR
STARTCHAR uni1EB5
ENCODING 7861
SWIDTH 602 0
DWIDTH 15 0
BBX 13 23 1 0
BITMAP
0E60
1FE0
1FE0
19C0
0000
1860
1FE0
0FC0
0780
0000
1FC0
7FE0
7FF0
41F0
00F0
1FF0
7FF0
FFF0
F0F0
F1F0
FFF0
7FF8
3E78
ENDCHAR
STARTCHAR uni1EB6
ENCODING 7862
SWIDTH 602 0
DWIDTH 15 0
BBX 15 27 0 -4
BITMAP
0C30
0FF0
07E0
03C0
0000
03C0
07C0
07E0
07E0
0FE0
0FF0
0EF0
1CF0
1CF0
1C78
3878
3FF8
3FFC
7FFC
703C
703C
E01E
E01E
0000
0380
0380
0380
ENDCHAR
STARTCHAR uni1EB7
ENCODING 7863
SWIDTH 602 0
DWIDTH 15 0
BBX 13 22 1 -4
BITMAP
1860
1FE0
0FC0
0780
0000
1FC0
7FE0
7FF0
41F0
00F0
1FF0
7FF0
FFF0
F0F0
F1F0
FFF0
7FF8
3E78
0000
0700
0700
0700
ENDCHAR
STARTCHAR uni1EB8
ENCODING 7864
SWIDTH 602 0
DWIDTH 15 0
BBX 12 22 2 -4
BITMAP
FFE0
FFE0
FFE0
F000
F000
F000
F000
FFC0
FFC0
FFC0
F000
F000
F000
F000
F000
FFF0
FFF0
FFF0
0000
0E00
0E00
0E00
ENDCHAR
STARTCHAR uni1EB9
ENCODING 7865
SWIDTH 602 0
DWIDTH 15 0
BBX 13 17 1 -4
BITMAP
0FC0
3FE0
7FF0
7870
F078
FFF8
FFF8
FFF8
F000
7808
7FF8
3FF8
0FE0
0000
0700
0700
0700
ENDCHAR
STARTCHAR uni1EBC
ENCODING 7868
SWIDTH 602 0
DWIDTH 15 0
BBX 12 23 2 0
BITMAP
3980
7F80
7F80
6700
0000
FFE0
FFE0
FFE0
F000
F000
F000
F000
FFC0
FFC0
FFC0
F000
F000
F000
F000
F000
FFF0
FFF0
FFF0
ENDCHAR
STARTCHAR uni1EBD
ENCODING 7869
SWIDTH 602 0
DWIDTH 15 0
BBX 13 18 1 0
BITMAP
0E60
1FE0
1FE0
19C0
0000
0FC0
3FE0
7FF0
7870
F078
FFF8
FFF8
FFF8
F000
7808
7FF8
3FF8
0FE0
ENDCHAR
STARTCHAR uni1EBE
ENCODING 7870
SWIDTH 602 0
DWIDTH 15 0
BBX 12 28 2 0
BITMAP
03C0
0780
0700
0E00
0000
0F00
1F80
1F80
39C0
0000
FFE0
FFE0
FFE0
F000
F000
F000
F000
FFC0
FFC0
FFC0
F000
F000
F000
F000
F000
FFF0
FFF0
FFF0
ENDCHAR
STARTCHAR uni1EBF
ENCODING 7871
SWIDTH 602 0
DWIDTH 15 0
BBX 13 23 1 0
BITMAP
03C0
0780
0700
0E00
0000
0F00
1F80
1F80
39C0
0000
0FC0
3FE0
7FF0
7870
F078
FFF8
FFF8
FFF8
F000
7808
7FF8
3FF8
0FE0
ENDCHAR
STARTCHAR uni1EC0
ENCODING 7872
SWIDTH 602 0
DWIDTH 15 0
BBX 12 28 2 0
BITMAP
3C00
1E00
0E00
0700
0000
0F00
1F80
1F80
39C0
0000
FFE0
FFE0
FFE0
F000
F000
F000
F000
FFC0
FFC0
FFC0
F000
F000
F000
F000
F000
FFF0
FFF0
FFF0
ENDCHAR
STARTCHAR uni1EC1
ENCODING 7873
SWIDTH 602 0
DWIDTH 15 0
BBX 13 23 1 0
BITMAP
1E00
0F00
0700
0380
0000
0F00
1F80
1F80
39C0
0000
0FC0
3FE0
7FF0
7870
F078
FFF8
FFF8
FFF8
F000
7808
7FF8
3FF8
0FE0
ENDCHAR
STARTCHAR uni1EC4
ENCODING 7876
SWIDTH 602 0
DWIDTH 15 0
BBX 12 28 2 0
BITMAP
1CC0
3FC0
3FC0
3380
0000
0F00
1F80
1F80
39C0
0000
FFE0
FFE0
FFE0
F000
F000
F000
F000
FFC0
FFC0
FFC0
F000
F000
F000
F000
F000
FFF0
FFF0
FFF0
ENDCHAR
STARTCHAR uni1EC5
ENCODING 7877
SWIDTH 602 0
DWIDTH 15 0
BBX 13 23 1 0
BITMAP
1CC0
3FC0
3FC0
3380
0000
0F00
1F80
1F80
39C0
0000
0FC0
3FE0
7FF0
7870
F078
FFF8
FFF8
FFF8
F000
7808
7FF8
3FF8
0FE0
ENDCHAR
STARTCHAR uni1EC6
ENCODING 7878
SWIDTH 602 0
DWIDTH 15 0
BBX 12 27 2 -4
BITMAP
1E00
3F00
3F00
7380
0000
FFE0
FFE0
FFE0
F000
F000
F000
F000
FFC0
FFC0
FFC0
F000
F000
F000
F000
F000
FFF0
FFF0
FFF0
0000
0E00
0E00
0E00
ENDCHAR
STARTCHAR uni1EC7
ENCODING 7879
SWIDTH 602 0
DWIDTH 15 0
BBX 13 22 1 -4
BITMAP
0780
0FC0
0FC0
1CE0
0000
0FC0
3FE0
7FF0
7870
F078
FFF8
FFF8
FFF8
F000
7808
7FF8
3FF8
0FE0
0000
0700
0700
0700
ENDCHAR
STARTCHAR uni1ECA
ENCODING 7882
SWIDTH 602 0
DWIDTH 15 0
BBX 12 22 1 -4
BITMAP
FFF0
FFF0
FFF0
0F00
0F00
0F00
0F00
0F00
0F00
0F00
0F00
0F00
0F00
0F00
0F00
FFF0
FFF0
FFF0
0000
0700
0700
0700
ENDCHAR
STARTCHAR uni1ECB
ENCODING 7883
SWIDTH 602 0
DWIDTH 15 0
BBX 9 23 2 -4
BITMAP
0780
0780
0780
0780
0000
0000
FF80
FF80
FF80
0780
0780
0780
0780
0780
0780
0780
0780
0780
0780
0000
0700
0700
0700
ENDCHAR
STARTCHAR uni1ECC
ENCODING 7884
SWIDTH 602 0
DWIDTH 15 0
BBX 14 22 1 -4
BITMAP
0FC0
1FE0
3FF0
7878
7878
F03C
F03C
F03C
F03C
F03C
F03C
F03C
F03C
7878
7878
3FF0
1FE0
0FC0
0000
0380
0380
0380
ENDCHAR
STARTCHAR uni1ECD
ENCODING 7885
SWIDTH 602 0
DWIDTH 15 0
BBX 14 17 0 -4
BITMAP
0FC0
3FF0
7FF8
7878
F03C
F03C
F03C
F03C
F03C
7878
7FF8
3FF0
0FC0
0000
0380
0380
0380
ENDCHAR
STARTCHAR uni1ED0
ENCODING 7888
SWIDTH 602 0
DWIDTH 15 0
BBX 14 28 1 0
BITMAP
01E0
03C0
0380
0700
0000
0780
0FC0
0FC0
1CE0
0000
0FC0
1FE0
3FF0
7878
7878
F03C
F03C
F03C
F03C
F03C
F03C
F03C
F03C
7878
7878
3FF0
1FE0
0FC0
ENDCHAR
STARTCHAR uni1ED1
ENCODING 7889
SWIDTH 602 0
DWIDTH 15 0
BBX 14 23 0 0
BITMAP
01E0
03C0
0380
0700
0000
0780
0FC0
0FC0
1CE0
0000
0FC0
3FF0
7FF8
7878
F03C
F03C
F03C
F03C
F03C
7878
7FF8
3FF0
0FC0
ENDCHAR
STARTCHAR uni1ED2
ENCODING 7890
SWIDTH 602 0
DWIDTH 15 0
BBX 14 28 1 0
BITMAP
1E00
0F00
0700
0380
0000
0780
0FC0
0FC0
1CE0
0000
0FC0
1FE0
3FF0
7878
7878
F03C
F03C
F03C
F03C
F03C
F03C
F03C
F03C
7878
7878
3FF0
1FE0
0FC0
ENDCHAR
STARTCHAR uni1ED3
ENCODING 7891
SWIDTH 602 0
DWIDTH 15 0
BBX 14 23 0 0
BITMAP
1E00
0F00
0700
0380
0000
0780
0FC0
0FC0
1CE0
0000
0FC0
3FF0
7FF8
7878
F03C
F03C
F03C
F03C
F03C
7878
7FF8
3FF0
0FC0
ENDCHAR
STARTCHAR uni1ED6
ENCODING 7894
SWIDTH 602 0
DWIDTH 15 0
BBX 14 28 1 0
BITMAP
0E60
1FE0
1FE0
19C0
0000
0780
0FC0
0FC0
1CE0
0000
0FC0
1FE0
3FF0
7878
7878
F03C
F03C
F03C
F03C
F03C
F03C
F03C
F03C
7878
7878
3FF0
1FE0
0FC0
ENDCHAR
STARTCHAR uni1ED7
ENCODING 7895
SWIDTH 602 0
DWIDTH 15 0
BBX 14 23 0 0
BITMAP
0E60
1FE0
1FE0
19C0
0000
0780
0FC0
0FC0
1CE0
0000
0FC0
3FF0
7FF8
7878
F03C
F03C
F03C
F03C
F03C
7878
7FF8
3FF0
0FC0
ENDCHAR
STARTCHAR uni1ED8
ENCODING 7896
SWIDTH 602 0
DWIDTH 15 0
BBX 14 27 1 -4
BITMAP
0780
0FC0
0FC0
1CE0
0000
0FC0
1FE0
3FF0
7878
7878
F03C
F03C
F03C
F03C
F03C
F03C
F03C
F03C
7878
7878
3FF0
1FE0
0FC0
0000
0380
0380
0380
ENDCHAR
STARTCHAR uni1ED9
ENCODING 7897
SWIDTH 602 0
DWIDTH 15 0
BBX 14 22 0 -4
BITMAP
0780
0FC0
0FC0
1CE0
0000
0FC0
3FF0
7FF8
7878
F03C
F03C
F03C
F03C
F03C
7878
7FF8
3FF0
0FC0
0000
0380
0380
0380
ENDCHAR
STARTCHAR uni1EDA
ENCODING 7898
SWIDTH 602 0
DWIDTH 15 0
BBX 17 23 1 0
BITMAP
007800
00F000
00E000
01C000
000000
0FC780
1FE780
3FF780
787F80
787B80
F03F80
F03F80
F03F00
F03C00
F03C00
F03C00
F03C00
F03C00
787800
787800
3FF000
1FE000
0FC000
ENDCHAR
STARTCHAR uni1EDB
ENCODING 7899
SWIDTH 602 0
DWIDTH 15 0
BBX 17 18 0 0
BITMAP
007800
00F000
00E000
01C000
000000
0FC780
3FF780
7FFF80
787F80
F03F80
F03F80
F03F80
F03F00
F03C00
787800
7FF800
3FF000
0FC000
ENDCHAR
STARTCHAR uni1EDC
ENCODING 7900
SWIDTH 602 0
DWIDTH 15 0
BBX 17 23 1 0
BITMAP
03C000
01E000
00E000
007000
000000
0FC780
1FE780
3FF780
787F80
787B80
F03F80
F03F80
F03F00
F03C00
F03C00
F03C00
F03C00
F03C00
787800
787800
3FF000
1FE000
0FC000
ENDCHAR
STARTCHAR uni1EDD
ENCODING 7901
SWIDTH 602 0
DWIDTH 15 0
BBX 17 18 0 0
BITMAP
078000
03C000
01C000
00E000
000000
0FC780
3FF780
7FFF80
787F80
F03F80
F03F80
F03F80
F03F00
F03C00
787800
7FF800
3FF000
0FC000
ENDCHAR
STARTCHAR uni1EE0
ENCODING 7904
SWIDTH 602 0
DWIDTH 15 0
BBX 17 23 1 0
BITMAP
039800
07F800
07F800
067000
000000
0FC780
1FE780
3FF780
787F80
787B80
F03F80
F03F80
F03F00
F03C00
F03C00
F03C00
F03C00
F03C00
787800
787800
3FF000
1FE000
0FC000
ENDCHAR
STARTCHAR uni1EE1
ENCODING 7905
SWIDTH 602 0
DWIDTH 15 0
BBX 17 18 0 0
BITMAP
039800
07F800
07F800
067000
000000
0FC780
3FF780
7FFF80
787F80
F03F80
F03F80
F03F80
F03F00
F03C00
787800
7FF800
3FF000
0FC000
ENDCHAR
STARTCHAR uni1EE2
ENCODING 7906
SWIDTH 602 0
DWIDTH 15 0
BBX 17 22 1 -4
BITMAP
0FC780
1FE780
3FF780
787F80
787B80
F03F80
F03F80
F03F00
F03C00
F03C00
F03C00
F03C00
F03C00
787800
787800
3FF000
1FE000
0FC000
000000
038000
038000
038000
ENDCHAR
STARTCHAR uni1EE3
ENCODING 7907
SWIDTH 602 0
DWIDTH 15 0
BBX 17 17 0 -4
BITMAP
0FC780
3FF780
7FFF80
787F80
F03F80
F03F80
F03F80
F03F00
F03C00
787800
7FF800
3FF000
0FC000
000000
038000
038000
038000
ENDCHAR
STARTCHAR uni1EE4
ENCODING 7908
SWIDTH 602 0
DWIDTH 15 0
BBX 12 22 1 -4
BITMAP
F0F0
F0F0
F0F0
F0F0
F0F0
F0F0
F0F0
F0F0
F0F0
F0F0
F0F0
F0F0
F0F0
F0F0
F9F0
7FE0
7FE0
1F80
0000
0700
0700
0700
ENDCHAR
STARTCHAR uni1EE5
ENCODING 7909
SWIDTH 602 0
DWIDTH 15 0
BBX 12 17 1 -4
BITMAP
F0F0
F0F0
F0F0
F0F0
F0F0
F0F0
F0F0
F0F0
F1F0
FFF0
FFF0
7EF0
3CF0
0000
0700
0700
0700
ENDCHAR
STARTCHAR uni1EE8
ENCODING 7912
SWIDTH 602 0
DWIDTH 15 0
BBX 15 23 1 0
BITMAP
00F0
01E0
01C0
0380
0000
F0FE
F0FE
F0FE
F0FE
F0FE
F0FE
F0FE
F0FC
F0F0
F0F0
F0F0
F0F0
F0F0
F0F0
F9F0
7FE0
7FE0
1F80
ENDCHAR
STARTCHAR uni1EE9
ENCODING 7913
SWIDTH 602 0
DWIDTH 15 0
BBX 15 18 1 0
BITMAP
00F0
01E0
01C0
0380
0000
F0FE
F0FE
F0FE
F0FE
F0FE
F0FE
F0FE
F0FC
F1F0
FFF0
FFF0
7EF0
3CF0
ENDCHAR
STARTCHAR uni1EEA
ENCODING 7914
SWIDTH 602 0
DWIDTH 15 0
BBX 15 23 1 0
BITMAP
0F00
0780
0380
01C0
0000
F0FE
F0FE
F0FE
F0FE
F0FE
F0FE
F0FE
F0FC
F0F0
F0F0
F0F0
F0F0
F0F0
F0F0
F9F0
7FE0
7FE0
1F80
ENDCHAR
STARTCHAR uni1EEB
ENCODING 7915
SWIDTH 602 0
DWIDTH 15 0
BBX 15 18 1 0
BITMAP
0F00
0780
0380
01C0
0000
F0FE
F0FE
F0FE
F0FE
F0FE
F0FE
F0FE
F0FC
F1F0
FFF0
FFF0
7EF0
3CF0
ENDCHAR
STARTCHAR uni1EEE
ENCODING 7918
SWIDTH 602 0
DWIDTH 15 0
BBX 15 23 1 0
BITMAP
0730
0FF0
0FF0
0CE0
0000
F0FE
F0FE
F0FE
F0FE
F0FE
F0FE
F0FE
F0FC
F0F0
F0F0
F0F0
F0F0
F0F0
F0F0
F9F0
7FE0
7FE0
1F80
ENDCHAR
STARTCHAR uni1EEF
ENCODING 7919
SWIDTH 602 0
DWIDTH 15 0
BBX 15 18 1 0
BITMAP
0730
0FF0
0FF0
0CE0
0000
F0FE
F0FE
F0FE
F0FE
F0FE
F0FE
F0FE
F0FC
F1F0
FFF0
FFF0
7EF0
3CF0
ENDCHAR
STARTCHAR uni1EF0
ENCODING 7920
SWIDTH 602 0
DWIDTH 15 0
BBX 15 22 1 -4
BITMAP
F0FE
F0FE
F0FE
F0FE
F0FE
F0FE
F0FE
F0FC
F0F0
F0F0
F0F0
F0F0
F0F0
F0F0
F9F0
7FE0
7FE0
1F80
0000
0700
0700
0700
ENDCHAR
STARTCHAR uni1EF1
ENCODING 7921
SWIDTH 602 0
DWIDTH 15 0
BBX 15 17 1 -4
BITMAP
F0FE
F0FE
F0FE
F0FE
F0FE
F0FE
F0FE
F0FC
F1F0
FFF0
FFF0
7EF0
3CF0
0000
0700
0700
0700
ENDCHAR
STARTCHAR Ygrave
ENCODING 7922
SWIDTH 602 0
DWIDTH 15 0
BBX 16 23 0 0
BITMAP
0F00
0780
0380
01C0
0000
F80F
780E
7C1E
3C1C
3E3C
1F38
0F70
0FF0
07E0
07E0
03C0
03C0
03C0
03C0
03C0
03C0
03C0
03C0
ENDCHAR
STARTCHAR ygrave
ENCODING 7923
SWIDTH 602 0
DWIDTH 15 0
BBX 14 23 1 -5
BITMAP
1E00
0F00
0700
0380
0000
F01C
F83C
7838
7C78
3C70
3E70
1EE0
1FE0
0FC0
0FC0
07C0
0780
0780
0700
0F00
7E00
7E00
7800
ENDCHAR
STARTCHAR uni1EF4
ENCODING 7924
SWIDTH 602 0
DWIDTH 15 0
BBX 16 22 0 -4
BITMAP
F80F
780E
7C1E
3C1C
3E3C
1F38
0F70
0FF0
07E0
07E0
03C0
03C0
03C0
03C0
03C0
03C0
03C0
03C0
0000
01C0
01C0
01C0
ENDCHAR
STARTCHAR uni1EF5
ENCODING 7925
SWIDTH 602 0
DWIDTH 15 0
BBX 14 22 1 -9
BITMAP
F01C
F83C
7838
7C78
3C70
3E70
1EE0
1FE0
0FC0
0FC0
07C0
0780
0780
0700
0F00
7E00
7E00
7800
0000
0E00
0E00
0E00
ENDCHAR
STARTCHAR uni1EF8
ENCODING 7928
SWIDTH 602 0
DWIDTH 15 0
BBX 16 23 0 0
BITMAP
0730
0FF0
0FF0
0CE0
0000
F80F
780E
7C1E
3C1C
3E3C
1F38
0F70
0FF0
07E0
07E0
03C0
03C0
03C0
03C0
03C0
03C0
03C0
03C0
ENDCHAR
STARTCHAR uni1EF9
ENCODING 7929
SWIDTH 602 0
DWIDTH 15 0
BBX 14 23 1 -5
BITMAP
0E60
1FE0
1FE0
19C0
0000
F01C
F83C
7838
7C78
3C70
3E70
1EE0
1FE0
0FC0
0FC0
07C0
0780
0780
0700
0F00
7E00
7E00
7800
ENDCHAR
STARTCHAR uni2000
ENCODING 8192
SWIDTH 602 0
DWIDTH 15 0
BBX 1 1 0 0
BITMAP
00
ENDCHAR
STARTCHAR uni2001
ENCODING 8193
SWIDTH 602 0
DWIDTH 15 0
BBX 1 1 0 0
BITMAP
00
ENDCHAR
STARTCHAR uni2002
ENCODING 8194
SWIDTH 602 0
DWIDTH 15 0
BBX 1 1 0 0
BITMAP
00
ENDCHAR
STARTCHAR uni2003
ENCODING 8195
SWIDTH 602 0
DWIDTH 15 0
BBX 1 1 0 0
BITMAP
00
ENDCHAR
STARTCHAR uni2004
ENCODING 8196
SWIDTH 602 0
DWIDTH 15 0
BBX 1 1 0 0
BITMAP
00
ENDCHAR
STARTCHAR uni2005
ENCODING 8197
SWIDTH 602 0
DWIDTH 15 0
BBX 1 1 0 0
BITMAP
00
ENDCHAR
STARTCHAR uni2006
ENCODING 8198
SWIDTH 602 0
DWIDTH 15 0
BBX 1 1 0 0
BITMAP
00
ENDCHAR
STARTCHAR uni2007
ENCODING 8199
SWIDTH 602 0
DWIDTH 15 0
BBX 1 1 0 0
BITMAP
00
ENDCHAR
STARTCHAR uni2008
ENCODING 8200
SWIDTH 602 0
DWIDTH 15 0
BBX 1 1 0 0
BITMAP
00
ENDCHAR
STARTCHAR uni2009
ENCODING 8201
SWIDTH 602 0
DWIDTH 15 0
BBX 1 1 0 0
BITMAP
00
ENDCHAR
STARTCHAR uni200A
ENCODING 8202
SWIDTH 602 0
DWIDTH 15 0
BBX 1 1 0 0
BITMAP
00
ENDCHAR
STARTCHAR uni2010
ENCODING 8208
SWIDTH 602 0
DWIDTH 15 0
BBX 10 3 2 6
BITMAP
FFC0
FFC0
FFC0
ENDCHAR
STARTCHAR uni2011
ENCODING 8209
SWIDTH 602 0
DWIDTH 15 0
BBX 10 3 2 6
BITMAP
FFC0
FFC0
FFC0
ENDCHAR
STARTCHAR figuredash
ENCODING 8210
SWIDTH 602 0
DWIDTH 15 0
BBX 12 3 1 6
BITMAP
FFF0
FFF0
FFF0
ENDCHAR
STARTCHAR endash
ENCODING 8211
SWIDTH 602 0
DWIDTH 15 0
BBX 12 3 1 6
BITMAP
FFF0
FFF0
FFF0
ENDCHAR
STARTCHAR emdash
ENCODING 8212
SWIDTH 602 0
DWIDTH 15 0
BBX 14 3 0 6
BITMAP
FFFC
FFFC
FFFC
ENDCHAR
STARTCHAR afii00208
ENCODING 8213
SWIDTH 602 0
DWIDTH 15 0
BBX 14 3 0 6
BITMAP
FFFC
FFFC
FFFC
ENDCHAR
STARTCHAR quoteleft
ENCODING 8216
SWIDTH 602 0
DWIDTH 15 0
BBX 4 8 5 11
BITMAP
70
F0
E0
E0
F0
F0
F0
F0
ENDCHAR
STARTCHAR quoteright
ENCODING 8217
SWIDTH 602 0
DWIDTH 15 0
BBX 4 8 5 11
BITMAP
F0
F0
F0
F0
70
70
F0
E0
ENDCHAR
STARTCHAR quotesinglbase
ENCODING 8218
SWIDTH 602 0
DWIDTH 15 0
BBX 4 8 5 -4
BITMAP
F0
F0
F0
F0
70
70
F0
E0
ENDCHAR
STARTCHAR quotereversed
ENCODING 8219
SWIDTH 602 0
DWIDTH 15 0
BBX 4 8 5 11
BITMAP
F0
F0
F0
F0
E0
E0
F0
70
ENDCHAR
STARTCHAR quotedblleft
ENCODING 8220
SWIDTH 602 0
DWIDTH 15 0
BBX 10 7 2 12
BITMAP
71C0
F3C0
E380
F3C0
F3C0
F3C0
F3C0
ENDCHAR
STARTCHAR quotedblright
ENCODING 8221
SWIDTH 602 0
DWIDTH 15 0
BBX 10 7 2 12
BITMAP
F3C0
F3C0
F3C0
F3C0
71C0
71C0
F3C0
ENDCHAR
STARTCHAR quotedblbase
ENCODING 8222
SWIDTH 602 0
DWIDTH 15 0
BBX 10 8 2 -4
BITMAP
F3C0
F3C0
F3C0
F3C0
71C0
71C0
F3C0
E380
ENDCHAR
STARTCHAR uni201F
ENCODING 8223
SWIDTH 602 0
DWIDTH 15 0
BBX 10 7 2 12
BITMAP
F3C0
F3C0
F3C0
F3C0
E380
E380
F3C0
ENDCHAR
STARTCHAR dagger
ENCODING 8224
SWIDTH 602 0
DWIDTH 15 0
BBX 12 22 1 -4
BITMAP
0F00
0F00
0F00
0F00
0F00
0F00
FFF0
FFF0
FFF0
0F00
0F00
0F00
0F00
0F00
0F00
0F00
0F00
0F00
0F00
0F00
0F00
0F00
ENDCHAR
STARTCHAR daggerdbl
ENCODING 8225
SWIDTH 602 0
DWIDTH 15 0
BBX 12 22 1 -4
BITMAP
0F00
0F00
0F00
0F00
0F00
0F00
FFF0
FFF0
FFF0
0F00
0F00
0F00
0F00
0F00
FFF0
FFF0
FFF0
0F00
0F00
0F00
0F00
0F00
ENDCHAR
STARTCHAR bullet
ENCODING 8226
SWIDTH 602 0
DWIDTH 15 0
BBX 10 10 2 1
BITMAP
FFC0
FFC0
FFC0
FFC0
FFC0
FFC0
FFC0
FFC0
FFC0
FFC0
ENDCHAR
STARTCHAR ellipsis
ENCODING 8230
SWIDTH 602 0
DWIDTH 15 0
BBX 13 3 1 0
BITMAP
E738
E738
E738
ENDCHAR
STARTCHAR perthousand
ENCODING 8240
SWIDTH 602 0
DWIDTH 15 0
BBX 15 18 0 0
BITMAP
7980
FD80
FF00
FF00
FE00
FE00
FE00
7C00
0C00
1800
1B3C
37FE
37FE
37FE
67FE
67FE
C7FE
C33C
ENDCHAR
STARTCHAR guilsinglleft
ENCODING 8249
SWIDTH 602 0
DWIDTH 15 0
BBX 7 11 4 1
BITMAP
04
0E
1C
3C
78
F0
78
3C
1C
0E
04
ENDCHAR
STARTCHAR guilsinglright
ENCODING 8250
SWIDTH 602 0
DWIDTH 15 0
BBX 7 11 4 1
BITMAP
40
E0
70
78
3C
1E
3C
78
70
E0
40
ENDCHAR
STARTCHAR uni203D
ENCODING 8253
SWIDTH 602 0
DWIDTH 15 0
BBX 12 18 2 0
BITMAP
3F80
FFE0
FFF0
CFF0
CFF0
CFF0
0FE0
0FE0
0FC0
1F00
3F00
3F00
3F00
0000
0000
3F00
3F00
3F00
ENDCHAR
STARTCHAR fraction
ENCODING 8260
SWIDTH 602 0
DWIDTH 15 0
BBX 17 18 1 0
BITMAP
000780
000F00
001E00
003C00
003800
007800
00F000
00E000
01E000
03C000
038000
078000
0F0000
0E0000
1C0000
3C0000
780000
F00000
ENDCHAR
STARTCHAR oneinferior
ENCODING 8321
SWIDTH 602 0
DWIDTH 15 0
BBX 5 9 -3 -5
BITMAP
E0
20
20
20
20
20
20
20
F8
ENDCHAR
STARTCHAR twoinferior
ENCODING 8322
SWIDTH 602 0
DWIDTH 15 0
BBX 5 9 -3 -5
BITMAP
F0
88
08
08
10
20
40
C0
F8
ENDCHAR
STARTCHAR threeinferior
ENCODING 8323
SWIDTH 602 0
DWIDTH 15 0
BBX 4 9 -3 -5
BITMAP
E0
10
10
30
60
30
10
10
E0
ENDCHAR
STARTCHAR uni20A5
ENCODING 8357
SWIDTH 602 0
DWIDTH 15 0
BBX 15 23 0 -5
BITMAP
001E
001C
003C
0038
0078
F378
F7FC
FFFC
F7FC
F7FC
F7FC
F7BC
F7BC
F7BC
FFBC
FFBC
FFBC
FFBC
3800
3800
7000
7000
E000
ENDCHAR
STARTCHAR uni20A6
ENCODING 8358
SWIDTH 602 0
DWIDTH 15 0
BBX 13 18 1 0
BITMAP
F070
F870
F870
FC70
FFF8
FFF8
FFF8
FF70
EF70
EFF0
FFF8
FFF8
FFF8
E3F0
E1F0
E1F0
E1F0
E0F0
ENDCHAR
STARTCHAR uni20A9
ENCODING 8361
SWIDTH 602 0
DWIDTH 15 0
BBX 15 18 0 0
BITMAP
F006
F3C6
F3C6
F3CE
7FFE
7FFC
7FFC
7FEC
7FEC
7FEC
7FFC
7FFC
7FFC
3EFC
3EF8
3C78
3C78
3C78
ENDCHAR
STARTCHAR Euro
ENCODING 8364
SWIDTH 602 0
DWIDTH 15 0
BBX 17 18 -3 0
BITMAP
007F80
03FF80
07FF80
0FC180
FFF800
FFF800
FFF800
1E0000
1E0000
1E0000
FFF800
FFF800
FFF800
0F8000
0FC080
07FF80
03FF80
007E00
ENDCHAR
STARTCHAR uni20AD
ENCODING 8365
SWIDTH 602 0
DWIDTH 15 0
BBX 14 18 1 0
BITMAP
F03C
F078
F0F0
F0E0
F1E0
F3C0
F780
FFFC
FFFC
FFFC
FF80
F7C0
F3E0
F1E0
F1F0
F0F8
F0F8
F07C
ENDCHAR
STARTCHAR trademark
ENCODING 8482
SWIDTH 602 0
DWIDTH 15 0
BBX 16 9 0 9
BITMAP
FFC7
FFC7
FFEF
39EF
39EF
39F7
39B7
39B7
3987
ENDCHAR
STARTCHAR uni212A
ENCODING 8490
SWIDTH 602 0
DWIDTH 15 0
BBX 14 18 1 0
BITMAP
F03C
F078
F0F0
F0E0
F1E0
F3C0
F780
FF00
FF00
FF80
FF80
F7C0
F3E0
F1E0
F1F0
F0F8
F0F8
F07C
ENDCHAR
STARTCHAR uni212B
ENCODING 8491
SWIDTH 602 0
DWIDTH 15 0
BBX 15 23 0 0
BITMAP
0180
0240
0240
0180
0000
03C0
07C0
07E0
07E0
0FE0
0FF0
0EF0
1CF0
1CF0
1C78
3878
3FF8
3FFC
7FFC
703C
703C
E01E
E01E
ENDCHAR
STARTCHAR uni2132
ENCODING 8498
SWIDTH 602 0
DWIDTH 15 0
BBX 13 18 2 0
BITMAP
0078
0078
0078
0078
0078
0078
0078
3FF8
3FF8
7FF8
0078
0078
0078
0078
0078
FFF8
FFF8
FFF8
ENDCHAR
STARTCHAR universal
ENCODING 8704
SWIDTH 602 0
DWIDTH 15 0
BBX 15 18 0 0
BITMAP
E01E
E01E
703C
703C
7FFC
3FFC
3FF8
3878
1C78
1CF0
1CF0
0EF0
0FF0
0FE0
07E0
07E0
07C0
03C0
ENDCHAR
STARTCHAR existential
ENCODING 8707
SWIDTH 602 0
DWIDTH 15 0
BBX 12 18 2 0
BITMAP
7FF0
7FF0
7FF0
00F0
00F0
00F0
00F0
3FF0
3FF0
3FF0
00F0
00F0
00F0
00F0
00F0
FFF0
FFF0
FFF0
ENDCHAR
STARTCHAR uni2204
ENCODING 8708
SWIDTH 602 0
DWIDTH 15 0
BBX 15 23 1 -2
BITMAP
001E
001C
003C
3FF8
3FF8
3FF8
00F8
00F8
01F8
01F8
1FF8
1FF8
1FF8
0778
0F78
0E78
1E78
1C78
7FF8
7FF8
7FF8
7000
E000
ENDCHAR
STARTCHAR minus
ENCODING 8722
SWIDTH 602 0
DWIDTH 15 0
BBX 13 3 1 5
BITMAP
FFF8
FFF8
FFF8
ENDCHAR
STARTCHAR fraction
ENCODING 8725
SWIDTH 602 0
DWIDTH 15 0
BBX 17 18 1 0
BITMAP
000780
000F00
001E00
003C00
003800
007800
00F000
00E000
01E000
03C000
038000
078000
0F0000
0E0000
1C0000
3C0000
780000
F00000
ENDCHAR
STARTCHAR periodcentered
ENCODING 8729
SWIDTH 602 0
DWIDTH 15 0
BBX 3 4 6 4
BITMAP
E0
E0
E0
E0
ENDCHAR
STARTCHAR uni2236
ENCODING 8758
SWIDTH 602 0
DWIDTH 15 0
BBX 4 13 5 0
BITMAP
F0
F0
F0
F0
00
00
00
00
00
F0
F0
F0
F0
ENDCHAR
STARTCHAR uni2259
ENCODING 8793
SWIDTH 602 0
DWIDTH 15 0
BBX 13 14 1 2
BITMAP
0780
0FC0
0FC0
1CE0
0000
FFF8
FFF8
FFF8
0000
0000
0000
FFF8
FFF8
FFF8
ENDCHAR
STARTCHAR uni225A
ENCODING 8794
SWIDTH 602 0
DWIDTH 15 0
BBX 13 14 1 2
BITMAP
1CE0
0FC0
0FC0
0780
0000
FFF8
FFF8
FFF8
0000
0000
0000
FFF8
FFF8
FFF8
ENDCHAR
STARTCHAR notequal
ENCODING 8800
SWIDTH 602 0
DWIDTH 15 0
BBX 15 23 0 -5
BITMAP
001E
001C
003C
0038
0078
0070
00F0
7FFC
7FFC
7FFC
03C0
0380
0780
7FFC
7FFC
7FFC
1E00
1C00
3800
3800
7000
7000
E000
ENDCHAR
STARTCHAR equivalence
ENCODING 8801
SWIDTH 602 0
DWIDTH 15 0
BBX 13 11 0 1
BITMAP
FFF8
FFF8
FFF8
0000
FFF8
FFF8
FFF8
0000
FFF8
FFF8
FFF8
ENDCHAR
STARTCHAR uni2262
ENCODING 8802
SWIDTH 602 0
DWIDTH 15 0
BBX 15 23 -1 -5
BITMAP
001E
001C
003C
0038
0078
0070
7FFC
7FFC
7FFC
01C0
7FFC
7FFC
7FFC
0700
7FFC
7FFC
7FFC
1C00
3800
3800
7000
7000
E000
ENDCHAR
STARTCHAR lessequal
ENCODING 8804
SWIDTH 602 0
DWIDTH 15 0
BBX 13 17 1 -4
BITMAP
0008
0038
00F8
03F0
0FC0
3F00
FC00
3F00
0FC0
03F0
00F8
0038
0008
0000
FFF8
FFF8
FFF8
ENDCHAR
STARTCHAR greaterequal
ENCODING 8805
SWIDTH 602 0
DWIDTH 15 0
BBX 13 17 1 -4
BITMAP
8000
E000
F800
7E00
1F80
07E0
01F8
07E0
1F80
7E00
F800
E000
8000
0000
FFF8
FFF8
FFF8
ENDCHAR
STARTCHAR uni226E
ENCODING 8814
SWIDTH 602 0
DWIDTH 15 0
BBX 15 23 0 -5
BITMAP
001E
001C
003C
0038
0078
0074
00FC
00FC
01F8
07E0
1FC0
7F80
1F80
07E0
0FF8
0E7C
1E1C
1C04
3800
3800
7000
7000
E000
ENDCHAR
STARTCHAR uni226F
ENCODING 8815
SWIDTH 602 0
DWIDTH 15 0
BBX 15 23 0 -5
BITMAP
001E
001C
003C
0038
0078
4070
70F0
7CE0
3FE0
0FC0
03F0
03FC
07F0
0FC0
3F00
7E00
7E00
5C00
3800
3800
7000
7000
E000
ENDCHAR
STARTCHAR uni2270
ENCODING 8816
SWIDTH 602 0
DWIDTH 15 0
BBX 15 23 0 -7
BITMAP
001E
001C
003C
003C
007C
007C
01F8
07E0
1FE0
7FC0
1FC0
07E0
07F8
077C
0F1C
0E04
1E00
7FFC
7FFC
7FFC
7000
7000
E000
ENDCHAR
STARTCHAR uni2271
ENCODING 8817
SWIDTH 602 0
DWIDTH 15 0
BBX 15 23 0 -7
BITMAP
001E
001C
003C
4038
7078
7C70
3FF0
0FE0
03F0
01FC
03F0
0FC0
3F80
7F00
7F00
4E00
1E00
7FFC
7FFC
7FFC
7000
7000
E000
ENDCHAR
STARTCHAR SF100000
ENCODING 9472
SWIDTH 602 0
DWIDTH 15 0
BBX 15 3 0 8
BITMAP
FFFE
FFFE
FFFE
ENDCHAR
STARTCHAR uni2501
ENCODING 9473
SWIDTH 602 0
DWIDTH 15 0
BBX 15 9 0 5
BITMAP
FFFE
FFFE
FFFE
FFFE
FFFE
FFFE
FFFE
FFFE
FFFE
ENDCHAR
STARTCHAR SF110000
ENCODING 9474
SWIDTH 602 0
DWIDTH 15 0
BBX 3 28 6 -5
BITMAP
E0
E0
E0
E0
E0
E0
E0
E0
E0
E0
E0
E0
E0
E0
E0
E0
E0
E0
E0
E0
E0
E0
E0
E0
E0
E0
E0
E0
ENDCHAR
STARTCHAR uni2503
ENCODING 9475
SWIDTH 602 0
DWIDTH 15 0
BBX 9 28 3 -5
BITMAP
FF80
FF80
FF80
FF80
FF80
FF80
FF80
FF80
FF80
FF80
FF80
FF80
FF80
FF80
FF80
FF80
FF80
FF80
FF80
FF80
FF80
FF80
FF80
FF80
FF80
FF80
FF80
FF80
ENDCHAR
STARTCHAR SF010000
ENCODING 9484
SWIDTH 602 0
DWIDTH 15 0
BBX 9 16 6 -5
BITMAP
FF80
FF80
FF80
E000
E000
E000
E000
E000
E000
E000
E000
E000
E000
E000
E000
E000
ENDCHAR
STARTCHAR uni250D
ENCODING 9485
SWIDTH 602 0
DWIDTH 15 0
BBX 12 19 3 -5
BITMAP
FFF0
FFF0
FFF0
FFF0
FFF0
FFF0
FFF0
FFF0
FFF0
1C00
1C00
1C00
1C00
1C00
1C00
1C00
1C00
1C00
1C00
ENDCHAR
STARTCHAR uni250E
ENCODING 9486
SWIDTH 602 0
DWIDTH 15 0
BBX 12 19 3 -5
BITMAP
FF80
FF80
FF80
FFF0
FFF0
FFF0
FF80
FF80
FF80
FF80
FF80
FF80
FF80
FF80
FF80
FF80
FF80
FF80
FF80
ENDCHAR
STARTCHAR uni250F
ENCODING 9487
SWIDTH 602 0
DWIDTH 15 0
BBX 12 19 3 -5
BITMAP
FFF0
FFF0
FFF0
FFF0
FFF0
FFF0
FFF0
FFF0
FFF0
FF80
FF80
FF80
FF80
FF80
FF80
FF80
FF80
FF80
FF80
ENDCHAR
STARTCHAR SF030000
ENCODING 9488
SWIDTH 602 0
DWIDTH 15 0
BBX 9 16 0 -5
BITMAP
FF80
FF80
FF80
0380
0380
0380
0380
0380
0380
0380
0380
0380
0380
0380
0380
0380
ENDCHAR
STARTCHAR uni2511
ENCODING 9489
SWIDTH 602 0
DWIDTH 15 0
BBX 12 19 0 -5
BITMAP
FFF0
FFF0
FFF0
FFF0
FFF0
FFF0
FFF0
FFF0
FFF0
0380
0380
0380
0380
0380
0380
0380
0380
0380
0380
ENDCHAR
STARTCHAR uni2512
ENCODING 9490
SWIDTH 602 0
DWIDTH 15 0
BBX 12 19 0 -5
BITMAP
1FF0
1FF0
1FF0
FFF0
FFF0
FFF0
1FF0
1FF0
1FF0
1FF0
1FF0
1FF0
1FF0
1FF0
1FF0
1FF0
1FF0
1FF0
1FF0
ENDCHAR
STARTCHAR uni2513
ENCODING 9491
SWIDTH 602 0
DWIDTH 15 0
BBX 12 19 0 -5
BITMAP
FFF0
FFF0
FFF0
FFF0
FFF0
FFF0
FFF0
FFF0
FFF0
1FF0
1FF0
1FF0
1FF0
1FF0
1FF0
1FF0
1FF0
1FF0
1FF0
ENDCHAR
STARTCHAR SF020000
ENCODING 9492
SWIDTH 602 0
DWIDTH 15 0
BBX 9 15 6 8
BITMAP
E000
E000
E000
E000
E000
E000
E000
E000
E000
E000
E000
E000
FF80
FF80
FF80
ENDCHAR
STARTCHAR uni2515
ENCODING 9493
SWIDTH 602 0
DWIDTH 15 0
BBX 12 18 3 5
BITMAP
1C00
1C00
1C00
1C00
1C00
1C00
1C00
1C00
1C00
FFF0
FFF0
FFF0
FFF0
FFF0
FFF0
FFF0
FFF0
FFF0
ENDCHAR
STARTCHAR uni2516
ENCODING 9494
SWIDTH 602 0
DWIDTH 15 0
BBX 12 18 3 5
BITMAP
FF80
FF80
FF80
FF80
FF80
FF80
FF80
FF80
FF80
FF80
FF80
FF80
FFF0
FFF0
FFF0
FF80
FF80
FF80
ENDCHAR
STARTCHAR uni2517
ENCODING 9495
SWIDTH 602 0
DWIDTH 15 0
BBX 12 18 3 5
BITMAP
FF80
FF80
FF80
FF80
FF80
FF80
FF80
FF80
FF80
FFF0
FFF0
FFF0
FFF0
FFF0
FFF0
FFF0
FFF0
FFF0
ENDCHAR
STARTCHAR SF040000
ENCODING 9496
SWIDTH 602 0
DWIDTH 15 0
BBX 9 15 0 8
BITMAP
0380
0380
0380
0380
0380
0380
0380
0380
0380
0380
0380
0380
FF80
FF80
FF80
ENDCHAR
STARTCHAR uni2519
ENCODING 9497
SWIDTH 602 0
DWIDTH 15 0
BBX 12 18 0 5
BITMAP
0380
0380
0380
0380
0380
0380
0380
0380
0380
FFF0
FFF0
FFF0
FFF0
FFF0
FFF0
FFF0
FFF0
FFF0
ENDCHAR
STARTCHAR uni251A
ENCODING 9498
SWIDTH 602 0
DWIDTH 15 0
BBX 12 18 0 5
BITMAP
1FF0
1FF0
1FF0
1FF0
1FF0
1FF0
1FF0
1FF0
1FF0
1FF0
1FF0
1FF0
FFF0
FFF0
FFF0
1FF0
1FF0
1FF0
ENDCHAR
STARTCHAR uni251B
ENCODING 9499
SWIDTH 602 0
DWIDTH 15 0
BBX 12 18 0 5
BITMAP
1FF0
1FF0
1FF0
1FF0
1FF0
1FF0
1FF0
1FF0
1FF0
FFF0
FFF0
FFF0
FFF0
FFF0
FFF0
FFF0
FFF0
FFF0
ENDCHAR
STARTCHAR SF080000
ENCODING 9500
SWIDTH 602 0
DWIDTH 15 0
BBX 9 28 6 -5
BITMAP
E000
E000
E000
E000
E000
E000
E000
E000
E000
E000
E000
E000
FF80
FF80
FF80
E000
E000
E000
E000
E000
E000
E000
E000
E000
E000
E000
E000
E000
ENDCHAR
STARTCHAR uni251D
ENCODING 9501
SWIDTH 602 0
DWIDTH 15 0
BBX 12 28 3 -5
BITMAP
1C00
1C00
1C00
1C00
1C00
1C00
1C00
1C00
1C00
FFF0
FFF0
FFF0
FFF0
FFF0
FFF0
FFF0
FFF0
FFF0
1C00
1C00
1C00
1C00
1C00
1C00
1C00
1C00
1C00
1C00
ENDCHAR
STARTCHAR uni251E
ENCODING 9502
SWIDTH 602 0
DWIDTH 15 0
BBX 12 28 3 -5
BITMAP
FF80
FF80
FF80
FF80
FF80
FF80
FF80
FF80
FF80
FF80
FF80
FF80
FFF0
FFF0
FFF0
FF80
FF80
FF80
1C00
1C00
1C00
1C00
1C00
1C00
1C00
1C00
1C00
1C00
ENDCHAR
STARTCHAR uni251F
ENCODING 9503
SWIDTH 602 0
DWIDTH 15 0
BBX 12 28 3 -5
BITMAP
1C00
1C00
1C00
1C00
1C00
1C00
1C00
1C00
1C00
FF80
FF80
FF80
FFF0
FFF0
FFF0
FF80
FF80
FF80
FF80
FF80
FF80
FF80
FF80
FF80
FF80
FF80
FF80
FF80
ENDCHAR
STARTCHAR uni2520
ENCODING 9504
SWIDTH 602 0
DWIDTH 15 0
BBX 12 28 3 -5
BITMAP
FF80
FF80
FF80
FF80
FF80
FF80
FF80
FF80
FF80
FF80
FF80
FF80
FFF0
FFF0
FFF0
FF80
FF80
FF80
FF80
FF80
FF80
FF80
FF80
FF80
FF80
FF80
FF80
FF80
ENDCHAR
STARTCHAR uni2521
ENCODING 9505
SWIDTH 602 0
DWIDTH 15 0
BBX 12 28 3 -5
BITMAP
FF80
FF80
FF80
FF80
FF80
FF80
FF80
FF80
FF80
FFF0
FFF0
FFF0
FFF0
FFF0
FFF0
FFF0
FFF0
FFF0
1C00
1C00
1C00
1C00
1C00
1C00
1C00
1C00
1C00
1C00
ENDCHAR
STARTCHAR uni2522
ENCODING 9506
SWIDTH 602 0
DWIDTH 15 0
BBX 12 28 3 -5
BITMAP
1C00
1C00
1C00
1C00
1C00
1C00
1C00
1C00
1C00
FFF0
FFF0
FFF0
FFF0
FFF0
FFF0
FFF0
FFF0
FFF0
FF80
FF80
FF80
FF80
FF80
FF80
FF80
FF80
FF80
FF80
ENDCHAR
STARTCHAR uni2523
ENCODING 9507
SWIDTH 602 0
DWIDTH 15 0
BBX 12 28 3 -5
BITMAP
FF80
FF80
FF80
FF80
FF80
FF80
FF80
FF80
FF80
FFF0
FFF0
FFF0
FFF0
FFF0
FFF0
FFF0
FFF0
FFF0
FF80
FF80
FF80
FF80
FF80
FF80
FF80
FF80
FF80
FF80
ENDCHAR
STARTCHAR SF090000
ENCODING 9508
SWIDTH 602 0
DWIDTH 15 0
BBX 9 28 0 -5
BITMAP
0380
0380
0380
0380
0380
0380
0380
0380
0380
0380
0380
0380
FF80
FF80
FF80
0380
0380
0380
0380
0380
0380
0380
0380
0380
0380
0380
0380
0380
ENDCHAR
STARTCHAR uni2525
ENCODING 9509
SWIDTH 602 0
DWIDTH 15 0
BBX 12 28 0 -5
BITMAP
0380
0380
0380
0380
0380
0380
0380
0380
0380
FFF0
FFF0
FFF0
FFF0
FFF0
FFF0
FFF0
FFF0
FFF0
0380
0380
0380
0380
0380
0380
0380
0380
0380
0380
ENDCHAR
STARTCHAR uni2526
ENCODING 9510
SWIDTH 602 0
DWIDTH 15 0
BBX 12 28 0 -5
BITMAP
1FF0
1FF0
1FF0
1FF0
1FF0
1FF0
1FF0
1FF0
1FF0
1FF0
1FF0
1FF0
FFF0
FFF0
FFF0
1FF0
1FF0
1FF0
0380
0380
0380
0380
0380
0380
0380
0380
0380
0380
ENDCHAR
STARTCHAR uni2527
ENCODING 9511
SWIDTH 602 0
DWIDTH 15 0
BBX 12 28 0 -5
BITMAP
0380
0380
0380
0380
0380
0380
0380
0380
0380
1FF0
1FF0
1FF0
FFF0
FFF0
FFF0
1FF0
1FF0
1FF0
1FF0
1FF0
1FF0
1FF0
1FF0
1FF0
1FF0
1FF0
1FF0
1FF0
ENDCHAR
STARTCHAR uni2528
ENCODING 9512
SWIDTH 602 0
DWIDTH 15 0
BBX 12 28 0 -5
BITMAP
1FF0
1FF0
1FF0
1FF0
1FF0
1FF0
1FF0
1FF0
1FF0
1FF0
1FF0
1FF0
FFF0
FFF0
FFF0
1FF0
1FF0
1FF0
1FF0
1FF0
1FF0
1FF0
1FF0
1FF0
1FF0
1FF0
1FF0
1FF0
ENDCHAR
STARTCHAR uni2529
ENCODING 9513
SWIDTH 602 0
DWIDTH 15 0
BBX 12 28 0 -5
BITMAP
1FF0
1FF0
1FF0
1FF0
1FF0
1FF0
1FF0
1FF0
1FF0
FFF0
FFF0
FFF0
FFF0
FFF0
FFF0
FFF0
FFF0
FFF0
0380
0380
0380
0380
0380
0380
0380
0380
0380
0380
ENDCHAR
STARTCHAR uni252A
ENCODING 9514
SWIDTH 602 0
DWIDTH 15 0
BBX 12 28 0 -5
BITMAP
0380
0380
0380
0380
0380
0380
0380
0380
0380
FFF0
FFF0
FFF0
FFF0
FFF0
FFF0
FFF0
FFF0
FFF0
1FF0
1FF0
1FF0
1FF0
1FF0
1FF0
1FF0
1FF0
1FF0
1FF0
ENDCHAR
STARTCHAR uni252B
ENCODING 9515
SWIDTH 602 0
DWIDTH 15 0
BBX 12 28 0 -5
BITMAP
1FF0
1FF0
1FF0
1FF0
1FF0
1FF0
1FF0
1FF0
1FF0
FFF0
FFF0
FFF0
FFF0
FFF0
FFF0
FFF0
FFF0
FFF0
1FF0
1FF0
1FF0
1FF0
1FF0
1FF0
1FF0
1FF0
1FF0
1FF0
ENDCHAR
STARTCHAR SF060000
ENCODING 9516
SWIDTH 602 0
DWIDTH 15 0
BBX 15 16 0 -5
BITMAP
FFFE
FFFE
FFFE
0380
0380
0380
0380
0380
0380
0380
0380
0380
0380
0380
0380
0380
ENDCHAR
STARTCHAR uni252D
ENCODING 9517
SWIDTH 602 0
DWIDTH 15 0
BBX 15 19 0 -5
BITMAP
FFF0
FFF0
FFF0
FFFE
FFFE
FFFE
FFF0
FFF0
FFF0
0380
0380
0380
0380
0380
0380
0380
0380
0380
0380
ENDCHAR
STARTCHAR uni252E
ENCODING 9518
SWIDTH 602 0
DWIDTH 15 0
BBX 15 19 0 -5
BITMAP
1FFE
1FFE
1FFE
FFFE
FFFE
FFFE
1FFE
1FFE
1FFE
0380
0380
0380
0380
0380
0380
0380
0380
0380
0380
ENDCHAR
STARTCHAR uni252F
ENCODING 9519
SWIDTH 602 0
DWIDTH 15 0
BBX 15 19 0 -5
BITMAP
FFFE
FFFE
FFFE
FFFE
FFFE
FFFE
FFFE
FFFE
FFFE
0380
0380
0380
0380
0380
0380
0380
0380
0380
0380
ENDCHAR
STARTCHAR uni2530
ENCODING 9520
SWIDTH 602 0
DWIDTH 15 0
BBX 15 19 0 -5
BITMAP
1FF0
1FF0
1FF0
FFFE
FFFE
FFFE
1FF0
1FF0
1FF0
1FF0
1FF0
1FF0
1FF0
1FF0
1FF0
1FF0
1FF0
1FF0
1FF0
ENDCHAR
STARTCHAR uni2531
ENCODING 9521
SWIDTH 602 0
DWIDTH 15 0
BBX 15 19 0 -5
BITMAP
FFF0
FFF0
FFF0
FFFE
FFFE
FFFE
FFF0
FFF0
FFF0
1FF0
1FF0
1FF0
1FF0
1FF0
1FF0
1FF0
1FF0
1FF0
1FF0
ENDCHAR
STARTCHAR uni2532
ENCODING 9522
SWIDTH 602 0
DWIDTH 15 0
BBX 15 19 0 -5
BITMAP
1FFE
1FFE
1FFE
FFFE
FFFE
FFFE
1FFE
1FFE
1FFE
1FF0
1FF0
1FF0
1FF0
1FF0
1FF0
1FF0
1FF0
1FF0
1FF0
ENDCHAR
STARTCHAR uni2533
ENCODING 9523
SWIDTH 602 0
DWIDTH 15 0
BBX 15 19 0 -5
BITMAP
FFFE
FFFE
FFFE
FFFE
FFFE
FFFE
FFFE
FFFE
FFFE
1FF0
1FF0
1FF0
1FF0
1FF0
1FF0
1FF0
1FF0
1FF0
1FF0
ENDCHAR
STARTCHAR SF070000
ENCODING 9524
SWIDTH 602 0
DWIDTH 15 0
BBX 15 15 0 8
BITMAP
0380
0380
0380
0380
0380
0380
0380
0380
0380
0380
0380
0380
FFFE
FFFE
FFFE
ENDCHAR
STARTCHAR uni2535
ENCODING 9525
SWIDTH 602 0
DWIDTH 15 0
BBX 15 18 0 5
BITMAP
0380
0380
0380
0380
0380
0380
0380
0380
0380
FFF0
FFF0
FFF0
FFFE
FFFE
FFFE
FFF0
FFF0
FFF0
ENDCHAR
STARTCHAR uni2536
ENCODING 9526
SWIDTH 602 0
DWIDTH 15 0
BBX 15 18 0 5
BITMAP
0380
0380
0380
0380
0380
0380
0380
0380
0380
1FFE
1FFE
1FFE
FFFE
FFFE
FFFE
1FFE
1FFE
1FFE
ENDCHAR
STARTCHAR uni2537
ENCODING 9527
SWIDTH 602 0
DWIDTH 15 0
BBX 15 18 0 5
BITMAP
0380
0380
0380
0380
0380
0380
0380
0380
0380
FFFE
FFFE
FFFE
FFFE
FFFE
FFFE
FFFE
FFFE
FFFE
ENDCHAR
STARTCHAR uni2538
ENCODING 9528
SWIDTH 602 0
DWIDTH 15 0
BBX 15 18 0 5
BITMAP
1FF0
1FF0
1FF0
1FF0
1FF0
1FF0
1FF0
1FF0
1FF0
1FF0
1FF0
1FF0
FFFE
FFFE
FFFE
1FF0
1FF0
1FF0
ENDCHAR
STARTCHAR uni2539
ENCODING 9529
SWIDTH 602 0
DWIDTH 15 0
BBX 15 18 0 5
BITMAP
1FF0
1FF0
1FF0
1FF0
1FF0
1FF0
1FF0
1FF0
1FF0
FFF0
FFF0
FFF0
FFFE
FFFE
FFFE
FFF0
FFF0
FFF0
ENDCHAR
STARTCHAR uni253A
ENCODING 9530
SWIDTH 602 0
DWIDTH 15 0
BBX 15 18 0 5
BITMAP
1FF0
1FF0
1FF0
1FF0
1FF0
1FF0
1FF0
1FF0
1FF0
1FFE
1FFE
1FFE
FFFE
FFFE
FFFE
1FFE
1FFE
1FFE
ENDCHAR
STARTCHAR uni253B
ENCODING 9531
SWIDTH 602 0
DWIDTH 15 0
BBX 15 18 0 5
BITMAP
1FF0
1FF0
1FF0
1FF0
1FF0
1FF0
1FF0
1FF0
1FF0
FFFE
FFFE
FFFE
FFFE
FFFE
FFFE
FFFE
FFFE
FFFE
ENDCHAR
STARTCHAR SF050000
ENCODING 9532
SWIDTH 602 0
DWIDTH 15 0
BBX 15 28 0 -5
BITMAP
0380
0380
0380
0380
0380
0380
0380
0380
0380
0380
0380
0380
FFFE
FFFE
FFFE
0380
0380
0380
0380
0380
0380
0380
0380
0380
0380
0380
0380
0380
ENDCHAR
STARTCHAR uni253D
ENCODING 9533
SWIDTH 602 0
DWIDTH 15 0
BBX 15 28 0 -5
BITMAP
0380
0380
0380
0380
0380
0380
0380
0380
0380
FFF0
FFF0
FFF0
FFFE
FFFE
FFFE
FFF0
FFF0
FFF0
0380
0380
0380
0380
0380
0380
0380
0380
0380
0380
ENDCHAR
STARTCHAR uni253E
ENCODING 9534
SWIDTH 602 0
DWIDTH 15 0
BBX 15 28 0 -5
BITMAP
0380
0380
0380
0380
0380
0380
0380
0380
0380
1FFE
1FFE
1FFE
FFFE
FFFE
FFFE
1FFE
1FFE
1FFE
0380
0380
0380
0380
0380
0380
0380
0380
0380
0380
ENDCHAR
STARTCHAR uni253F
ENCODING 9535
SWIDTH 602 0
DWIDTH 15 0
BBX 15 28 0 -5
BITMAP
0380
0380
0380
0380
0380
0380
0380
0380
0380
FFFE
FFFE
FFFE
FFFE
FFFE
FFFE
FFFE
FFFE
FFFE
0380
0380
0380
0380
0380
0380
0380
0380
0380
0380
ENDCHAR
STARTCHAR uni2540
ENCODING 9536
SWIDTH 602 0
DWIDTH 15 0
BBX 15 28 0 -5
BITMAP
1FF0
1FF0
1FF0
1FF0
1FF0
1FF0
1FF0
1FF0
1FF0
1FF0
1FF0
1FF0
FFFE
FFFE
FFFE
1FF0
1FF0
1FF0
0380
0380
0380
0380
0380
0380
0380
0380
0380
0380
ENDCHAR
STARTCHAR uni2541
ENCODING 9537
SWIDTH 602 0
DWIDTH 15 0
BBX 15 28 0 -5
BITMAP
0380
0380
0380
0380
0380
0380
0380
0380
0380
1FF0
1FF0
1FF0
FFFE
FFFE
FFFE
1FF0
1FF0
1FF0
1FF0
1FF0
1FF0
1FF0
1FF0
1FF0
1FF0
1FF0
1FF0
1FF0
ENDCHAR
STARTCHAR uni2542
ENCODING 9538
SWIDTH 602 0
DWIDTH 15 0
BBX 15 28 0 -5
BITMAP
1FF0
1FF0
1FF0
1FF0
1FF0
1FF0
1FF0
1FF0
1FF0
1FF0
1FF0
1FF0
FFFE
FFFE
FFFE
1FF0
1FF0
1FF0
1FF0
1FF0
1FF0
1FF0
1FF0
1FF0
1FF0
1FF0
1FF0
1FF0
ENDCHAR
STARTCHAR uni2543
ENCODING 9539
SWIDTH 602 0
DWIDTH 15 0
BBX 15 28 0 -5
BITMAP
1FF0
1FF0
1FF0
1FF0
1FF0
1FF0
1FF0
1FF0
1FF0
FFF0
FFF0
FFF0
FFFE
FFFE
FFFE
FFF0
FFF0
FFF0
0380
0380
0380
0380
0380
0380
0380
0380
0380
0380
ENDCHAR
STARTCHAR uni2544
ENCODING 9540
SWIDTH 602 0
DWIDTH 15 0
BBX 15 28 0 -5
BITMAP
1FF0
1FF0
1FF0
1FF0
1FF0
1FF0
1FF0
1FF0
1FF0
1FFE
1FFE
1FFE
FFFE
FFFE
FFFE
1FFE
1FFE
1FFE
0380
0380
0380
0380
0380
0380
0380
0380
0380
0380
ENDCHAR
STARTCHAR uni2545
ENCODING 9541
SWIDTH 602 0
DWIDTH 15 0
BBX 15 28 0 -5
BITMAP
0380
0380
0380
0380
0380
0380
0380
0380
0380
FFF0
FFF0
FFF0
FFFE
FFFE
FFFE
FFF0
FFF0
FFF0
1FF0
1FF0
1FF0
1FF0
1FF0
1FF0
1FF0
1FF0
1FF0
1FF0
ENDCHAR
STARTCHAR uni2546
ENCODING 9542
SWIDTH 602 0
DWIDTH 15 0
BBX 15 28 0 -5
BITMAP
0380
0380
0380
0380
0380
0380
0380
0380
0380
1FFE
1FFE
1FFE
FFFE
FFFE
FFFE
1FFE
1FFE
1FFE
1FF0
1FF0
1FF0
1FF0
1FF0
1FF0
1FF0
1FF0
1FF0
1FF0
ENDCHAR
STARTCHAR uni2547
ENCODING 9543
SWIDTH 602 0
DWIDTH 15 0
BBX 15 28 0 -5
BITMAP
1FF0
1FF0
1FF0
1FF0
1FF0
1FF0
1FF0
1FF0
1FF0
FFFE
FFFE
FFFE
FFFE
FFFE
FFFE
FFFE
FFFE
FFFE
0380
0380
0380
0380
0380
0380
0380
0380
0380
0380
ENDCHAR
STARTCHAR uni2548
ENCODING 9544
SWIDTH 602 0
DWIDTH 15 0
BBX 15 28 0 -5
BITMAP
0380
0380
0380
0380
0380
0380
0380
0380
0380
FFFE
FFFE
FFFE
FFFE
FFFE
FFFE
FFFE
FFFE
FFFE
1FF0
1FF0
1FF0
1FF0
1FF0
1FF0
1FF0
1FF0
1FF0
1FF0
ENDCHAR
STARTCHAR uni2549
ENCODING 9545
SWIDTH 602 0
DWIDTH 15 0
BBX 15 28 0 -5
BITMAP
1FF0
1FF0
1FF0
1FF0
1FF0
1FF0
1FF0
1FF0
1FF0
FFF0
FFF0
FFF0
FFFE
FFFE
FFFE
FFF0
FFF0
FFF0
1FF0
1FF0
1FF0
1FF0
1FF0
1FF0
1FF0
1FF0
1FF0
1FF0
ENDCHAR
STARTCHAR uni254A
ENCODING 9546
SWIDTH 602 0
DWIDTH 15 0
BBX 15 28 0 -5
BITMAP
1FF0
1FF0
1FF0
1FF0
1FF0
1FF0
1FF0
1FF0
1FF0
1FFE
1FFE
1FFE
FFFE
FFFE
FFFE
1FFE
1FFE
1FFE
1FF0
1FF0
1FF0
1FF0
1FF0
1FF0
1FF0
1FF0
1FF0
1FF0
ENDCHAR
STARTCHAR uni254B
ENCODING 9547
SWIDTH 602 0
DWIDTH 15 0
BBX 15 28 0 -5
BITMAP
1FF0
1FF0
1FF0
1FF0
1FF0
1FF0
1FF0
1FF0
1FF0
FFFE
FFFE
FFFE
FFFE
FFFE
FFFE
FFFE
FFFE
FFFE
1FF0
1FF0
1FF0
1FF0
1FF0
1FF0
1FF0
1FF0
1FF0
1FF0
ENDCHAR
STARTCHAR uni254C
ENCODING 9548
SWIDTH 602 0
DWIDTH 15 0
BBX 15 28 0 -5
BITMAP
0000
0000
0000
0000
0000
0000
0000
0000
0000
0000
0000
0000
FC7E
FC7E
FC7E
0000
0000
0000
0000
0000
0000
0000
0000
0000
0000
0000
0000
0000
ENDCHAR
STARTCHAR uni254D
ENCODING 9549
SWIDTH 602 0
DWIDTH 15 0
BBX 15 28 0 -5
BITMAP
0000
0000
0000
0000
0000
0000
0000
0000
0000
FC7E
FC7E
FC7E
FC7E
FC7E
FC7E
FC7E
FC7E
FC7E
0000
0000
0000
0000
0000
0000
0000
0000
0000
0000
ENDCHAR
STARTCHAR uni254E
ENCODING 9550
SWIDTH 602 0
DWIDTH 15 0
BBX 15 28 0 -5
BITMAP
0380
0380
0380
0380
0380
0380
0380
0380
0380
0380
0380
0380
0000
0000
0000
0380
0380
0380
0380
0380
0380
0380
0380
0380
0380
0380
0380
0380
ENDCHAR
STARTCHAR uni254F
ENCODING 9551
SWIDTH 602 0
DWIDTH 15 0
BBX 15 28 0 -5
BITMAP
1FF0
1FF0
1FF0
1FF0
1FF0
1FF0
1FF0
1FF0
1FF0
1FF0
1FF0
1FF0
0000
0000
0000
1FF0
1FF0
1FF0
1FF0
1FF0
1FF0
1FF0
1FF0
1FF0
1FF0
1FF0
1FF0
1FF0
ENDCHAR
STARTCHAR SF430000
ENCODING 9552
SWIDTH 602 0
DWIDTH 15 0
BBX 15 9 0 5
BITMAP
FFFE
FFFE
FFFE
0000
0000
0000
FFFE
FFFE
FFFE
ENDCHAR
STARTCHAR SF240000
ENCODING 9553
SWIDTH 602 0
DWIDTH 15 0
BBX 9 28 3 -5
BITMAP
E380
E380
E380
E380
E380
E380
E380
E380
E380
E380
E380
E380
E380
E380
E380
E380
E380
E380
E380
E380
E380
E380
E380
E380
E380
E380
E380
E380
ENDCHAR
STARTCHAR SF390000
ENCODING 9556
SWIDTH 602 0
DWIDTH 15 0
BBX 12 19 3 -5
BITMAP
FFF0
FFF0
FFF0
E000
E000
E000
E3F0
E3F0
E3F0
E380
E380
E380
E380
E380
E380
E380
E380
E380
E380
ENDCHAR
STARTCHAR SF250000
ENCODING 9559
SWIDTH 602 0
DWIDTH 15 0
BBX 12 19 0 -5
BITMAP
FFF0
FFF0
FFF0
0070
0070
0070
FC70
FC70
FC70
1C70
1C70
1C70
1C70
1C70
1C70
1C70
1C70
1C70
1C70
ENDCHAR
STARTCHAR SF380000
ENCODING 9562
SWIDTH 602 0
DWIDTH 15 0
BBX 12 18 3 5
BITMAP
E380
E380
E380
E380
E380
E380
E380
E380
E380
E3F0
E3F0
E3F0
E000
E000
E000
FFF0
FFF0
FFF0
ENDCHAR
STARTCHAR SF260000
ENCODING 9565
SWIDTH 602 0
DWIDTH 15 0
BBX 12 18 0 5
BITMAP
1C70
1C70
1C70
1C70
1C70
1C70
1C70
1C70
1C70
FC70
FC70
FC70
0070
0070
0070
FFF0
FFF0
FFF0
ENDCHAR
STARTCHAR SF420000
ENCODING 9568
SWIDTH 602 0
DWIDTH 15 0
BBX 12 28 3 -5
BITMAP
E380
E380
E380
E380
E380
E380
E380
E380
E380
E3F0
E3F0
E3F0
E000
E000
E000
E3F0
E3F0
E3F0
E380
E380
E380
E380
E380
E380
E380
E380
E380
E380
ENDCHAR
STARTCHAR SF230000
ENCODING 9571
SWIDTH 602 0
DWIDTH 15 0
BBX 12 28 0 -5
BITMAP
1C70
1C70
1C70
1C70
1C70
1C70
1C70
1C70
1C70
FC70
FC70
FC70
0070
0070
0070
FC70
FC70
FC70
1C70
1C70
1C70
1C70
1C70
1C70
1C70
1C70
1C70
1C70
ENDCHAR
STARTCHAR SF410000
ENCODING 9574
SWIDTH 602 0
DWIDTH 15 0
BBX 15 19 0 -5
BITMAP
FFFE
FFFE
FFFE
0000
0000
0000
FC7E
FC7E
FC7E
1C70
1C70
1C70
1C70
1C70
1C70
1C70
1C70
1C70
1C70
ENDCHAR
STARTCHAR SF400000
ENCODING 9577
SWIDTH 602 0
DWIDTH 15 0
BBX 15 18 0 5
BITMAP
1C70
1C70
1C70
1C70
1C70
1C70
1C70
1C70
1C70
FC7E
FC7E
FC7E
0000
0000
0000
FFFE
FFFE
FFFE
ENDCHAR
STARTCHAR SF540000
ENCODING 9578
SWIDTH 602 0
DWIDTH 15 0
BBX 15 28 0 -5
BITMAP
0380
0380
0380
0380
0380
0380
0380
0380
0380
FFFE
FFFE
FFFE
0380
0380
0380
FFFE
FFFE
FFFE
0380
0380
0380
0380
0380
0380
0380
0380
0380
0380
ENDCHAR
STARTCHAR SF530000
ENCODING 9579
SWIDTH 602 0
DWIDTH 15 0
BBX 15 28 0 -5
BITMAP
1C70
1C70
1C70
1C70
1C70
1C70
1C70
1C70
1C70
1C70
1C70
1C70
FFFE
FFFE
FFFE
1C70
1C70
1C70
1C70
1C70
1C70
1C70
1C70
1C70
1C70
1C70
1C70
1C70
ENDCHAR
STARTCHAR SF440000
ENCODING 9580
SWIDTH 602 0
DWIDTH 15 0
BBX 15 28 0 -5
BITMAP
1C70
1C70
1C70
1C70
1C70
1C70
1C70
1C70
1C70
FC7E
FC7E
FC7E
0000
0000
0000
FC7E
FC7E
FC7E
1C70
1C70
1C70
1C70
1C70
1C70
1C70
1C70
1C70
1C70
ENDCHAR
STARTCHAR uni2574
ENCODING 9588
SWIDTH 602 0
DWIDTH 15 0
BBX 9 3 0 8
BITMAP
FF80
FF80
FF80
ENDCHAR
STARTCHAR uni2575
ENCODING 9589
SWIDTH 602 0
DWIDTH 15 0
BBX 3 15 6 8
BITMAP
E0
E0
E0
E0
E0
E0
E0
E0
E0
E0
E0
E0
E0
E0
E0
ENDCHAR
STARTCHAR uni2576
ENCODING 9590
SWIDTH 602 0
DWIDTH 15 0
BBX 9 3 6 8
BITMAP
FF80
FF80
FF80
ENDCHAR
STARTCHAR uni2577
ENCODING 9591
SWIDTH 602 0
DWIDTH 15 0
BBX 3 16 6 -5
BITMAP
E0
E0
E0
E0
E0
E0
E0
E0
E0
E0
E0
E0
E0
E0
E0
E0
ENDCHAR
STARTCHAR uni2578
ENCODING 9592
SWIDTH 602 0
DWIDTH 15 0
BBX 12 9 0 5
BITMAP
FFF0
FFF0
FFF0
FFF0
FFF0
FFF0
FFF0
FFF0
FFF0
ENDCHAR
STARTCHAR uni2579
ENCODING 9593
SWIDTH 602 0
DWIDTH 15 0
BBX 9 18 3 5
BITMAP
FF80
FF80
FF80
FF80
FF80
FF80
FF80
FF80
FF80
FF80
FF80
FF80
FF80
FF80
FF80
FF80
FF80
FF80
ENDCHAR
STARTCHAR uni257A
ENCODING 9594
SWIDTH 602 0
DWIDTH 15 0
BBX 12 9 3 5
BITMAP
FFF0
FFF0
FFF0
FFF0
FFF0
FFF0
FFF0
FFF0
FFF0
ENDCHAR
STARTCHAR uni257B
ENCODING 9595
SWIDTH 602 0
DWIDTH 15 0
BBX 9 19 3 -5
BITMAP
FF80
FF80
FF80
FF80
FF80
FF80
FF80
FF80
FF80
FF80
FF80
FF80
FF80
FF80
FF80
FF80
FF80
FF80
FF80
ENDCHAR
STARTCHAR uni257C
ENCODING 9596
SWIDTH 602 0
DWIDTH 15 0
BBX 15 9 0 5
BITMAP
1FFE
1FFE
1FFE
FFFE
FFFE
FFFE
1FFE
1FFE
1FFE
ENDCHAR
STARTCHAR uni257D
ENCODING 9597
SWIDTH 602 0
DWIDTH 15 0
BBX 9 28 3 -5
BITMAP
1C00
1C00
1C00
1C00
1C00
1C00
1C00
1C00
1C00
FF80
FF80
FF80
FF80
FF80
FF80
FF80
FF80
FF80
FF80
FF80
FF80
FF80
FF80
FF80
FF80
FF80
FF80
FF80
ENDCHAR
STARTCHAR uni257E
ENCODING 9598
SWIDTH 602 0
DWIDTH 15 0
BBX 15 9 0 5
BITMAP
FFF0
FFF0
FFF0
FFFE
FFFE
FFFE
FFF0
FFF0
FFF0
ENDCHAR
STARTCHAR uni257F
ENCODING 9599
SWIDTH 602 0
DWIDTH 15 0
BBX 9 28 3 -5
BITMAP
FF80
FF80
FF80
FF80
FF80
FF80
FF80
FF80
FF80
FF80
FF80
FF80
FF80
FF80
FF80
FF80
FF80
FF80
1C00
1C00
1C00
1C00
1C00
1C00
1C00
1C00
1C00
1C00
ENDCHAR
STARTCHAR upblock
ENCODING 9600
SWIDTH 602 0
DWIDTH 15 0
BBX 15 29 0 -5
BITMAP
FFFE
FFFE
FFFE
FFFE
FFFE
FFFE
FFFE
FFFE
FFFE
FFFE
FFFE
FFFE
FFFE
FFFE
0000
0000
0000
0000
0000
0000
0000
0000
0000
0000
0000
0000
0000
0000
0000
ENDCHAR
STARTCHAR uni2581
ENCODING 9601
SWIDTH 602 0
DWIDTH 15 0
BBX 15 4 0 -5
BITMAP
FFFE
FFFE
FFFE
FFFE
ENDCHAR
STARTCHAR uni2582
ENCODING 9602
SWIDTH 602 0
DWIDTH 15 0
BBX 15 7 0 -5
BITMAP
FFFE
FFFE
FFFE
FFFE
FFFE
FFFE
FFFE
ENDCHAR
STARTCHAR uni2583
ENCODING 9603
SWIDTH 602 0
DWIDTH 15 0
BBX 15 11 0 -5
BITMAP
FFFE
FFFE
FFFE
FFFE
FFFE
FFFE
FFFE
FFFE
FFFE
FFFE
FFFE
ENDCHAR
STARTCHAR dnblock
ENCODING 9604
SWIDTH 602 0
DWIDTH 15 0
BBX 15 15 0 -5
BITMAP
FFFE
FFFE
FFFE
FFFE
FFFE
FFFE
FFFE
FFFE
FFFE
FFFE
FFFE
FFFE
FFFE
FFFE
FFFE
ENDCHAR
STARTCHAR uni2585
ENCODING 9605
SWIDTH 602 0
DWIDTH 15 0
BBX 15 18 0 -5
BITMAP
FFFE
FFFE
FFFE
FFFE
FFFE
FFFE
FFFE
FFFE
FFFE
FFFE
FFFE
FFFE
FFFE
FFFE
FFFE
FFFE
FFFE
FFFE
ENDCHAR
STARTCHAR uni2586
ENCODING 9606
SWIDTH 602 0
DWIDTH 15 0
BBX 15 22 0 -5
BITMAP
FFFE
FFFE
FFFE
FFFE
FFFE
FFFE
FFFE
FFFE
FFFE
FFFE
FFFE
FFFE
FFFE
FFFE
FFFE
FFFE
FFFE
FFFE
FFFE
FFFE
FFFE
FFFE
ENDCHAR
STARTCHAR uni2587
ENCODING 9607
SWIDTH 602 0
DWIDTH 15 0
BBX 15 25 0 -5
BITMAP
FFFE
FFFE
FFFE
FFFE
FFFE
FFFE
FFFE
FFFE
FFFE
FFFE
FFFE
FFFE
FFFE
FFFE
FFFE
FFFE
FFFE
FFFE
FFFE
FFFE
FFFE
FFFE
FFFE
FFFE
FFFE
ENDCHAR
STARTCHAR block
ENCODING 9608
SWIDTH 602 0
DWIDTH 15 0
BBX 15 29 0 -5
BITMAP
FFFE
FFFE
FFFE
FFFE
FFFE
FFFE
FFFE
FFFE
FFFE
FFFE
FFFE
FFFE
FFFE
FFFE
FFFE
FFFE
FFFE
FFFE
FFFE
FFFE
FFFE
FFFE
FFFE
FFFE
FFFE
FFFE
FFFE
FFFE
FFFE
ENDCHAR
STARTCHAR uni2589
ENCODING 9609
SWIDTH 602 0
DWIDTH 15 0
BBX 13 29 0 -5
BITMAP
FFF8
FFF8
FFF8
FFF8
FFF8
FFF8
FFF8
FFF8
FFF8
FFF8
FFF8
FFF8
FFF8
FFF8
FFF8
FFF8
FFF8
FFF8
FFF8
FFF8
FFF8
FFF8
FFF8
FFF8
FFF8
FFF8
FFF8
FFF8
FFF8
ENDCHAR
STARTCHAR uni258A
ENCODING 9610
SWIDTH 602 0
DWIDTH 15 0
BBX 11 29 0 -5
BITMAP
FFE0
FFE0
FFE0
FFE0
FFE0
FFE0
FFE0
FFE0
FFE0
FFE0
FFE0
FFE0
FFE0
FFE0
FFE0
FFE0
FFE0
FFE0
FFE0
FFE0
FFE0
FFE0
FFE0
FFE0
FFE0
FFE0
FFE0
FFE0
FFE0
ENDCHAR
STARTCHAR uni258B
ENCODING 9611
SWIDTH 602 0
DWIDTH 15 0
BBX 9 29 0 -5
BITMAP
FF80
FF80
FF80
FF80
FF80
FF80
FF80
FF80
FF80
FF80
FF80
FF80
FF80
FF80
FF80
FF80
FF80
FF80
FF80
FF80
FF80
FF80
FF80
FF80
FF80
FF80
FF80
FF80
FF80
ENDCHAR
STARTCHAR lfblock
ENCODING 9612
SWIDTH 602 0
DWIDTH 15 0
BBX 8 29 0 -5
BITMAP
FF
FF
FF
FF
FF
FF
FF
FF
FF
FF
FF
FF
FF
FF
FF
FF
FF
FF
FF
FF
FF
FF
FF
FF
FF
FF
FF
FF
FF
ENDCHAR
STARTCHAR uni258D
ENCODING 9613
SWIDTH 602 0
DWIDTH 15 0
BBX 6 29 0 -5
BITMAP
FC
FC
FC
FC
FC
FC
FC
FC
FC
FC
FC
FC
FC
FC
FC
FC
FC
FC
FC
FC
FC
FC
FC
FC
FC
FC
FC
FC
FC
ENDCHAR
STARTCHAR uni258E
ENCODING 9614
SWIDTH 602 0
DWIDTH 15 0
BBX 4 29 0 -5
BITMAP
F0
F0
F0
F0
F0
F0
F0
F0
F0
F0
F0
F0
F0
F0
F0
F0
F0
F0
F0
F0
F0
F0
F0
F0
F0
F0
F0
F0
F0
ENDCHAR
STARTCHAR uni258F
ENCODING 9615
SWIDTH 602 0
DWIDTH 15 0
BBX 2 29 0 -5
BITMAP
C0
C0
C0
C0
C0
C0
C0
C0
C0
C0
C0
C0
C0
C0
C0
C0
C0
C0
C0
C0
C0
C0
C0
C0
C0
C0
C0
C0
C0
ENDCHAR
STARTCHAR rtblock
ENCODING 9616
SWIDTH 602 0
DWIDTH 15 0
BBX 15 29 0 -5
BITMAP
00FE
00FE
00FE
00FE
00FE
00FE
00FE
00FE
00FE
00FE
00FE
00FE
00FE
00FE
00FE
00FE
00FE
00FE
00FE
00FE
00FE
00FE
00FE
00FE
00FE
00FE
00FE
00FE
00FE
ENDCHAR
STARTCHAR ltshade
ENCODING 9617
SWIDTH 602 0
DWIDTH 15 0
BBX 15 29 0 -5
BITMAP
0000
5554
0000
AAAA
0000
5554
0000
AAAA
0000
5554
0000
AAAA
0000
5554
0000
AAAA
0000
5554
0000
AAAA
0000
5554
0000
AAAA
0000
5554
0000
AAAA
0000
ENDCHAR
STARTCHAR shade
ENCODING 9618
SWIDTH 602 0
DWIDTH 15 0
BBX 15 29 0 -5
BITMAP
5554
AAAA
5554
AAAA
5554
AAAA
5554
AAAA
5554
AAAA
5554
AAAA
5554
AAAA
5554
AAAA
5554
AAAA
5554
AAAA
5554
AAAA
5554
AAAA
5554
AAAA
5554
AAAA
5554
ENDCHAR
STARTCHAR dkshade
ENCODING 9619
SWIDTH 602 0
DWIDTH 15 0
BBX 15 29 0 -5
BITMAP
FFFE
AAAA
FFFE
5554
FFFE
AAAA
FFFE
5554
FFFE
AAAA
FFFE
5554
FFFE
AAAA
FFFE
5554
FFFE
AAAA
FFFE
5554
FFFE
AAAA
FFFE
5554
FFFE
AAAA
FFFE
5554
FFFE
ENDCHAR
STARTCHAR uni2594
ENCODING 9620
SWIDTH 602 0
DWIDTH 15 0
BBX 15 29 0 -5
BITMAP
FFFE
FFFE
FFFE
FFFE
0000
0000
0000
0000
0000
0000
0000
0000
0000
0000
0000
0000
0000
0000
0000
0000
0000
0000
0000
0000
0000
0000
0000
0000
0000
ENDCHAR
STARTCHAR uni2595
ENCODING 9621
SWIDTH 602 0
DWIDTH 15 0
BBX 15 29 0 -5
BITMAP
001E
001E
001E
001E
001E
001E
001E
001E
001E
001E
001E
001E
001E
001E
001E
001E
001E
001E
001E
001E
001E
001E
001E
001E
001E
001E
001E
001E
001E
ENDCHAR
STARTCHAR fi
ENCODING -1
SWIDTH 602 0
DWIDTH 15 0
BBX 13 19 0 0
BITMAP
0F38
1F38
3F38
3C38
3C00
3C00
FFF8
FFF8
FFF8
3C78
3C78
3C78
3C78
3C78
3C78
3C78
3C78
3C78
3C78
ENDCHAR
STARTCHAR fl
ENCODING -1
SWIDTH 602 0
DWIDTH 15 0
BBX 13 19 1 0
BITMAP
0FF8
1FF8
3FF8
3C78
3C78
3C78
FF78
FF78
FF78
3C78
3C78
3C78
3C78
3C78
3C78
3C78
3C78
3C78
3C78
ENDCHAR
ENDFONT
